<?xml version="1.0" standalone="no"?>
<!DOCTYPE svg PUBLIC "-//W3C//DTD SVG 1.1//EN" "http://www.w3.org/Graphics/SVG/1.1/DTD/svg11.dtd">
<svg width="471mm" height="40mm" viewBox="-3 -20 471 40" xmlns="http://www.w3.org/2000/svg" version="1.1">
<title>OpenSCAD Model</title>
<path d="
M 463.022,19.4999 L 463.053,19.4997 L 463.083,19.4992 L 463.114,19.4985 L 463.146,19.4975 L 463.178,19.4962
 L 463.209,19.4948 L 463.24,19.493 L 463.272,19.491 L 463.304,19.4888 L 463.334,19.4864 L 463.365,19.4837
 L 463.397,19.4807 L 463.428,19.4775 L 463.46,19.474 L 463.491,19.4704 L 463.522,19.4664 L 463.553,19.4623
 L 463.584,19.4578 L 463.615,19.4532 L 463.646,19.4482 L 463.677,19.4431 L 463.708,19.4376 L 463.739,19.432
 L 463.77,19.4261 L 463.801,19.4199 L 463.831,19.4137 L 463.862,19.4071 L 463.893,19.4002 L 463.924,19.3931
 L 463.954,19.3858 L 463.984,19.3783 L 464.015,19.3703 L 464.046,19.3622 L 464.076,19.3539 L 464.106,19.3454
 L 464.136,19.3367 L 464.166,19.3277 L 464.196,19.3184 L 464.226,19.309 L 464.255,19.2995 L 464.285,19.2895
 L 464.315,19.2793 L 464.345,19.2689 L 464.375,19.2579 L 464.405,19.2471 L 464.434,19.2361 L 464.463,19.2247
 L 464.492,19.2133 L 464.521,19.2015 L 464.551,19.1892 L 464.58,19.177 L 464.607,19.165 L 464.636,19.1523
 L 464.666,19.1389 L 464.694,19.1258 L 464.722,19.1126 L 464.75,19.099 L 464.779,19.0853 L 464.807,19.0713
 L 464.836,19.0565 L 464.864,19.042 L 464.89,19.0279 L 464.918,19.013 L 464.946,18.9975 L 464.973,18.9822
 L 465,18.9669 L 465.027,18.9511 L 465.055,18.9347 L 465.082,18.9185 L 465.109,18.9021 L 465.135,18.8855
 L 465.161,18.8689 L 465.188,18.8518 L 465.214,18.8349 L 465.24,18.8175 L 465.266,18.7993 L 465.292,18.7815
 L 465.318,18.7635 L 465.343,18.7452 L 465.369,18.7268 L 465.394,18.7082 L 465.419,18.689 L 465.444,18.67
 L 465.469,18.6508 L 465.494,18.6314 L 465.518,18.6119 L 465.542,18.5921 L 465.567,18.5719 L 465.591,18.5517
 L 465.614,18.5315 L 465.638,18.511 L 465.662,18.49 L 465.685,18.469 L 465.709,18.4478 L 465.732,18.4265
 L 465.754,18.4053 L 465.777,18.3836 L 465.8,18.3611 L 465.823,18.3391 L 465.844,18.3177 L 465.866,18.2953
 L 465.889,18.2721 L 465.91,18.2494 L 465.931,18.2268 L 465.953,18.2038 L 465.974,18.1804 L 465.995,18.157
 L 466.016,18.1332 L 466.037,18.1095 L 466.057,18.0859 L 466.077,18.0619 L 466.097,18.0374 L 466.117,18.0131
 L 466.136,17.9888 L 466.156,17.9641 L 466.175,17.9394 L 466.194,17.9145 L 466.213,17.889 L 466.232,17.8637
 L 466.25,17.8384 L 466.268,17.8129 L 466.286,17.7873 L 466.304,17.7614 L 466.322,17.7347 L 466.34,17.7086
 L 466.357,17.6829 L 466.374,17.6565 L 466.39,17.6303 L 466.407,17.6037 L 466.423,17.577 L 466.44,17.5501
 L 466.456,17.5223 L 466.472,17.4951 L 466.487,17.4683 L 466.503,17.4409 L 466.518,17.4127 L 466.533,17.385
 L 466.547,17.3585 L 466.561,17.3306 L 466.576,17.3016 L 466.59,17.2735 L 466.604,17.2454 L 466.618,17.2171
 L 466.631,17.1892 L 466.644,17.1606 L 466.657,17.131 L 466.67,17.1022 L 466.682,17.0746 L 466.694,17.0457
 L 466.707,17.016 L 466.718,16.9869 L 466.73,16.958 L 466.741,16.9287 L 466.752,16.8997 L 466.763,16.8702
 L 466.774,16.8399 L 466.784,16.8102 L 466.795,16.7803 L 466.804,16.7505 L 466.814,16.7213 L 466.823,16.6913
 L 466.833,16.6611 L 466.842,16.631 L 466.85,16.6011 L 466.859,16.5709 L 466.867,16.5406 L 466.875,16.5103
 L 466.883,16.4792 L 466.891,16.4488 L 466.898,16.4185 L 466.905,16.3879 L 466.912,16.3569 L 466.919,16.3261
 L 466.925,16.2961 L 466.931,16.2653 L 466.937,16.2342 L 466.943,16.2033 L 466.948,16.1722 L 466.953,16.1412
 L 466.958,16.1101 L 466.963,16.0791 L 466.967,16.0479 L 466.971,16.0168 L 466.975,15.9858 L 466.979,15.9546
 L 466.982,15.9234 L 466.986,15.8921 L 466.989,15.8602 L 466.991,15.8289 L 466.994,15.7988 L 466.996,15.7675
 L 466.998,15.7353 L 467,15.704 L 467.001,15.6729 L 467.002,15.6415 L 467.003,15.6094 L 467.004,15.578
 L 467.005,15.5479 L 467.005,15.5165 L 467.005,15.5 L 467.005,-15.5 L 467.005,-15.5165 L 467.005,-15.5479
 L 467.004,-15.578 L 467.003,-15.6094 L 467.002,-15.6415 L 467.001,-15.6729 L 467,-15.704 L 466.998,-15.7353
 L 466.996,-15.7675 L 466.994,-15.7988 L 466.991,-15.8289 L 466.989,-15.8602 L 466.986,-15.8921 L 466.982,-15.9234
 L 466.979,-15.9546 L 466.975,-15.9858 L 466.971,-16.0168 L 466.967,-16.0479 L 466.963,-16.0791 L 466.958,-16.1101
 L 466.953,-16.1412 L 466.948,-16.1722 L 466.943,-16.2033 L 466.937,-16.2342 L 466.931,-16.2653 L 466.925,-16.2961
 L 466.919,-16.3261 L 466.912,-16.3569 L 466.905,-16.3879 L 466.898,-16.4185 L 466.891,-16.4488 L 466.883,-16.4792
 L 466.875,-16.5103 L 466.867,-16.5406 L 466.859,-16.5709 L 466.85,-16.6011 L 466.842,-16.631 L 466.833,-16.6611
 L 466.823,-16.6913 L 466.814,-16.7213 L 466.804,-16.7505 L 466.795,-16.7803 L 466.784,-16.8102 L 466.774,-16.8399
 L 466.763,-16.8702 L 466.752,-16.8997 L 466.741,-16.9287 L 466.73,-16.958 L 466.718,-16.9869 L 466.707,-17.016
 L 466.694,-17.0457 L 466.682,-17.0746 L 466.67,-17.1022 L 466.657,-17.131 L 466.644,-17.1606 L 466.631,-17.1892
 L 466.618,-17.2171 L 466.604,-17.2454 L 466.59,-17.2735 L 466.576,-17.3016 L 466.561,-17.3306 L 466.547,-17.3585
 L 466.533,-17.385 L 466.518,-17.4127 L 466.503,-17.4409 L 466.487,-17.4683 L 466.472,-17.4951 L 466.456,-17.5223
 L 466.44,-17.5501 L 466.423,-17.577 L 466.407,-17.6037 L 466.39,-17.6303 L 466.374,-17.6565 L 466.357,-17.6829
 L 466.34,-17.7086 L 466.322,-17.7347 L 466.304,-17.7614 L 466.286,-17.7873 L 466.268,-17.8129 L 466.25,-17.8384
 L 466.232,-17.8637 L 466.213,-17.889 L 466.194,-17.9145 L 466.175,-17.9394 L 466.156,-17.9641 L 466.136,-17.9888
 L 466.117,-18.0131 L 466.097,-18.0374 L 466.077,-18.0619 L 466.057,-18.0859 L 466.037,-18.1095 L 466.016,-18.1332
 L 465.995,-18.157 L 465.974,-18.1804 L 465.953,-18.2038 L 465.931,-18.2268 L 465.91,-18.2494 L 465.889,-18.2721
 L 465.866,-18.2953 L 465.844,-18.3177 L 465.823,-18.3391 L 465.8,-18.3611 L 465.777,-18.3836 L 465.754,-18.4053
 L 465.732,-18.4265 L 465.709,-18.4478 L 465.685,-18.469 L 465.662,-18.49 L 465.638,-18.511 L 465.614,-18.5315
 L 465.591,-18.5517 L 465.567,-18.5719 L 465.542,-18.5921 L 465.518,-18.6119 L 465.494,-18.6314 L 465.469,-18.6508
 L 465.444,-18.67 L 465.419,-18.689 L 465.394,-18.7082 L 465.369,-18.7268 L 465.343,-18.7452 L 465.318,-18.7635
 L 465.292,-18.7815 L 465.266,-18.7993 L 465.24,-18.8175 L 465.214,-18.8349 L 465.188,-18.8518 L 465.161,-18.8689
 L 465.135,-18.8855 L 465.109,-18.9021 L 465.082,-18.9185 L 465.055,-18.9347 L 465.027,-18.9511 L 465,-18.9669
 L 464.973,-18.9822 L 464.946,-18.9975 L 464.918,-19.013 L 464.89,-19.0279 L 464.864,-19.042 L 464.836,-19.0565
 L 464.807,-19.0713 L 464.779,-19.0853 L 464.75,-19.099 L 464.722,-19.1126 L 464.694,-19.1258 L 464.666,-19.1389
 L 464.636,-19.1523 L 464.607,-19.165 L 464.58,-19.177 L 464.551,-19.1892 L 464.521,-19.2015 L 464.492,-19.2133
 L 464.463,-19.2247 L 464.434,-19.2361 L 464.405,-19.2471 L 464.375,-19.2579 L 464.345,-19.2689 L 464.315,-19.2793
 L 464.285,-19.2895 L 464.255,-19.2995 L 464.226,-19.309 L 464.196,-19.3184 L 464.166,-19.3277 L 464.136,-19.3367
 L 464.106,-19.3454 L 464.076,-19.3539 L 464.046,-19.3622 L 464.015,-19.3703 L 463.984,-19.3783 L 463.954,-19.3858
 L 463.924,-19.3931 L 463.893,-19.4002 L 463.862,-19.4071 L 463.831,-19.4137 L 463.801,-19.4199 L 463.77,-19.4261
 L 463.739,-19.432 L 463.708,-19.4376 L 463.677,-19.4431 L 463.646,-19.4482 L 463.615,-19.4532 L 463.584,-19.4578
 L 463.553,-19.4623 L 463.522,-19.4664 L 463.491,-19.4704 L 463.46,-19.474 L 463.428,-19.4775 L 463.397,-19.4807
 L 463.365,-19.4837 L 463.334,-19.4864 L 463.304,-19.4888 L 463.272,-19.491 L 463.24,-19.493 L 463.209,-19.4948
 L 463.178,-19.4962 L 463.146,-19.4975 L 463.114,-19.4985 L 463.083,-19.4992 L 463.053,-19.4997 L 463.022,-19.4999
 L 463.005,-19.5 L 462.984,-19.5 L 1.97849,-16.8749 L 1.94708,-16.8747 L 1.91699,-16.8742 L 1.88557,-16.8735
 L 1.8535,-16.8725 L 1.82211,-16.8712 L 1.79105,-16.8698 L 1.75967,-16.868 L 1.72755,-16.866 L 1.69623,-16.8638
 L 1.66614,-16.8614 L 1.63484,-16.8587 L 1.60291,-16.8557 L 1.57164,-16.8525 L 1.54039,-16.849 L 1.5092,-16.8454
 L 1.47824,-16.8414 L 1.4471,-16.8373 L 1.41595,-16.8328 L 1.38489,-16.8282 L 1.35382,-16.8232 L 1.32283,-16.8181
 L 1.29167,-16.8126 L 1.26077,-16.807 L 1.22971,-16.8011 L 1.1989,-16.7949 L 1.16887,-16.7887 L 1.13815,-16.7821
 L 1.1071,-16.7752 L 1.07649,-16.7681 L 1.04625,-16.7608 L 1.01576,-16.7533 L 0.984726,-16.7453 L 0.954361,-16.7372
 L 0.924118,-16.7289 L 0.89389,-16.7204 L 0.864044,-16.7117 L 0.833939,-16.7027 L 0.803696,-16.6934 L 0.773743,-16.684
 L 0.744522,-16.6745 L 0.714722,-16.6645 L 0.684799,-16.6543 L 0.655151,-16.6439 L 0.624771,-16.6329 L 0.595306,-16.6221
 L 0.566269,-16.6111 L 0.536972,-16.5997 L 0.508133,-16.5883 L 0.479004,-16.5765 L 0.449326,-16.5642 L 0.42041,-16.552
 L 0.392776,-16.54 L 0.364029,-16.5273 L 0.334366,-16.5139 L 0.305847,-16.5008 L 0.277908,-16.4876 L 0.249588,-16.474
 L 0.221497,-16.4603 L 0.19339,-16.4463 L 0.164368,-16.4315 L 0.13649,-16.417 L 0.10997,-16.4029 L 0.0823212,-16.388
 L 0.0541229,-16.3725 L 0.0267181,-16.3572 L -7.62939e-05,-16.3419 L -0.0272522,-16.3261 L -0.055069,-16.3097 L -0.0819702,-16.2935
 L -0.108658,-16.2771 L -0.135315,-16.2605 L -0.161484,-16.2439 L -0.187881,-16.2268 L -0.213547,-16.2099 L -0.23967,-16.1925
 L -0.266403,-16.1743 L -0.292252,-16.1565 L -0.317841,-16.1385 L -0.343399,-16.1202 L -0.368713,-16.1018 L -0.393982,-16.0832
 L -0.419464,-16.064 L -0.444427,-16.045 L -0.469131,-16.0258 L -0.493805,-16.0064 L -0.518066,-15.9869 L -0.542435,-15.9671
 L -0.566879,-15.9469 L -0.590927,-15.9267 L -0.614487,-15.9065 L -0.638214,-15.886 L -0.661987,-15.865 L -0.685394,-15.844
 L -0.70874,-15.8228 L -0.731796,-15.8015 L -0.754379,-15.7803 L -0.777115,-15.7586 L -0.800293,-15.7361 L -0.822678,-15.7141
 L -0.84404,-15.6927 L -0.866089,-15.6703 L -0.888565,-15.6471 L -0.910248,-15.6244 L -0.931442,-15.6018 L -0.952759,-15.5788
 L -0.974014,-15.5554 L -0.99498,-15.532 L -1.01595,-15.5082 L -1.03653,-15.4845 L -1.05664,-15.4609 L -1.07686,-15.4369
 L -1.09708,-15.4124 L -1.11691,-15.3881 L -1.13635,-15.3638 L -1.15581,-15.3391 L -1.17497,-15.3144 L -1.19403,-15.2895
 L -1.21317,-15.264 L -1.23183,-15.2387 L -1.25021,-15.2134 L -1.26848,-15.1879 L -1.28647,-15.1623 L -1.30434,-15.1364
 L -1.32249,-15.1097 L -1.33994,-15.0836 L -1.3568,-15.0579 L -1.37384,-15.0315 L -1.39044,-15.0053 L -1.40707,-14.9787
 L -1.42345,-14.952 L -1.43965,-14.9251 L -1.4561,-14.8973 L -1.47188,-14.8701 L -1.48717,-14.8433 L -1.50252,-14.8159
 L -1.51801,-14.7877 L -1.53291,-14.76 L -1.54695,-14.7335 L -1.56145,-14.7056 L -1.57625,-14.6766 L -1.59029,-14.6485
 L -1.60403,-14.6204 L -1.61763,-14.5921 L -1.63078,-14.5642 L -1.64394,-14.5356 L -1.65733,-14.506 L -1.67003,-14.4772
 L -1.68198,-14.4496 L -1.69423,-14.4207 L -1.70653,-14.391 L -1.71832,-14.3619 L -1.72974,-14.333 L -1.74107,-14.3037
 L -1.75206,-14.2747 L -1.76294,-14.2452 L -1.77388,-14.2149 L -1.78429,-14.1852 L -1.79453,-14.1553 L -1.80446,-14.1255
 L -1.81395,-14.0963 L -1.82343,-14.0663 L -1.83272,-14.0361 L -1.84172,-14.006 L -1.8504,-13.9761 L -1.85893,-13.9459
 L -1.86722,-13.9156 L -1.87527,-13.8853 L -1.88324,-13.8542 L -1.89081,-13.8238 L -1.89806,-13.7935 L -1.90515,-13.7629
 L -1.91209,-13.7319 L -1.9187,-13.7011 L -1.92493,-13.6711 L -1.93106,-13.6403 L -1.93698,-13.6092 L -1.94263,-13.5783
 L -1.94807,-13.5472 L -1.95323,-13.5162 L -1.95815,-13.4851 L -1.96281,-13.4541 L -1.96725,-13.4229 L -1.97144,-13.3918
 L -1.97534,-13.3608 L -1.97903,-13.3296 L -1.98248,-13.2984 L -1.98569,-13.2671 L -1.98871,-13.2352 L -1.99141,-13.2039
 L -1.99377,-13.1738 L -1.996,-13.1425 L -1.99802,-13.1103 L -1.99974,-13.079 L -2.00121,-13.0479 L -2.00244,-13.0165
 L -2.00345,-12.9844 L -2.00418,-12.953 L -2.00467,-12.9229 L -2.00493,-12.8915 L -2.00499,-12.875 L -2.00499,12.875
 L -2.00493,12.8915 L -2.00467,12.9229 L -2.00418,12.953 L -2.00345,12.9844 L -2.00244,13.0165 L -2.00121,13.0479
 L -1.99974,13.079 L -1.99802,13.1103 L -1.996,13.1425 L -1.99377,13.1738 L -1.99141,13.2039 L -1.98871,13.2352
 L -1.98569,13.2671 L -1.98248,13.2984 L -1.97903,13.3296 L -1.97534,13.3608 L -1.97144,13.3918 L -1.96725,13.4229
 L -1.96281,13.4541 L -1.95815,13.4851 L -1.95323,13.5162 L -1.94807,13.5472 L -1.94263,13.5783 L -1.93698,13.6092
 L -1.93106,13.6403 L -1.92493,13.6711 L -1.9187,13.7011 L -1.91209,13.7319 L -1.90515,13.7629 L -1.89806,13.7935
 L -1.89081,13.8238 L -1.88324,13.8542 L -1.87527,13.8853 L -1.86722,13.9156 L -1.85893,13.9459 L -1.8504,13.9761
 L -1.84172,14.006 L -1.83272,14.0361 L -1.82343,14.0663 L -1.81395,14.0963 L -1.80446,14.1255 L -1.79453,14.1553
 L -1.78429,14.1852 L -1.77388,14.2149 L -1.76294,14.2452 L -1.75206,14.2747 L -1.74107,14.3037 L -1.72974,14.333
 L -1.71832,14.3619 L -1.70653,14.391 L -1.69423,14.4207 L -1.68198,14.4496 L -1.67003,14.4772 L -1.65733,14.506
 L -1.64394,14.5356 L -1.63078,14.5642 L -1.61763,14.5921 L -1.60403,14.6204 L -1.59029,14.6485 L -1.57625,14.6766
 L -1.56145,14.7056 L -1.54695,14.7335 L -1.53291,14.76 L -1.51801,14.7877 L -1.50252,14.8159 L -1.48717,14.8433
 L -1.47188,14.8701 L -1.4561,14.8973 L -1.43965,14.9251 L -1.42345,14.952 L -1.40707,14.9787 L -1.39044,15.0053
 L -1.37384,15.0315 L -1.3568,15.0579 L -1.33994,15.0836 L -1.32249,15.1097 L -1.30434,15.1364 L -1.28647,15.1623
 L -1.26848,15.1879 L -1.25021,15.2134 L -1.23183,15.2387 L -1.21317,15.264 L -1.19403,15.2895 L -1.17497,15.3144
 L -1.15581,15.3391 L -1.13635,15.3638 L -1.11691,15.3881 L -1.09708,15.4124 L -1.07686,15.4369 L -1.05664,15.4609
 L -1.03653,15.4845 L -1.01595,15.5082 L -0.99498,15.532 L -0.974014,15.5554 L -0.952759,15.5788 L -0.931442,15.6018
 L -0.910248,15.6244 L -0.888565,15.6471 L -0.866089,15.6703 L -0.84404,15.6927 L -0.822678,15.7141 L -0.800293,15.7361
 L -0.777115,15.7586 L -0.754379,15.7803 L -0.731796,15.8015 L -0.70874,15.8228 L -0.685394,15.844 L -0.661987,15.865
 L -0.638214,15.886 L -0.614487,15.9065 L -0.590927,15.9267 L -0.566879,15.9469 L -0.542435,15.9671 L -0.518066,15.9869
 L -0.493805,16.0064 L -0.469131,16.0258 L -0.444427,16.045 L -0.419464,16.064 L -0.393982,16.0832 L -0.368713,16.1018
 L -0.343399,16.1202 L -0.317841,16.1385 L -0.292252,16.1565 L -0.266403,16.1743 L -0.23967,16.1925 L -0.213547,16.2099
 L -0.187881,16.2268 L -0.161484,16.2439 L -0.135315,16.2605 L -0.108658,16.2771 L -0.0819702,16.2935 L -0.055069,16.3097
 L -0.0272522,16.3261 L -7.62939e-05,16.3419 L 0.0267181,16.3572 L 0.0541229,16.3725 L 0.0823212,16.388 L 0.10997,16.4029
 L 0.13649,16.417 L 0.164368,16.4315 L 0.19339,16.4463 L 0.221497,16.4603 L 0.249588,16.474 L 0.277908,16.4876
 L 0.305847,16.5008 L 0.334366,16.5139 L 0.364029,16.5273 L 0.392776,16.54 L 0.42041,16.552 L 0.449326,16.5642
 L 0.479004,16.5765 L 0.508133,16.5883 L 0.536972,16.5997 L 0.566269,16.6111 L 0.595306,16.6221 L 0.624771,16.6329
 L 0.655151,16.6439 L 0.684799,16.6543 L 0.714722,16.6645 L 0.744522,16.6745 L 0.773743,16.684 L 0.803696,16.6934
 L 0.833939,16.7027 L 0.864044,16.7117 L 0.89389,16.7204 L 0.924118,16.7289 L 0.954361,16.7372 L 0.984726,16.7453
 L 1.01576,16.7533 L 1.04625,16.7608 L 1.07649,16.7681 L 1.1071,16.7752 L 1.13815,16.7821 L 1.16887,16.7887
 L 1.1989,16.7949 L 1.22971,16.8011 L 1.26077,16.807 L 1.29167,16.8126 L 1.32283,16.8181 L 1.35382,16.8232
 L 1.38489,16.8282 L 1.41595,16.8328 L 1.4471,16.8373 L 1.47824,16.8414 L 1.5092,16.8454 L 1.54039,16.849
 L 1.57164,16.8525 L 1.60291,16.8557 L 1.63484,16.8587 L 1.66614,16.8614 L 1.69623,16.8638 L 1.72755,16.866
 L 1.75967,16.868 L 1.79105,16.8698 L 1.82211,16.8712 L 1.8535,16.8725 L 1.88557,16.8735 L 1.91699,16.8742
 L 1.94708,16.8747 L 1.98363,16.875 L 462.984,19.5 L 463.005,19.5 z
M 462.995,17.5 L 456.783,17.4646 L 456.783,-17.4646 L 462.995,-17.5 L 463.005,-17.5 L 463.036,-17.4997
 L 463.068,-17.499 L 463.099,-17.4978 L 463.131,-17.496 L 463.162,-17.4938 L 463.193,-17.4911 L 463.224,-17.4879
 L 463.256,-17.4842 L 463.287,-17.48 L 463.318,-17.4754 L 463.349,-17.4702 L 463.38,-17.4646 L 463.411,-17.4584
 L 463.441,-17.4518 L 463.472,-17.4447 L 463.502,-17.4372 L 463.533,-17.4291 L 463.563,-17.4206 L 463.593,-17.4116
 L 463.623,-17.4021 L 463.653,-17.3922 L 463.682,-17.3818 L 463.712,-17.3709 L 463.741,-17.3595 L 463.77,-17.3477
 L 463.799,-17.3355 L 463.828,-17.3228 L 463.857,-17.3096 L 463.885,-17.2961 L 463.913,-17.282 L 463.941,-17.2675
 L 463.968,-17.2526 L 463.996,-17.2373 L 464.023,-17.2215 L 464.05,-17.2053 L 464.077,-17.1886 L 464.103,-17.1716
 L 464.129,-17.1542 L 464.155,-17.1363 L 464.181,-17.118 L 464.206,-17.0994 L 464.231,-17.0803 L 464.255,-17.0609
 L 464.28,-17.041 L 464.304,-17.0208 L 464.328,-17.0002 L 464.351,-16.9792 L 464.374,-16.9579 L 464.397,-16.9362
 L 464.419,-16.9142 L 464.441,-16.8918 L 464.463,-16.8691 L 464.484,-16.846 L 464.505,-16.8226 L 464.526,-16.7989
 L 464.546,-16.7748 L 464.566,-16.7505 L 464.585,-16.7258 L 464.604,-16.7008 L 464.623,-16.6756 L 464.641,-16.65
 L 464.659,-16.6242 L 464.677,-16.598 L 464.694,-16.5716 L 464.71,-16.545 L 464.726,-16.5181 L 464.742,-16.4909
 L 464.758,-16.4635 L 464.773,-16.4359 L 464.787,-16.408 L 464.801,-16.3799 L 464.815,-16.3515 L 464.828,-16.323
 L 464.84,-16.2943 L 464.853,-16.2654 L 464.865,-16.2362 L 464.876,-16.2069 L 464.887,-16.1775 L 464.897,-16.1478
 L 464.907,-16.118 L 464.917,-16.0881 L 464.926,-16.058 L 464.934,-16.0277 L 464.942,-15.9974 L 464.95,-15.9669
 L 464.957,-15.9363 L 464.963,-15.9056 L 464.97,-15.8748 L 464.975,-15.8439 L 464.98,-15.8129 L 464.985,-15.7818
 L 464.989,-15.7507 L 464.993,-15.7195 L 464.996,-15.6882 L 464.999,-15.6569 L 465.001,-15.6256 L 465.003,-15.5942
 L 465.004,-15.5628 L 465.005,-15.5314 L 465.005,-15.5 L 465.005,15.5 L 465.005,15.5314 L 465.004,15.5628
 L 465.003,15.5942 L 465.001,15.6256 L 464.999,15.6569 L 464.996,15.6882 L 464.993,15.7195 L 464.989,15.7507
 L 464.985,15.7818 L 464.98,15.8129 L 464.975,15.8439 L 464.97,15.8748 L 464.963,15.9056 L 464.957,15.9363
 L 464.95,15.9669 L 464.942,15.9974 L 464.934,16.0277 L 464.926,16.058 L 464.917,16.0881 L 464.907,16.118
 L 464.897,16.1478 L 464.887,16.1775 L 464.876,16.2069 L 464.865,16.2362 L 464.853,16.2654 L 464.84,16.2943
 L 464.828,16.323 L 464.815,16.3515 L 464.801,16.3799 L 464.787,16.408 L 464.773,16.4359 L 464.758,16.4635
 L 464.742,16.4909 L 464.726,16.5181 L 464.71,16.545 L 464.694,16.5716 L 464.677,16.598 L 464.659,16.6242
 L 464.641,16.65 L 464.623,16.6756 L 464.604,16.7008 L 464.585,16.7258 L 464.566,16.7505 L 464.546,16.7748
 L 464.526,16.7989 L 464.505,16.8226 L 464.484,16.846 L 464.463,16.8691 L 464.441,16.8918 L 464.419,16.9142
 L 464.397,16.9362 L 464.374,16.9579 L 464.351,16.9792 L 464.328,17.0002 L 464.304,17.0208 L 464.28,17.041
 L 464.255,17.0609 L 464.231,17.0803 L 464.206,17.0994 L 464.181,17.118 L 464.155,17.1363 L 464.129,17.1542
 L 464.103,17.1716 L 464.077,17.1886 L 464.05,17.2053 L 464.023,17.2215 L 463.996,17.2373 L 463.968,17.2526
 L 463.941,17.2675 L 463.913,17.282 L 463.885,17.2961 L 463.857,17.3096 L 463.828,17.3228 L 463.799,17.3355
 L 463.77,17.3477 L 463.741,17.3595 L 463.712,17.3709 L 463.682,17.3818 L 463.653,17.3922 L 463.623,17.4021
 L 463.593,17.4116 L 463.563,17.4206 L 463.533,17.4291 L 463.502,17.4372 L 463.472,17.4447 L 463.441,17.4518
 L 463.411,17.4584 L 463.38,17.4646 L 463.349,17.4702 L 463.318,17.4754 L 463.287,17.48 L 463.256,17.4842
 L 463.224,17.4879 L 463.193,17.4911 L 463.162,17.4938 L 463.131,17.496 L 463.099,17.4978 L 463.068,17.499
 L 463.036,17.4997 L 463.005,17.5 z
M 460.737,-1.70555 L 462.157,-0.82309 L 461.041,-2.06776 L 462.696,-2.30418 L 461.041,-2.5406 L 462.157,-3.78528
 L 460.737,-2.90282 L 460.792,-4.57336 L 460.272,-2.98494 L 459.24,-4.29967 L 459.862,-2.7485 L 458.226,-3.09225
 L 459.7,-2.30418 L 458.226,-1.51611 L 459.862,-1.85986 L 459.24,-0.308701 L 460.272,-1.62343 L 460.792,-0.0350037
 z
M 460.737,2.90282 L 462.157,3.78528 L 461.041,2.5406 L 462.696,2.30418 L 461.041,2.06776 L 462.157,0.82309
 L 460.737,1.70555 L 460.792,0.0350037 L 460.272,1.62343 L 459.24,0.308701 L 459.862,1.85986 L 458.226,1.51611
 L 459.7,2.30418 L 458.226,3.09225 L 459.862,2.7485 L 459.24,4.29967 L 460.272,2.98494 L 460.792,4.57336
 z
M 447.018,17.409 L 447.018,-17.409 L 454.783,-17.4532 L 454.783,17.4532 z
M 436.673,17.3501 L 436.673,-17.3501 L 445.018,-17.3976 L 445.018,17.3976 z
M 425.712,17.2877 L 425.712,-17.2877 L 434.673,-17.3387 L 434.673,17.3387 z
M 430.604,0.711914 L 432.292,1.76134 L 430.965,0.281143 L 432.933,-0 L 430.965,-0.281143 L 432.292,-1.76134
 L 430.604,-0.711914 L 430.668,-2.69853 L 430.05,-0.809555 L 428.822,-2.37305 L 429.563,-0.528397 L 427.618,-0.93718
 L 429.371,-0 L 427.618,0.93718 L 429.563,0.528397 L 428.822,2.37305 L 430.05,0.809555 L 430.668,2.69853
 z
M 414.1,17.2216 L 414.1,-17.2216 L 423.712,-17.2763 L 423.712,17.2763 z
M 401.797,17.1515 L 401.797,-17.1515 L 412.1,-17.2102 L 412.1,17.2102 z
M 407.41,0.799088 L 409.304,1.97704 L 407.815,0.315582 L 410.024,-0 L 407.815,-0.315582 L 409.304,-1.97704
 L 407.41,-0.799088 L 407.482,-3.02899 L 406.788,-0.908691 L 405.41,-2.66365 L 406.242,-0.593109 L 404.058,-1.05196
 L 406.026,-0 L 404.058,1.05196 L 406.242,0.593109 L 405.41,2.66365 L 406.788,0.908691 L 407.482,3.02899
 z
M 388.762,17.0773 L 388.762,-17.0773 L 399.797,-17.1401 L 399.797,17.1401 z
M 374.953,16.9987 L 374.953,-16.9987 L 386.762,-17.0659 L 386.762,17.0659 z
M 381.375,0.896957 L 383.502,2.21915 L 381.831,0.354233 L 384.31,-0 L 381.831,-0.354233 L 383.502,-2.21915
 L 381.375,-0.896957 L 381.457,-3.39993 L 380.678,-1.01997 L 379.131,-2.98985 L 380.064,-0.665741 L 377.613,-1.18079
 L 379.822,-0 L 377.613,1.18079 L 380.064,0.665741 L 379.131,2.98985 L 380.678,1.01997 L 381.457,3.39993
 z
M 360.322,16.9154 L 360.322,-16.9154 L 372.953,-16.9873 L 372.953,16.9873 z
M 344.821,16.8271 L 344.821,-16.8271 L 358.322,-16.904 L 358.322,16.904 z
M 352.153,1.00679 L 354.54,2.49091 L 352.664,0.397614 L 355.447,-0 L 352.664,-0.397614 L 354.54,-2.49091
 L 352.153,-1.00679 L 352.245,-3.8163 L 351.37,-1.14488 L 349.634,-3.356 L 350.681,-0.747269 L 347.93,-1.32538
 L 350.409,-0 L 347.93,1.32538 L 350.681,0.747269 L 349.634,3.356 L 351.37,1.14488 L 352.245,3.8163
 z
M 328.399,16.7336 L 328.399,-16.7336 L 342.821,-16.8157 L 342.821,16.8157 z
M 311,16.6345 L 311,-16.6345 L 326.399,-16.7222 L 326.399,16.7222 z
M 292.566,16.5296 L 292.566,-16.5296 L 309,-16.6231 L 309,16.6231 z
M 301.474,-8.01949 L 304.313,-6.25456 L 302.082,-8.74393 L 305.392,-9.21677 L 302.082,-9.68961 L 304.313,-12.179
 L 301.474,-10.414 L 301.583,-13.7551 L 300.543,-10.5783 L 298.479,-13.2077 L 299.724,-10.1054 L 296.453,-10.7929
 L 299.401,-9.21677 L 296.453,-7.64061 L 299.724,-8.32811 L 298.479,-5.22578 L 300.543,-7.85526 L 301.583,-4.67839
 z
M 301.474,1.19728 L 304.313,2.9622 L 302.082,0.472839 L 305.392,-0 L 302.082,-0.472839 L 304.313,-2.9622
 L 301.474,-1.19728 L 301.583,-4.53838 L 300.543,-1.36151 L 298.479,-3.99098 L 299.724,-0.888657 L 296.453,-1.57616
 L 299.401,-0 L 296.453,1.57616 L 299.724,0.888657 L 298.479,3.99098 L 300.543,1.36151 L 301.583,4.53838
 z
M 301.474,10.414 L 304.313,12.179 L 302.082,9.68961 L 305.392,9.21677 L 302.082,8.74393 L 304.313,6.25456
 L 301.474,8.01949 L 301.583,4.67839 L 300.543,7.85526 L 298.479,5.22578 L 299.724,8.32811 L 296.453,7.64061
 L 299.401,9.21677 L 296.453,10.7929 L 299.724,10.1054 L 298.479,13.2077 L 300.543,10.5783 L 301.583,13.7551
 z
M 273.037,16.4184 L 273.037,-16.4184 L 290.566,-16.5182 L 290.566,16.5182 z
M 252.346,16.3005 L 252.346,-16.3005 L 271.037,-16.407 L 271.037,16.407 z
M 230.424,16.1757 L 230.424,-16.1757 L 250.346,-16.2891 L 250.346,16.2891 z
M 241.207,-4.05649 L 244.583,-1.95764 L 241.93,-4.91801 L 245.865,-5.48032 L 241.93,-6.04262 L 244.583,-9.00299
 L 241.207,-6.90414 L 241.337,-10.8774 L 240.1,-7.09943 L 237.645,-10.2264 L 239.126,-6.53711 L 235.235,-7.35469
 L 238.741,-5.48032 L 235.235,-3.60594 L 239.126,-4.42352 L 237.645,-0.734222 L 240.1,-3.86121 L 241.337,-0.083252
 z
M 241.207,6.90414 L 244.583,9.00299 L 241.93,6.04262 L 245.865,5.48032 L 241.93,4.91801 L 244.583,1.95764
 L 241.207,4.05649 L 241.337,0.083252 L 240.1,3.86121 L 237.645,0.734222 L 239.126,4.42352 L 235.235,3.60594
 L 238.741,5.48032 L 235.235,7.35469 L 239.126,6.53711 L 237.645,10.2264 L 240.1,7.09943 L 241.337,10.8774
 z
M 207.2,16.0435 L 207.2,-16.0435 L 228.424,-16.1643 L 228.424,16.1643 z
M 182.594,15.9034 L 182.594,-15.9034 L 205.2,-16.0321 L 205.2,16.0321 z
M 194.819,1.59819 L 198.609,3.95407 L 195.631,0.631165 L 200.048,-0 L 195.631,-0.631165 L 198.609,-3.95407
 L 194.819,-1.59819 L 194.965,-6.058 L 193.576,-1.8174 L 190.821,-5.32732 L 192.483,-1.18622 L 188.116,-2.10391
 L 192.051,-0 L 188.116,2.10391 L 192.483,1.18622 L 190.821,5.32732 L 193.576,1.8174 L 194.965,6.058
 z
M 156.525,15.7549 L 156.525,-15.7549 L 180.594,-15.892 L 180.594,15.892 z
M 128.906,15.5976 L 128.906,-15.5976 L 154.525,-15.7435 L 154.525,15.7435 z
M 142.751,1.79391 L 147.005,4.43831 L 143.662,0.708466 L 148.62,-0 L 143.662,-0.708466 L 147.005,-4.43831
 L 142.751,-1.79391 L 142.914,-6.79988 L 141.356,-2.03996 L 138.263,-5.97971 L 140.128,-1.33148 L 135.227,-2.36157
 L 139.644,-0 L 135.227,2.36157 L 140.128,1.33148 L 138.263,5.97971 L 141.356,2.03996 L 142.914,6.79988
 z
M 99.6442,15.431 L 99.6442,-15.431 L 126.906,-15.5863 L 126.906,15.5863 z
M 68.6428,15.2545 L 68.6428,-15.2545 L 97.6442,-15.4196 L 97.6442,15.4196 z
M 84.306,2.0136 L 89.0806,4.98183 L 85.3284,0.795227 L 90.8938,-0 L 85.3284,-0.795227 L 89.0806,-4.98183
 L 84.306,-2.0136 L 84.4893,-7.6326 L 82.7397,-2.28978 L 79.2683,-6.71201 L 81.3624,-1.49454 L 75.8605,-2.65077
 L 80.8184,-0 L 75.8605,2.65077 L 81.3624,1.49454 L 79.2683,6.71201 L 82.7397,2.28978 L 84.4893,7.6326
 z
M 35.7979,15.0675 L 35.7979,-15.0675 L 66.6428,-15.2431 L 66.6428,15.2431 z
M 1.99501,14.875 L 1.96361,14.8747 L 1.93219,14.874 L 1.9008,14.8728 L 1.86943,14.871 L 1.8381,14.8688
 L 1.80681,14.8661 L 1.77554,14.8629 L 1.74435,14.8592 L 1.71321,14.855 L 1.68214,14.8504 L 1.65115,14.8452
 L 1.62025,14.8396 L 1.58945,14.8334 L 1.55873,14.8268 L 1.52812,14.8197 L 1.49763,14.8122 L 1.46727,14.8041
 L 1.43704,14.7956 L 1.40694,14.7866 L 1.37698,14.7771 L 1.34718,14.7672 L 1.31754,14.7568 L 1.28807,14.7459
 L 1.25877,14.7345 L 1.22964,14.7227 L 1.20073,14.7105 L 1.17198,14.6978 L 1.14346,14.6846 L 1.11514,14.6711
 L 1.08704,14.657 L 1.05916,14.6425 L 1.03151,14.6276 L 1.0041,14.6123 L 0.976929,14.5965 L 0.950027,14.5803
 L 0.92337,14.5636 L 0.896973,14.5466 L 0.87085,14.5292 L 0.845001,14.5113 L 0.819443,14.493 L 0.794174,14.4744
 L 0.769211,14.4553 L 0.744537,14.4359 L 0.720169,14.416 L 0.696121,14.3958 L 0.672394,14.3752 L 0.648987,14.3542
 L 0.625931,14.3329 L 0.603195,14.3112 L 0.580811,14.2892 L 0.558762,14.2668 L 0.537079,14.2441 L 0.515762,14.221
 L 0.494797,14.1976 L 0.474213,14.1739 L 0.453995,14.1498 L 0.434158,14.1255 L 0.414703,14.1008 L 0.395645,14.0758
 L 0.376984,14.0506 L 0.358719,14.025 L 0.340851,13.9992 L 0.32341,13.973 L 0.306366,13.9466 L 0.289734,13.92
 L 0.273529,13.8931 L 0.257751,13.8659 L 0.242401,13.8385 L 0.227493,13.8109 L 0.212997,13.783 L 0.198959,13.7549
 L 0.185364,13.7265 L 0.172211,13.698 L 0.159515,13.6693 L 0.147263,13.6404 L 0.135468,13.6112 L 0.12413,13.5819
 L 0.113251,13.5525 L 0.102844,13.5228 L 0.0929108,13.493 L 0.0834351,13.4631 L 0.0744324,13.433 L 0.0659027,13.4027
 L 0.0578461,13.3724 L 0.0502777,13.3419 L 0.0431824,13.3113 L 0.0365753,13.2806 L 0.0304413,13.2498 L 0.0247955,13.2189
 L 0.0196381,13.1879 L 0.0149689,13.1568 L 0.010788,13.1257 L 0.00709534,13.0945 L 0.00389099,13.0632 L 0.00119019,13.0319
 L -0.0010376,13.0006 L -0.00276184,12.9692 L -0.0039978,12.9378 L -0.00473022,12.9064 L -0.00498962,12.875 L -0.00498962,-12.875
 L -0.00473022,-12.9064 L -0.0039978,-12.9378 L -0.00276184,-12.9692 L -0.0010376,-13.0006 L 0.00119019,-13.0319 L 0.00389099,-13.0632
 L 0.00709534,-13.0945 L 0.010788,-13.1257 L 0.0149689,-13.1568 L 0.0196381,-13.1879 L 0.0247955,-13.2189 L 0.0304413,-13.2498
 L 0.0365753,-13.2806 L 0.0431824,-13.3113 L 0.0502777,-13.3419 L 0.0578461,-13.3724 L 0.0659027,-13.4027 L 0.0744324,-13.433
 L 0.0834351,-13.4631 L 0.0929108,-13.493 L 0.102844,-13.5228 L 0.113251,-13.5525 L 0.12413,-13.5819 L 0.135468,-13.6112
 L 0.147263,-13.6404 L 0.159515,-13.6693 L 0.172211,-13.698 L 0.185364,-13.7265 L 0.198959,-13.7549 L 0.212997,-13.783
 L 0.227493,-13.8109 L 0.242401,-13.8385 L 0.257751,-13.8659 L 0.273529,-13.8931 L 0.289734,-13.92 L 0.306366,-13.9466
 L 0.32341,-13.973 L 0.340851,-13.9992 L 0.358719,-14.025 L 0.376984,-14.0506 L 0.395645,-14.0758 L 0.414703,-14.1008
 L 0.434158,-14.1255 L 0.453995,-14.1498 L 0.474213,-14.1739 L 0.494797,-14.1976 L 0.515762,-14.221 L 0.537079,-14.2441
 L 0.558762,-14.2668 L 0.580811,-14.2892 L 0.603195,-14.3112 L 0.625931,-14.3329 L 0.648987,-14.3542 L 0.672394,-14.3752
 L 0.696121,-14.3958 L 0.720169,-14.416 L 0.744537,-14.4359 L 0.769211,-14.4553 L 0.794174,-14.4744 L 0.819443,-14.493
 L 0.845001,-14.5113 L 0.87085,-14.5292 L 0.896973,-14.5466 L 0.92337,-14.5636 L 0.950027,-14.5803 L 0.976929,-14.5965
 L 1.0041,-14.6123 L 1.03151,-14.6276 L 1.05916,-14.6425 L 1.08704,-14.657 L 1.11514,-14.6711 L 1.14346,-14.6846
 L 1.17198,-14.6978 L 1.20073,-14.7105 L 1.22964,-14.7227 L 1.25877,-14.7345 L 1.28807,-14.7459 L 1.31754,-14.7568
 L 1.34718,-14.7672 L 1.37698,-14.7771 L 1.40694,-14.7866 L 1.43704,-14.7956 L 1.46727,-14.8041 L 1.49763,-14.8122
 L 1.52812,-14.8197 L 1.55873,-14.8268 L 1.58945,-14.8334 L 1.62025,-14.8396 L 1.65115,-14.8452 L 1.68214,-14.8504
 L 1.71321,-14.855 L 1.74435,-14.8592 L 1.77554,-14.8629 L 1.80681,-14.8661 L 1.8381,-14.8688 L 1.86943,-14.871
 L 1.9008,-14.8728 L 1.93219,-14.874 L 1.96361,-14.8747 L 1.99501,-14.875 L 33.7979,-15.0561 L 33.7979,15.0561
 z
" stroke="black" fill="lightgray" stroke-width="0.5"/>
</svg>
