  0
SECTION
  2
BLOCKS
  0
ENDSEC
  0
SECTION
  2
ENTITIES
  0
LINE
  8
0
 10
463.022
 20
-19.4999
 11
463.053
 21
-19.4997
  0
LINE
  8
0
 10
463.053
 20
-19.4997
 11
463.083
 21
-19.4992
  0
LINE
  8
0
 10
463.083
 20
-19.4992
 11
463.114
 21
-19.4985
  0
LINE
  8
0
 10
463.114
 20
-19.4985
 11
463.146
 21
-19.4975
  0
LINE
  8
0
 10
463.146
 20
-19.4975
 11
463.178
 21
-19.4962
  0
LINE
  8
0
 10
463.178
 20
-19.4962
 11
463.209
 21
-19.4948
  0
LINE
  8
0
 10
463.209
 20
-19.4948
 11
463.24
 21
-19.493
  0
LINE
  8
0
 10
463.24
 20
-19.493
 11
463.272
 21
-19.491
  0
LINE
  8
0
 10
463.272
 20
-19.491
 11
463.304
 21
-19.4888
  0
LINE
  8
0
 10
463.304
 20
-19.4888
 11
463.334
 21
-19.4864
  0
LINE
  8
0
 10
463.334
 20
-19.4864
 11
463.365
 21
-19.4837
  0
LINE
  8
0
 10
463.365
 20
-19.4837
 11
463.397
 21
-19.4807
  0
LINE
  8
0
 10
463.397
 20
-19.4807
 11
463.428
 21
-19.4775
  0
LINE
  8
0
 10
463.428
 20
-19.4775
 11
463.46
 21
-19.474
  0
LINE
  8
0
 10
463.46
 20
-19.474
 11
463.491
 21
-19.4704
  0
LINE
  8
0
 10
463.491
 20
-19.4704
 11
463.522
 21
-19.4664
  0
LINE
  8
0
 10
463.522
 20
-19.4664
 11
463.553
 21
-19.4623
  0
LINE
  8
0
 10
463.553
 20
-19.4623
 11
463.584
 21
-19.4578
  0
LINE
  8
0
 10
463.584
 20
-19.4578
 11
463.615
 21
-19.4532
  0
LINE
  8
0
 10
463.615
 20
-19.4532
 11
463.646
 21
-19.4482
  0
LINE
  8
0
 10
463.646
 20
-19.4482
 11
463.677
 21
-19.4431
  0
LINE
  8
0
 10
463.677
 20
-19.4431
 11
463.708
 21
-19.4376
  0
LINE
  8
0
 10
463.708
 20
-19.4376
 11
463.739
 21
-19.432
  0
LINE
  8
0
 10
463.739
 20
-19.432
 11
463.77
 21
-19.4261
  0
LINE
  8
0
 10
463.77
 20
-19.4261
 11
463.801
 21
-19.4199
  0
LINE
  8
0
 10
463.801
 20
-19.4199
 11
463.831
 21
-19.4137
  0
LINE
  8
0
 10
463.831
 20
-19.4137
 11
463.862
 21
-19.4071
  0
LINE
  8
0
 10
463.862
 20
-19.4071
 11
463.893
 21
-19.4002
  0
LINE
  8
0
 10
463.893
 20
-19.4002
 11
463.924
 21
-19.3931
  0
LINE
  8
0
 10
463.924
 20
-19.3931
 11
463.954
 21
-19.3858
  0
LINE
  8
0
 10
463.954
 20
-19.3858
 11
463.984
 21
-19.3783
  0
LINE
  8
0
 10
463.984
 20
-19.3783
 11
464.015
 21
-19.3703
  0
LINE
  8
0
 10
464.015
 20
-19.3703
 11
464.046
 21
-19.3622
  0
LINE
  8
0
 10
464.046
 20
-19.3622
 11
464.076
 21
-19.3539
  0
LINE
  8
0
 10
464.076
 20
-19.3539
 11
464.106
 21
-19.3454
  0
LINE
  8
0
 10
464.106
 20
-19.3454
 11
464.136
 21
-19.3367
  0
LINE
  8
0
 10
464.136
 20
-19.3367
 11
464.166
 21
-19.3277
  0
LINE
  8
0
 10
464.166
 20
-19.3277
 11
464.196
 21
-19.3184
  0
LINE
  8
0
 10
464.196
 20
-19.3184
 11
464.226
 21
-19.309
  0
LINE
  8
0
 10
464.226
 20
-19.309
 11
464.255
 21
-19.2995
  0
LINE
  8
0
 10
464.255
 20
-19.2995
 11
464.285
 21
-19.2895
  0
LINE
  8
0
 10
464.285
 20
-19.2895
 11
464.315
 21
-19.2793
  0
LINE
  8
0
 10
464.315
 20
-19.2793
 11
464.345
 21
-19.2689
  0
LINE
  8
0
 10
464.345
 20
-19.2689
 11
464.375
 21
-19.2579
  0
LINE
  8
0
 10
464.375
 20
-19.2579
 11
464.405
 21
-19.2471
  0
LINE
  8
0
 10
464.405
 20
-19.2471
 11
464.434
 21
-19.2361
  0
LINE
  8
0
 10
464.434
 20
-19.2361
 11
464.463
 21
-19.2247
  0
LINE
  8
0
 10
464.463
 20
-19.2247
 11
464.492
 21
-19.2133
  0
LINE
  8
0
 10
464.492
 20
-19.2133
 11
464.521
 21
-19.2015
  0
LINE
  8
0
 10
464.521
 20
-19.2015
 11
464.551
 21
-19.1892
  0
LINE
  8
0
 10
464.551
 20
-19.1892
 11
464.58
 21
-19.177
  0
LINE
  8
0
 10
464.58
 20
-19.177
 11
464.607
 21
-19.165
  0
LINE
  8
0
 10
464.607
 20
-19.165
 11
464.636
 21
-19.1523
  0
LINE
  8
0
 10
464.636
 20
-19.1523
 11
464.666
 21
-19.1389
  0
LINE
  8
0
 10
464.666
 20
-19.1389
 11
464.694
 21
-19.1258
  0
LINE
  8
0
 10
464.694
 20
-19.1258
 11
464.722
 21
-19.1126
  0
LINE
  8
0
 10
464.722
 20
-19.1126
 11
464.75
 21
-19.099
  0
LINE
  8
0
 10
464.75
 20
-19.099
 11
464.779
 21
-19.0853
  0
LINE
  8
0
 10
464.779
 20
-19.0853
 11
464.807
 21
-19.0713
  0
LINE
  8
0
 10
464.807
 20
-19.0713
 11
464.836
 21
-19.0565
  0
LINE
  8
0
 10
464.836
 20
-19.0565
 11
464.864
 21
-19.042
  0
LINE
  8
0
 10
464.864
 20
-19.042
 11
464.89
 21
-19.0279
  0
LINE
  8
0
 10
464.89
 20
-19.0279
 11
464.918
 21
-19.013
  0
LINE
  8
0
 10
464.918
 20
-19.013
 11
464.946
 21
-18.9975
  0
LINE
  8
0
 10
464.946
 20
-18.9975
 11
464.973
 21
-18.9822
  0
LINE
  8
0
 10
464.973
 20
-18.9822
 11
465
 21
-18.9669
  0
LINE
  8
0
 10
465
 20
-18.9669
 11
465.027
 21
-18.9511
  0
LINE
  8
0
 10
465.027
 20
-18.9511
 11
465.055
 21
-18.9347
  0
LINE
  8
0
 10
465.055
 20
-18.9347
 11
465.082
 21
-18.9185
  0
LINE
  8
0
 10
465.082
 20
-18.9185
 11
465.109
 21
-18.9021
  0
LINE
  8
0
 10
465.109
 20
-18.9021
 11
465.135
 21
-18.8855
  0
LINE
  8
0
 10
465.135
 20
-18.8855
 11
465.161
 21
-18.8689
  0
LINE
  8
0
 10
465.161
 20
-18.8689
 11
465.188
 21
-18.8518
  0
LINE
  8
0
 10
465.188
 20
-18.8518
 11
465.214
 21
-18.8349
  0
LINE
  8
0
 10
465.214
 20
-18.8349
 11
465.24
 21
-18.8175
  0
LINE
  8
0
 10
465.24
 20
-18.8175
 11
465.266
 21
-18.7993
  0
LINE
  8
0
 10
465.266
 20
-18.7993
 11
465.292
 21
-18.7815
  0
LINE
  8
0
 10
465.292
 20
-18.7815
 11
465.318
 21
-18.7635
  0
LINE
  8
0
 10
465.318
 20
-18.7635
 11
465.343
 21
-18.7452
  0
LINE
  8
0
 10
465.343
 20
-18.7452
 11
465.369
 21
-18.7268
  0
LINE
  8
0
 10
465.369
 20
-18.7268
 11
465.394
 21
-18.7082
  0
LINE
  8
0
 10
465.394
 20
-18.7082
 11
465.419
 21
-18.689
  0
LINE
  8
0
 10
465.419
 20
-18.689
 11
465.444
 21
-18.67
  0
LINE
  8
0
 10
465.444
 20
-18.67
 11
465.469
 21
-18.6508
  0
LINE
  8
0
 10
465.469
 20
-18.6508
 11
465.494
 21
-18.6314
  0
LINE
  8
0
 10
465.494
 20
-18.6314
 11
465.518
 21
-18.6119
  0
LINE
  8
0
 10
465.518
 20
-18.6119
 11
465.542
 21
-18.5921
  0
LINE
  8
0
 10
465.542
 20
-18.5921
 11
465.567
 21
-18.5719
  0
LINE
  8
0
 10
465.567
 20
-18.5719
 11
465.591
 21
-18.5517
  0
LINE
  8
0
 10
465.591
 20
-18.5517
 11
465.614
 21
-18.5315
  0
LINE
  8
0
 10
465.614
 20
-18.5315
 11
465.638
 21
-18.511
  0
LINE
  8
0
 10
465.638
 20
-18.511
 11
465.662
 21
-18.49
  0
LINE
  8
0
 10
465.662
 20
-18.49
 11
465.685
 21
-18.469
  0
LINE
  8
0
 10
465.685
 20
-18.469
 11
465.709
 21
-18.4478
  0
LINE
  8
0
 10
465.709
 20
-18.4478
 11
465.732
 21
-18.4265
  0
LINE
  8
0
 10
465.732
 20
-18.4265
 11
465.754
 21
-18.4053
  0
LINE
  8
0
 10
465.754
 20
-18.4053
 11
465.777
 21
-18.3836
  0
LINE
  8
0
 10
465.777
 20
-18.3836
 11
465.8
 21
-18.3611
  0
LINE
  8
0
 10
465.8
 20
-18.3611
 11
465.823
 21
-18.3391
  0
LINE
  8
0
 10
465.823
 20
-18.3391
 11
465.844
 21
-18.3177
  0
LINE
  8
0
 10
465.844
 20
-18.3177
 11
465.866
 21
-18.2953
  0
LINE
  8
0
 10
465.866
 20
-18.2953
 11
465.889
 21
-18.2721
  0
LINE
  8
0
 10
465.889
 20
-18.2721
 11
465.91
 21
-18.2494
  0
LINE
  8
0
 10
465.91
 20
-18.2494
 11
465.931
 21
-18.2268
  0
LINE
  8
0
 10
465.931
 20
-18.2268
 11
465.953
 21
-18.2038
  0
LINE
  8
0
 10
465.953
 20
-18.2038
 11
465.974
 21
-18.1804
  0
LINE
  8
0
 10
465.974
 20
-18.1804
 11
465.995
 21
-18.157
  0
LINE
  8
0
 10
465.995
 20
-18.157
 11
466.016
 21
-18.1332
  0
LINE
  8
0
 10
466.016
 20
-18.1332
 11
466.037
 21
-18.1095
  0
LINE
  8
0
 10
466.037
 20
-18.1095
 11
466.057
 21
-18.0859
  0
LINE
  8
0
 10
466.057
 20
-18.0859
 11
466.077
 21
-18.0619
  0
LINE
  8
0
 10
466.077
 20
-18.0619
 11
466.097
 21
-18.0374
  0
LINE
  8
0
 10
466.097
 20
-18.0374
 11
466.117
 21
-18.0131
  0
LINE
  8
0
 10
466.117
 20
-18.0131
 11
466.136
 21
-17.9888
  0
LINE
  8
0
 10
466.136
 20
-17.9888
 11
466.156
 21
-17.9641
  0
LINE
  8
0
 10
466.156
 20
-17.9641
 11
466.175
 21
-17.9394
  0
LINE
  8
0
 10
466.175
 20
-17.9394
 11
466.194
 21
-17.9145
  0
LINE
  8
0
 10
466.194
 20
-17.9145
 11
466.213
 21
-17.889
  0
LINE
  8
0
 10
466.213
 20
-17.889
 11
466.232
 21
-17.8637
  0
LINE
  8
0
 10
466.232
 20
-17.8637
 11
466.25
 21
-17.8384
  0
LINE
  8
0
 10
466.25
 20
-17.8384
 11
466.268
 21
-17.8129
  0
LINE
  8
0
 10
466.268
 20
-17.8129
 11
466.286
 21
-17.7873
  0
LINE
  8
0
 10
466.286
 20
-17.7873
 11
466.304
 21
-17.7614
  0
LINE
  8
0
 10
466.304
 20
-17.7614
 11
466.322
 21
-17.7347
  0
LINE
  8
0
 10
466.322
 20
-17.7347
 11
466.34
 21
-17.7086
  0
LINE
  8
0
 10
466.34
 20
-17.7086
 11
466.357
 21
-17.6829
  0
LINE
  8
0
 10
466.357
 20
-17.6829
 11
466.374
 21
-17.6565
  0
LINE
  8
0
 10
466.374
 20
-17.6565
 11
466.39
 21
-17.6303
  0
LINE
  8
0
 10
466.39
 20
-17.6303
 11
466.407
 21
-17.6037
  0
LINE
  8
0
 10
466.407
 20
-17.6037
 11
466.423
 21
-17.577
  0
LINE
  8
0
 10
466.423
 20
-17.577
 11
466.44
 21
-17.5501
  0
LINE
  8
0
 10
466.44
 20
-17.5501
 11
466.456
 21
-17.5223
  0
LINE
  8
0
 10
466.456
 20
-17.5223
 11
466.472
 21
-17.4951
  0
LINE
  8
0
 10
466.472
 20
-17.4951
 11
466.487
 21
-17.4683
  0
LINE
  8
0
 10
466.487
 20
-17.4683
 11
466.503
 21
-17.4409
  0
LINE
  8
0
 10
466.503
 20
-17.4409
 11
466.518
 21
-17.4127
  0
LINE
  8
0
 10
466.518
 20
-17.4127
 11
466.533
 21
-17.385
  0
LINE
  8
0
 10
466.533
 20
-17.385
 11
466.547
 21
-17.3585
  0
LINE
  8
0
 10
466.547
 20
-17.3585
 11
466.561
 21
-17.3306
  0
LINE
  8
0
 10
466.561
 20
-17.3306
 11
466.576
 21
-17.3016
  0
LINE
  8
0
 10
466.576
 20
-17.3016
 11
466.59
 21
-17.2735
  0
LINE
  8
0
 10
466.59
 20
-17.2735
 11
466.604
 21
-17.2454
  0
LINE
  8
0
 10
466.604
 20
-17.2454
 11
466.618
 21
-17.2171
  0
LINE
  8
0
 10
466.618
 20
-17.2171
 11
466.631
 21
-17.1892
  0
LINE
  8
0
 10
466.631
 20
-17.1892
 11
466.644
 21
-17.1606
  0
LINE
  8
0
 10
466.644
 20
-17.1606
 11
466.657
 21
-17.131
  0
LINE
  8
0
 10
466.657
 20
-17.131
 11
466.67
 21
-17.1022
  0
LINE
  8
0
 10
466.67
 20
-17.1022
 11
466.682
 21
-17.0746
  0
LINE
  8
0
 10
466.682
 20
-17.0746
 11
466.694
 21
-17.0457
  0
LINE
  8
0
 10
466.694
 20
-17.0457
 11
466.707
 21
-17.016
  0
LINE
  8
0
 10
466.707
 20
-17.016
 11
466.718
 21
-16.9869
  0
LINE
  8
0
 10
466.718
 20
-16.9869
 11
466.73
 21
-16.958
  0
LINE
  8
0
 10
466.73
 20
-16.958
 11
466.741
 21
-16.9287
  0
LINE
  8
0
 10
466.741
 20
-16.9287
 11
466.752
 21
-16.8997
  0
LINE
  8
0
 10
466.752
 20
-16.8997
 11
466.763
 21
-16.8702
  0
LINE
  8
0
 10
466.763
 20
-16.8702
 11
466.774
 21
-16.8399
  0
LINE
  8
0
 10
466.774
 20
-16.8399
 11
466.784
 21
-16.8102
  0
LINE
  8
0
 10
466.784
 20
-16.8102
 11
466.795
 21
-16.7803
  0
LINE
  8
0
 10
466.795
 20
-16.7803
 11
466.804
 21
-16.7505
  0
LINE
  8
0
 10
466.804
 20
-16.7505
 11
466.814
 21
-16.7213
  0
LINE
  8
0
 10
466.814
 20
-16.7213
 11
466.823
 21
-16.6913
  0
LINE
  8
0
 10
466.823
 20
-16.6913
 11
466.833
 21
-16.6611
  0
LINE
  8
0
 10
466.833
 20
-16.6611
 11
466.842
 21
-16.631
  0
LINE
  8
0
 10
466.842
 20
-16.631
 11
466.85
 21
-16.6011
  0
LINE
  8
0
 10
466.85
 20
-16.6011
 11
466.859
 21
-16.5709
  0
LINE
  8
0
 10
466.859
 20
-16.5709
 11
466.867
 21
-16.5406
  0
LINE
  8
0
 10
466.867
 20
-16.5406
 11
466.875
 21
-16.5103
  0
LINE
  8
0
 10
466.875
 20
-16.5103
 11
466.883
 21
-16.4792
  0
LINE
  8
0
 10
466.883
 20
-16.4792
 11
466.891
 21
-16.4488
  0
LINE
  8
0
 10
466.891
 20
-16.4488
 11
466.898
 21
-16.4185
  0
LINE
  8
0
 10
466.898
 20
-16.4185
 11
466.905
 21
-16.3879
  0
LINE
  8
0
 10
466.905
 20
-16.3879
 11
466.912
 21
-16.3569
  0
LINE
  8
0
 10
466.912
 20
-16.3569
 11
466.919
 21
-16.3261
  0
LINE
  8
0
 10
466.919
 20
-16.3261
 11
466.925
 21
-16.2961
  0
LINE
  8
0
 10
466.925
 20
-16.2961
 11
466.931
 21
-16.2653
  0
LINE
  8
0
 10
466.931
 20
-16.2653
 11
466.937
 21
-16.2342
  0
LINE
  8
0
 10
466.937
 20
-16.2342
 11
466.943
 21
-16.2033
  0
LINE
  8
0
 10
466.943
 20
-16.2033
 11
466.948
 21
-16.1722
  0
LINE
  8
0
 10
466.948
 20
-16.1722
 11
466.953
 21
-16.1412
  0
LINE
  8
0
 10
466.953
 20
-16.1412
 11
466.958
 21
-16.1101
  0
LINE
  8
0
 10
466.958
 20
-16.1101
 11
466.963
 21
-16.0791
  0
LINE
  8
0
 10
466.963
 20
-16.0791
 11
466.967
 21
-16.0479
  0
LINE
  8
0
 10
466.967
 20
-16.0479
 11
466.971
 21
-16.0168
  0
LINE
  8
0
 10
466.971
 20
-16.0168
 11
466.975
 21
-15.9858
  0
LINE
  8
0
 10
466.975
 20
-15.9858
 11
466.979
 21
-15.9546
  0
LINE
  8
0
 10
466.979
 20
-15.9546
 11
466.982
 21
-15.9234
  0
LINE
  8
0
 10
466.982
 20
-15.9234
 11
466.986
 21
-15.8921
  0
LINE
  8
0
 10
466.986
 20
-15.8921
 11
466.989
 21
-15.8602
  0
LINE
  8
0
 10
466.989
 20
-15.8602
 11
466.991
 21
-15.8289
  0
LINE
  8
0
 10
466.991
 20
-15.8289
 11
466.994
 21
-15.7988
  0
LINE
  8
0
 10
466.994
 20
-15.7988
 11
466.996
 21
-15.7675
  0
LINE
  8
0
 10
466.996
 20
-15.7675
 11
466.998
 21
-15.7353
  0
LINE
  8
0
 10
466.998
 20
-15.7353
 11
467
 21
-15.704
  0
LINE
  8
0
 10
467
 20
-15.704
 11
467.001
 21
-15.6729
  0
LINE
  8
0
 10
467.001
 20
-15.6729
 11
467.002
 21
-15.6415
  0
LINE
  8
0
 10
467.002
 20
-15.6415
 11
467.003
 21
-15.6094
  0
LINE
  8
0
 10
467.003
 20
-15.6094
 11
467.004
 21
-15.578
  0
LINE
  8
0
 10
467.004
 20
-15.578
 11
467.005
 21
-15.5479
  0
LINE
  8
0
 10
467.005
 20
-15.5479
 11
467.005
 21
-15.5165
  0
LINE
  8
0
 10
467.005
 20
-15.5165
 11
467.005
 21
-15.5
  0
LINE
  8
0
 10
467.005
 20
-15.5
 11
467.005
 21
15.5
  0
LINE
  8
0
 10
467.005
 20
15.5
 11
467.005
 21
15.5165
  0
LINE
  8
0
 10
467.005
 20
15.5165
 11
467.005
 21
15.5479
  0
LINE
  8
0
 10
467.005
 20
15.5479
 11
467.004
 21
15.578
  0
LINE
  8
0
 10
467.004
 20
15.578
 11
467.003
 21
15.6094
  0
LINE
  8
0
 10
467.003
 20
15.6094
 11
467.002
 21
15.6415
  0
LINE
  8
0
 10
467.002
 20
15.6415
 11
467.001
 21
15.6729
  0
LINE
  8
0
 10
467.001
 20
15.6729
 11
467
 21
15.704
  0
LINE
  8
0
 10
467
 20
15.704
 11
466.998
 21
15.7353
  0
LINE
  8
0
 10
466.998
 20
15.7353
 11
466.996
 21
15.7675
  0
LINE
  8
0
 10
466.996
 20
15.7675
 11
466.994
 21
15.7988
  0
LINE
  8
0
 10
466.994
 20
15.7988
 11
466.991
 21
15.8289
  0
LINE
  8
0
 10
466.991
 20
15.8289
 11
466.989
 21
15.8602
  0
LINE
  8
0
 10
466.989
 20
15.8602
 11
466.986
 21
15.8921
  0
LINE
  8
0
 10
466.986
 20
15.8921
 11
466.982
 21
15.9234
  0
LINE
  8
0
 10
466.982
 20
15.9234
 11
466.979
 21
15.9546
  0
LINE
  8
0
 10
466.979
 20
15.9546
 11
466.975
 21
15.9858
  0
LINE
  8
0
 10
466.975
 20
15.9858
 11
466.971
 21
16.0168
  0
LINE
  8
0
 10
466.971
 20
16.0168
 11
466.967
 21
16.0479
  0
LINE
  8
0
 10
466.967
 20
16.0479
 11
466.963
 21
16.0791
  0
LINE
  8
0
 10
466.963
 20
16.0791
 11
466.958
 21
16.1101
  0
LINE
  8
0
 10
466.958
 20
16.1101
 11
466.953
 21
16.1412
  0
LINE
  8
0
 10
466.953
 20
16.1412
 11
466.948
 21
16.1722
  0
LINE
  8
0
 10
466.948
 20
16.1722
 11
466.943
 21
16.2033
  0
LINE
  8
0
 10
466.943
 20
16.2033
 11
466.937
 21
16.2342
  0
LINE
  8
0
 10
466.937
 20
16.2342
 11
466.931
 21
16.2653
  0
LINE
  8
0
 10
466.931
 20
16.2653
 11
466.925
 21
16.2961
  0
LINE
  8
0
 10
466.925
 20
16.2961
 11
466.919
 21
16.3261
  0
LINE
  8
0
 10
466.919
 20
16.3261
 11
466.912
 21
16.3569
  0
LINE
  8
0
 10
466.912
 20
16.3569
 11
466.905
 21
16.3879
  0
LINE
  8
0
 10
466.905
 20
16.3879
 11
466.898
 21
16.4185
  0
LINE
  8
0
 10
466.898
 20
16.4185
 11
466.891
 21
16.4488
  0
LINE
  8
0
 10
466.891
 20
16.4488
 11
466.883
 21
16.4792
  0
LINE
  8
0
 10
466.883
 20
16.4792
 11
466.875
 21
16.5103
  0
LINE
  8
0
 10
466.875
 20
16.5103
 11
466.867
 21
16.5406
  0
LINE
  8
0
 10
466.867
 20
16.5406
 11
466.859
 21
16.5709
  0
LINE
  8
0
 10
466.859
 20
16.5709
 11
466.85
 21
16.6011
  0
LINE
  8
0
 10
466.85
 20
16.6011
 11
466.842
 21
16.631
  0
LINE
  8
0
 10
466.842
 20
16.631
 11
466.833
 21
16.6611
  0
LINE
  8
0
 10
466.833
 20
16.6611
 11
466.823
 21
16.6913
  0
LINE
  8
0
 10
466.823
 20
16.6913
 11
466.814
 21
16.7213
  0
LINE
  8
0
 10
466.814
 20
16.7213
 11
466.804
 21
16.7505
  0
LINE
  8
0
 10
466.804
 20
16.7505
 11
466.795
 21
16.7803
  0
LINE
  8
0
 10
466.795
 20
16.7803
 11
466.784
 21
16.8102
  0
LINE
  8
0
 10
466.784
 20
16.8102
 11
466.774
 21
16.8399
  0
LINE
  8
0
 10
466.774
 20
16.8399
 11
466.763
 21
16.8702
  0
LINE
  8
0
 10
466.763
 20
16.8702
 11
466.752
 21
16.8997
  0
LINE
  8
0
 10
466.752
 20
16.8997
 11
466.741
 21
16.9287
  0
LINE
  8
0
 10
466.741
 20
16.9287
 11
466.73
 21
16.958
  0
LINE
  8
0
 10
466.73
 20
16.958
 11
466.718
 21
16.9869
  0
LINE
  8
0
 10
466.718
 20
16.9869
 11
466.707
 21
17.016
  0
LINE
  8
0
 10
466.707
 20
17.016
 11
466.694
 21
17.0457
  0
LINE
  8
0
 10
466.694
 20
17.0457
 11
466.682
 21
17.0746
  0
LINE
  8
0
 10
466.682
 20
17.0746
 11
466.67
 21
17.1022
  0
LINE
  8
0
 10
466.67
 20
17.1022
 11
466.657
 21
17.131
  0
LINE
  8
0
 10
466.657
 20
17.131
 11
466.644
 21
17.1606
  0
LINE
  8
0
 10
466.644
 20
17.1606
 11
466.631
 21
17.1892
  0
LINE
  8
0
 10
466.631
 20
17.1892
 11
466.618
 21
17.2171
  0
LINE
  8
0
 10
466.618
 20
17.2171
 11
466.604
 21
17.2454
  0
LINE
  8
0
 10
466.604
 20
17.2454
 11
466.59
 21
17.2735
  0
LINE
  8
0
 10
466.59
 20
17.2735
 11
466.576
 21
17.3016
  0
LINE
  8
0
 10
466.576
 20
17.3016
 11
466.561
 21
17.3306
  0
LINE
  8
0
 10
466.561
 20
17.3306
 11
466.547
 21
17.3585
  0
LINE
  8
0
 10
466.547
 20
17.3585
 11
466.533
 21
17.385
  0
LINE
  8
0
 10
466.533
 20
17.385
 11
466.518
 21
17.4127
  0
LINE
  8
0
 10
466.518
 20
17.4127
 11
466.503
 21
17.4409
  0
LINE
  8
0
 10
466.503
 20
17.4409
 11
466.487
 21
17.4683
  0
LINE
  8
0
 10
466.487
 20
17.4683
 11
466.472
 21
17.4951
  0
LINE
  8
0
 10
466.472
 20
17.4951
 11
466.456
 21
17.5223
  0
LINE
  8
0
 10
466.456
 20
17.5223
 11
466.44
 21
17.5501
  0
LINE
  8
0
 10
466.44
 20
17.5501
 11
466.423
 21
17.577
  0
LINE
  8
0
 10
466.423
 20
17.577
 11
466.407
 21
17.6037
  0
LINE
  8
0
 10
466.407
 20
17.6037
 11
466.39
 21
17.6303
  0
LINE
  8
0
 10
466.39
 20
17.6303
 11
466.374
 21
17.6565
  0
LINE
  8
0
 10
466.374
 20
17.6565
 11
466.357
 21
17.6829
  0
LINE
  8
0
 10
466.357
 20
17.6829
 11
466.34
 21
17.7086
  0
LINE
  8
0
 10
466.34
 20
17.7086
 11
466.322
 21
17.7347
  0
LINE
  8
0
 10
466.322
 20
17.7347
 11
466.304
 21
17.7614
  0
LINE
  8
0
 10
466.304
 20
17.7614
 11
466.286
 21
17.7873
  0
LINE
  8
0
 10
466.286
 20
17.7873
 11
466.268
 21
17.8129
  0
LINE
  8
0
 10
466.268
 20
17.8129
 11
466.25
 21
17.8384
  0
LINE
  8
0
 10
466.25
 20
17.8384
 11
466.232
 21
17.8637
  0
LINE
  8
0
 10
466.232
 20
17.8637
 11
466.213
 21
17.889
  0
LINE
  8
0
 10
466.213
 20
17.889
 11
466.194
 21
17.9145
  0
LINE
  8
0
 10
466.194
 20
17.9145
 11
466.175
 21
17.9394
  0
LINE
  8
0
 10
466.175
 20
17.9394
 11
466.156
 21
17.9641
  0
LINE
  8
0
 10
466.156
 20
17.9641
 11
466.136
 21
17.9888
  0
LINE
  8
0
 10
466.136
 20
17.9888
 11
466.117
 21
18.0131
  0
LINE
  8
0
 10
466.117
 20
18.0131
 11
466.097
 21
18.0374
  0
LINE
  8
0
 10
466.097
 20
18.0374
 11
466.077
 21
18.0619
  0
LINE
  8
0
 10
466.077
 20
18.0619
 11
466.057
 21
18.0859
  0
LINE
  8
0
 10
466.057
 20
18.0859
 11
466.037
 21
18.1095
  0
LINE
  8
0
 10
466.037
 20
18.1095
 11
466.016
 21
18.1332
  0
LINE
  8
0
 10
466.016
 20
18.1332
 11
465.995
 21
18.157
  0
LINE
  8
0
 10
465.995
 20
18.157
 11
465.974
 21
18.1804
  0
LINE
  8
0
 10
465.974
 20
18.1804
 11
465.953
 21
18.2038
  0
LINE
  8
0
 10
465.953
 20
18.2038
 11
465.931
 21
18.2268
  0
LINE
  8
0
 10
465.931
 20
18.2268
 11
465.91
 21
18.2494
  0
LINE
  8
0
 10
465.91
 20
18.2494
 11
465.889
 21
18.2721
  0
LINE
  8
0
 10
465.889
 20
18.2721
 11
465.866
 21
18.2953
  0
LINE
  8
0
 10
465.866
 20
18.2953
 11
465.844
 21
18.3177
  0
LINE
  8
0
 10
465.844
 20
18.3177
 11
465.823
 21
18.3391
  0
LINE
  8
0
 10
465.823
 20
18.3391
 11
465.8
 21
18.3611
  0
LINE
  8
0
 10
465.8
 20
18.3611
 11
465.777
 21
18.3836
  0
LINE
  8
0
 10
465.777
 20
18.3836
 11
465.754
 21
18.4053
  0
LINE
  8
0
 10
465.754
 20
18.4053
 11
465.732
 21
18.4265
  0
LINE
  8
0
 10
465.732
 20
18.4265
 11
465.709
 21
18.4478
  0
LINE
  8
0
 10
465.709
 20
18.4478
 11
465.685
 21
18.469
  0
LINE
  8
0
 10
465.685
 20
18.469
 11
465.662
 21
18.49
  0
LINE
  8
0
 10
465.662
 20
18.49
 11
465.638
 21
18.511
  0
LINE
  8
0
 10
465.638
 20
18.511
 11
465.614
 21
18.5315
  0
LINE
  8
0
 10
465.614
 20
18.5315
 11
465.591
 21
18.5517
  0
LINE
  8
0
 10
465.591
 20
18.5517
 11
465.567
 21
18.5719
  0
LINE
  8
0
 10
465.567
 20
18.5719
 11
465.542
 21
18.5921
  0
LINE
  8
0
 10
465.542
 20
18.5921
 11
465.518
 21
18.6119
  0
LINE
  8
0
 10
465.518
 20
18.6119
 11
465.494
 21
18.6314
  0
LINE
  8
0
 10
465.494
 20
18.6314
 11
465.469
 21
18.6508
  0
LINE
  8
0
 10
465.469
 20
18.6508
 11
465.444
 21
18.67
  0
LINE
  8
0
 10
465.444
 20
18.67
 11
465.419
 21
18.689
  0
LINE
  8
0
 10
465.419
 20
18.689
 11
465.394
 21
18.7082
  0
LINE
  8
0
 10
465.394
 20
18.7082
 11
465.369
 21
18.7268
  0
LINE
  8
0
 10
465.369
 20
18.7268
 11
465.343
 21
18.7452
  0
LINE
  8
0
 10
465.343
 20
18.7452
 11
465.318
 21
18.7635
  0
LINE
  8
0
 10
465.318
 20
18.7635
 11
465.292
 21
18.7815
  0
LINE
  8
0
 10
465.292
 20
18.7815
 11
465.266
 21
18.7993
  0
LINE
  8
0
 10
465.266
 20
18.7993
 11
465.24
 21
18.8175
  0
LINE
  8
0
 10
465.24
 20
18.8175
 11
465.214
 21
18.8349
  0
LINE
  8
0
 10
465.214
 20
18.8349
 11
465.188
 21
18.8518
  0
LINE
  8
0
 10
465.188
 20
18.8518
 11
465.161
 21
18.8689
  0
LINE
  8
0
 10
465.161
 20
18.8689
 11
465.135
 21
18.8855
  0
LINE
  8
0
 10
465.135
 20
18.8855
 11
465.109
 21
18.9021
  0
LINE
  8
0
 10
465.109
 20
18.9021
 11
465.082
 21
18.9185
  0
LINE
  8
0
 10
465.082
 20
18.9185
 11
465.055
 21
18.9347
  0
LINE
  8
0
 10
465.055
 20
18.9347
 11
465.027
 21
18.9511
  0
LINE
  8
0
 10
465.027
 20
18.9511
 11
465
 21
18.9669
  0
LINE
  8
0
 10
465
 20
18.9669
 11
464.973
 21
18.9822
  0
LINE
  8
0
 10
464.973
 20
18.9822
 11
464.946
 21
18.9975
  0
LINE
  8
0
 10
464.946
 20
18.9975
 11
464.918
 21
19.013
  0
LINE
  8
0
 10
464.918
 20
19.013
 11
464.89
 21
19.0279
  0
LINE
  8
0
 10
464.89
 20
19.0279
 11
464.864
 21
19.042
  0
LINE
  8
0
 10
464.864
 20
19.042
 11
464.836
 21
19.0565
  0
LINE
  8
0
 10
464.836
 20
19.0565
 11
464.807
 21
19.0713
  0
LINE
  8
0
 10
464.807
 20
19.0713
 11
464.779
 21
19.0853
  0
LINE
  8
0
 10
464.779
 20
19.0853
 11
464.75
 21
19.099
  0
LINE
  8
0
 10
464.75
 20
19.099
 11
464.722
 21
19.1126
  0
LINE
  8
0
 10
464.722
 20
19.1126
 11
464.694
 21
19.1258
  0
LINE
  8
0
 10
464.694
 20
19.1258
 11
464.666
 21
19.1389
  0
LINE
  8
0
 10
464.666
 20
19.1389
 11
464.636
 21
19.1523
  0
LINE
  8
0
 10
464.636
 20
19.1523
 11
464.607
 21
19.165
  0
LINE
  8
0
 10
464.607
 20
19.165
 11
464.58
 21
19.177
  0
LINE
  8
0
 10
464.58
 20
19.177
 11
464.551
 21
19.1892
  0
LINE
  8
0
 10
464.551
 20
19.1892
 11
464.521
 21
19.2015
  0
LINE
  8
0
 10
464.521
 20
19.2015
 11
464.492
 21
19.2133
  0
LINE
  8
0
 10
464.492
 20
19.2133
 11
464.463
 21
19.2247
  0
LINE
  8
0
 10
464.463
 20
19.2247
 11
464.434
 21
19.2361
  0
LINE
  8
0
 10
464.434
 20
19.2361
 11
464.405
 21
19.2471
  0
LINE
  8
0
 10
464.405
 20
19.2471
 11
464.375
 21
19.2579
  0
LINE
  8
0
 10
464.375
 20
19.2579
 11
464.345
 21
19.2689
  0
LINE
  8
0
 10
464.345
 20
19.2689
 11
464.315
 21
19.2793
  0
LINE
  8
0
 10
464.315
 20
19.2793
 11
464.285
 21
19.2895
  0
LINE
  8
0
 10
464.285
 20
19.2895
 11
464.255
 21
19.2995
  0
LINE
  8
0
 10
464.255
 20
19.2995
 11
464.226
 21
19.309
  0
LINE
  8
0
 10
464.226
 20
19.309
 11
464.196
 21
19.3184
  0
LINE
  8
0
 10
464.196
 20
19.3184
 11
464.166
 21
19.3277
  0
LINE
  8
0
 10
464.166
 20
19.3277
 11
464.136
 21
19.3367
  0
LINE
  8
0
 10
464.136
 20
19.3367
 11
464.106
 21
19.3454
  0
LINE
  8
0
 10
464.106
 20
19.3454
 11
464.076
 21
19.3539
  0
LINE
  8
0
 10
464.076
 20
19.3539
 11
464.046
 21
19.3622
  0
LINE
  8
0
 10
464.046
 20
19.3622
 11
464.015
 21
19.3703
  0
LINE
  8
0
 10
464.015
 20
19.3703
 11
463.984
 21
19.3783
  0
LINE
  8
0
 10
463.984
 20
19.3783
 11
463.954
 21
19.3858
  0
LINE
  8
0
 10
463.954
 20
19.3858
 11
463.924
 21
19.3931
  0
LINE
  8
0
 10
463.924
 20
19.3931
 11
463.893
 21
19.4002
  0
LINE
  8
0
 10
463.893
 20
19.4002
 11
463.862
 21
19.4071
  0
LINE
  8
0
 10
463.862
 20
19.4071
 11
463.831
 21
19.4137
  0
LINE
  8
0
 10
463.831
 20
19.4137
 11
463.801
 21
19.4199
  0
LINE
  8
0
 10
463.801
 20
19.4199
 11
463.77
 21
19.4261
  0
LINE
  8
0
 10
463.77
 20
19.4261
 11
463.739
 21
19.432
  0
LINE
  8
0
 10
463.739
 20
19.432
 11
463.708
 21
19.4376
  0
LINE
  8
0
 10
463.708
 20
19.4376
 11
463.677
 21
19.4431
  0
LINE
  8
0
 10
463.677
 20
19.4431
 11
463.646
 21
19.4482
  0
LINE
  8
0
 10
463.646
 20
19.4482
 11
463.615
 21
19.4532
  0
LINE
  8
0
 10
463.615
 20
19.4532
 11
463.584
 21
19.4578
  0
LINE
  8
0
 10
463.584
 20
19.4578
 11
463.553
 21
19.4623
  0
LINE
  8
0
 10
463.553
 20
19.4623
 11
463.522
 21
19.4664
  0
LINE
  8
0
 10
463.522
 20
19.4664
 11
463.491
 21
19.4704
  0
LINE
  8
0
 10
463.491
 20
19.4704
 11
463.46
 21
19.474
  0
LINE
  8
0
 10
463.46
 20
19.474
 11
463.428
 21
19.4775
  0
LINE
  8
0
 10
463.428
 20
19.4775
 11
463.397
 21
19.4807
  0
LINE
  8
0
 10
463.397
 20
19.4807
 11
463.365
 21
19.4837
  0
LINE
  8
0
 10
463.365
 20
19.4837
 11
463.334
 21
19.4864
  0
LINE
  8
0
 10
463.334
 20
19.4864
 11
463.304
 21
19.4888
  0
LINE
  8
0
 10
463.304
 20
19.4888
 11
463.272
 21
19.491
  0
LINE
  8
0
 10
463.272
 20
19.491
 11
463.24
 21
19.493
  0
LINE
  8
0
 10
463.24
 20
19.493
 11
463.209
 21
19.4948
  0
LINE
  8
0
 10
463.209
 20
19.4948
 11
463.178
 21
19.4962
  0
LINE
  8
0
 10
463.178
 20
19.4962
 11
463.146
 21
19.4975
  0
LINE
  8
0
 10
463.146
 20
19.4975
 11
463.114
 21
19.4985
  0
LINE
  8
0
 10
463.114
 20
19.4985
 11
463.083
 21
19.4992
  0
LINE
  8
0
 10
463.083
 20
19.4992
 11
463.053
 21
19.4997
  0
LINE
  8
0
 10
463.053
 20
19.4997
 11
463.022
 21
19.4999
  0
LINE
  8
0
 10
463.022
 20
19.4999
 11
463.005
 21
19.5
  0
LINE
  8
0
 10
463.005
 20
19.5
 11
462.984
 21
19.5
  0
LINE
  8
0
 10
462.984
 20
19.5
 11
1.97849
 21
16.8749
  0
LINE
  8
0
 10
1.97849
 20
16.8749
 11
1.94708
 21
16.8747
  0
LINE
  8
0
 10
1.94708
 20
16.8747
 11
1.91699
 21
16.8742
  0
LINE
  8
0
 10
1.91699
 20
16.8742
 11
1.88557
 21
16.8735
  0
LINE
  8
0
 10
1.88557
 20
16.8735
 11
1.8535
 21
16.8725
  0
LINE
  8
0
 10
1.8535
 20
16.8725
 11
1.82211
 21
16.8712
  0
LINE
  8
0
 10
1.82211
 20
16.8712
 11
1.79105
 21
16.8698
  0
LINE
  8
0
 10
1.79105
 20
16.8698
 11
1.75967
 21
16.868
  0
LINE
  8
0
 10
1.75967
 20
16.868
 11
1.72755
 21
16.866
  0
LINE
  8
0
 10
1.72755
 20
16.866
 11
1.69623
 21
16.8638
  0
LINE
  8
0
 10
1.69623
 20
16.8638
 11
1.66614
 21
16.8614
  0
LINE
  8
0
 10
1.66614
 20
16.8614
 11
1.63484
 21
16.8587
  0
LINE
  8
0
 10
1.63484
 20
16.8587
 11
1.60291
 21
16.8557
  0
LINE
  8
0
 10
1.60291
 20
16.8557
 11
1.57164
 21
16.8525
  0
LINE
  8
0
 10
1.57164
 20
16.8525
 11
1.54039
 21
16.849
  0
LINE
  8
0
 10
1.54039
 20
16.849
 11
1.5092
 21
16.8454
  0
LINE
  8
0
 10
1.5092
 20
16.8454
 11
1.47824
 21
16.8414
  0
LINE
  8
0
 10
1.47824
 20
16.8414
 11
1.4471
 21
16.8373
  0
LINE
  8
0
 10
1.4471
 20
16.8373
 11
1.41595
 21
16.8328
  0
LINE
  8
0
 10
1.41595
 20
16.8328
 11
1.38489
 21
16.8282
  0
LINE
  8
0
 10
1.38489
 20
16.8282
 11
1.35382
 21
16.8232
  0
LINE
  8
0
 10
1.35382
 20
16.8232
 11
1.32283
 21
16.8181
  0
LINE
  8
0
 10
1.32283
 20
16.8181
 11
1.29167
 21
16.8126
  0
LINE
  8
0
 10
1.29167
 20
16.8126
 11
1.26077
 21
16.807
  0
LINE
  8
0
 10
1.26077
 20
16.807
 11
1.22971
 21
16.8011
  0
LINE
  8
0
 10
1.22971
 20
16.8011
 11
1.1989
 21
16.7949
  0
LINE
  8
0
 10
1.1989
 20
16.7949
 11
1.16887
 21
16.7887
  0
LINE
  8
0
 10
1.16887
 20
16.7887
 11
1.13815
 21
16.7821
  0
LINE
  8
0
 10
1.13815
 20
16.7821
 11
1.1071
 21
16.7752
  0
LINE
  8
0
 10
1.1071
 20
16.7752
 11
1.07649
 21
16.7681
  0
LINE
  8
0
 10
1.07649
 20
16.7681
 11
1.04625
 21
16.7608
  0
LINE
  8
0
 10
1.04625
 20
16.7608
 11
1.01576
 21
16.7533
  0
LINE
  8
0
 10
1.01576
 20
16.7533
 11
0.984726
 21
16.7453
  0
LINE
  8
0
 10
0.984726
 20
16.7453
 11
0.954361
 21
16.7372
  0
LINE
  8
0
 10
0.954361
 20
16.7372
 11
0.924118
 21
16.7289
  0
LINE
  8
0
 10
0.924118
 20
16.7289
 11
0.89389
 21
16.7204
  0
LINE
  8
0
 10
0.89389
 20
16.7204
 11
0.864044
 21
16.7117
  0
LINE
  8
0
 10
0.864044
 20
16.7117
 11
0.833939
 21
16.7027
  0
LINE
  8
0
 10
0.833939
 20
16.7027
 11
0.803696
 21
16.6934
  0
LINE
  8
0
 10
0.803696
 20
16.6934
 11
0.773743
 21
16.684
  0
LINE
  8
0
 10
0.773743
 20
16.684
 11
0.744522
 21
16.6745
  0
LINE
  8
0
 10
0.744522
 20
16.6745
 11
0.714722
 21
16.6645
  0
LINE
  8
0
 10
0.714722
 20
16.6645
 11
0.684799
 21
16.6543
  0
LINE
  8
0
 10
0.684799
 20
16.6543
 11
0.655151
 21
16.6439
  0
LINE
  8
0
 10
0.655151
 20
16.6439
 11
0.624771
 21
16.6329
  0
LINE
  8
0
 10
0.624771
 20
16.6329
 11
0.595306
 21
16.6221
  0
LINE
  8
0
 10
0.595306
 20
16.6221
 11
0.566269
 21
16.6111
  0
LINE
  8
0
 10
0.566269
 20
16.6111
 11
0.536972
 21
16.5997
  0
LINE
  8
0
 10
0.536972
 20
16.5997
 11
0.508133
 21
16.5883
  0
LINE
  8
0
 10
0.508133
 20
16.5883
 11
0.479004
 21
16.5765
  0
LINE
  8
0
 10
0.479004
 20
16.5765
 11
0.449326
 21
16.5642
  0
LINE
  8
0
 10
0.449326
 20
16.5642
 11
0.42041
 21
16.552
  0
LINE
  8
0
 10
0.42041
 20
16.552
 11
0.392776
 21
16.54
  0
LINE
  8
0
 10
0.392776
 20
16.54
 11
0.364029
 21
16.5273
  0
LINE
  8
0
 10
0.364029
 20
16.5273
 11
0.334366
 21
16.5139
  0
LINE
  8
0
 10
0.334366
 20
16.5139
 11
0.305847
 21
16.5008
  0
LINE
  8
0
 10
0.305847
 20
16.5008
 11
0.277908
 21
16.4876
  0
LINE
  8
0
 10
0.277908
 20
16.4876
 11
0.249588
 21
16.474
  0
LINE
  8
0
 10
0.249588
 20
16.474
 11
0.221497
 21
16.4603
  0
LINE
  8
0
 10
0.221497
 20
16.4603
 11
0.19339
 21
16.4463
  0
LINE
  8
0
 10
0.19339
 20
16.4463
 11
0.164368
 21
16.4315
  0
LINE
  8
0
 10
0.164368
 20
16.4315
 11
0.13649
 21
16.417
  0
LINE
  8
0
 10
0.13649
 20
16.417
 11
0.10997
 21
16.4029
  0
LINE
  8
0
 10
0.10997
 20
16.4029
 11
0.0823212
 21
16.388
  0
LINE
  8
0
 10
0.0823212
 20
16.388
 11
0.0541229
 21
16.3725
  0
LINE
  8
0
 10
0.0541229
 20
16.3725
 11
0.0267181
 21
16.3572
  0
LINE
  8
0
 10
0.0267181
 20
16.3572
 11
-7.62939e-05
 21
16.3419
  0
LINE
  8
0
 10
-7.62939e-05
 20
16.3419
 11
-0.0272522
 21
16.3261
  0
LINE
  8
0
 10
-0.0272522
 20
16.3261
 11
-0.055069
 21
16.3097
  0
LINE
  8
0
 10
-0.055069
 20
16.3097
 11
-0.0819702
 21
16.2935
  0
LINE
  8
0
 10
-0.0819702
 20
16.2935
 11
-0.108658
 21
16.2771
  0
LINE
  8
0
 10
-0.108658
 20
16.2771
 11
-0.135315
 21
16.2605
  0
LINE
  8
0
 10
-0.135315
 20
16.2605
 11
-0.161484
 21
16.2439
  0
LINE
  8
0
 10
-0.161484
 20
16.2439
 11
-0.187881
 21
16.2268
  0
LINE
  8
0
 10
-0.187881
 20
16.2268
 11
-0.213547
 21
16.2099
  0
LINE
  8
0
 10
-0.213547
 20
16.2099
 11
-0.23967
 21
16.1925
  0
LINE
  8
0
 10
-0.23967
 20
16.1925
 11
-0.266403
 21
16.1743
  0
LINE
  8
0
 10
-0.266403
 20
16.1743
 11
-0.292252
 21
16.1565
  0
LINE
  8
0
 10
-0.292252
 20
16.1565
 11
-0.317841
 21
16.1385
  0
LINE
  8
0
 10
-0.317841
 20
16.1385
 11
-0.343399
 21
16.1202
  0
LINE
  8
0
 10
-0.343399
 20
16.1202
 11
-0.368713
 21
16.1018
  0
LINE
  8
0
 10
-0.368713
 20
16.1018
 11
-0.393982
 21
16.0832
  0
LINE
  8
0
 10
-0.393982
 20
16.0832
 11
-0.419464
 21
16.064
  0
LINE
  8
0
 10
-0.419464
 20
16.064
 11
-0.444427
 21
16.045
  0
LINE
  8
0
 10
-0.444427
 20
16.045
 11
-0.469131
 21
16.0258
  0
LINE
  8
0
 10
-0.469131
 20
16.0258
 11
-0.493805
 21
16.0064
  0
LINE
  8
0
 10
-0.493805
 20
16.0064
 11
-0.518066
 21
15.9869
  0
LINE
  8
0
 10
-0.518066
 20
15.9869
 11
-0.542435
 21
15.9671
  0
LINE
  8
0
 10
-0.542435
 20
15.9671
 11
-0.566879
 21
15.9469
  0
LINE
  8
0
 10
-0.566879
 20
15.9469
 11
-0.590927
 21
15.9267
  0
LINE
  8
0
 10
-0.590927
 20
15.9267
 11
-0.614487
 21
15.9065
  0
LINE
  8
0
 10
-0.614487
 20
15.9065
 11
-0.638214
 21
15.886
  0
LINE
  8
0
 10
-0.638214
 20
15.886
 11
-0.661987
 21
15.865
  0
LINE
  8
0
 10
-0.661987
 20
15.865
 11
-0.685394
 21
15.844
  0
LINE
  8
0
 10
-0.685394
 20
15.844
 11
-0.70874
 21
15.8228
  0
LINE
  8
0
 10
-0.70874
 20
15.8228
 11
-0.731796
 21
15.8015
  0
LINE
  8
0
 10
-0.731796
 20
15.8015
 11
-0.754379
 21
15.7803
  0
LINE
  8
0
 10
-0.754379
 20
15.7803
 11
-0.777115
 21
15.7586
  0
LINE
  8
0
 10
-0.777115
 20
15.7586
 11
-0.800293
 21
15.7361
  0
LINE
  8
0
 10
-0.800293
 20
15.7361
 11
-0.822678
 21
15.7141
  0
LINE
  8
0
 10
-0.822678
 20
15.7141
 11
-0.84404
 21
15.6927
  0
LINE
  8
0
 10
-0.84404
 20
15.6927
 11
-0.866089
 21
15.6703
  0
LINE
  8
0
 10
-0.866089
 20
15.6703
 11
-0.888565
 21
15.6471
  0
LINE
  8
0
 10
-0.888565
 20
15.6471
 11
-0.910248
 21
15.6244
  0
LINE
  8
0
 10
-0.910248
 20
15.6244
 11
-0.931442
 21
15.6018
  0
LINE
  8
0
 10
-0.931442
 20
15.6018
 11
-0.952759
 21
15.5788
  0
LINE
  8
0
 10
-0.952759
 20
15.5788
 11
-0.974014
 21
15.5554
  0
LINE
  8
0
 10
-0.974014
 20
15.5554
 11
-0.99498
 21
15.532
  0
LINE
  8
0
 10
-0.99498
 20
15.532
 11
-1.01595
 21
15.5082
  0
LINE
  8
0
 10
-1.01595
 20
15.5082
 11
-1.03653
 21
15.4845
  0
LINE
  8
0
 10
-1.03653
 20
15.4845
 11
-1.05664
 21
15.4609
  0
LINE
  8
0
 10
-1.05664
 20
15.4609
 11
-1.07686
 21
15.4369
  0
LINE
  8
0
 10
-1.07686
 20
15.4369
 11
-1.09708
 21
15.4124
  0
LINE
  8
0
 10
-1.09708
 20
15.4124
 11
-1.11691
 21
15.3881
  0
LINE
  8
0
 10
-1.11691
 20
15.3881
 11
-1.13635
 21
15.3638
  0
LINE
  8
0
 10
-1.13635
 20
15.3638
 11
-1.15581
 21
15.3391
  0
LINE
  8
0
 10
-1.15581
 20
15.3391
 11
-1.17497
 21
15.3144
  0
LINE
  8
0
 10
-1.17497
 20
15.3144
 11
-1.19403
 21
15.2895
  0
LINE
  8
0
 10
-1.19403
 20
15.2895
 11
-1.21317
 21
15.264
  0
LINE
  8
0
 10
-1.21317
 20
15.264
 11
-1.23183
 21
15.2387
  0
LINE
  8
0
 10
-1.23183
 20
15.2387
 11
-1.25021
 21
15.2134
  0
LINE
  8
0
 10
-1.25021
 20
15.2134
 11
-1.26848
 21
15.1879
  0
LINE
  8
0
 10
-1.26848
 20
15.1879
 11
-1.28647
 21
15.1623
  0
LINE
  8
0
 10
-1.28647
 20
15.1623
 11
-1.30434
 21
15.1364
  0
LINE
  8
0
 10
-1.30434
 20
15.1364
 11
-1.32249
 21
15.1097
  0
LINE
  8
0
 10
-1.32249
 20
15.1097
 11
-1.33994
 21
15.0836
  0
LINE
  8
0
 10
-1.33994
 20
15.0836
 11
-1.3568
 21
15.0579
  0
LINE
  8
0
 10
-1.3568
 20
15.0579
 11
-1.37384
 21
15.0315
  0
LINE
  8
0
 10
-1.37384
 20
15.0315
 11
-1.39044
 21
15.0053
  0
LINE
  8
0
 10
-1.39044
 20
15.0053
 11
-1.40707
 21
14.9787
  0
LINE
  8
0
 10
-1.40707
 20
14.9787
 11
-1.42345
 21
14.952
  0
LINE
  8
0
 10
-1.42345
 20
14.952
 11
-1.43965
 21
14.9251
  0
LINE
  8
0
 10
-1.43965
 20
14.9251
 11
-1.4561
 21
14.8973
  0
LINE
  8
0
 10
-1.4561
 20
14.8973
 11
-1.47188
 21
14.8701
  0
LINE
  8
0
 10
-1.47188
 20
14.8701
 11
-1.48717
 21
14.8433
  0
LINE
  8
0
 10
-1.48717
 20
14.8433
 11
-1.50252
 21
14.8159
  0
LINE
  8
0
 10
-1.50252
 20
14.8159
 11
-1.51801
 21
14.7877
  0
LINE
  8
0
 10
-1.51801
 20
14.7877
 11
-1.53291
 21
14.76
  0
LINE
  8
0
 10
-1.53291
 20
14.76
 11
-1.54695
 21
14.7335
  0
LINE
  8
0
 10
-1.54695
 20
14.7335
 11
-1.56145
 21
14.7056
  0
LINE
  8
0
 10
-1.56145
 20
14.7056
 11
-1.57625
 21
14.6766
  0
LINE
  8
0
 10
-1.57625
 20
14.6766
 11
-1.59029
 21
14.6485
  0
LINE
  8
0
 10
-1.59029
 20
14.6485
 11
-1.60403
 21
14.6204
  0
LINE
  8
0
 10
-1.60403
 20
14.6204
 11
-1.61763
 21
14.5921
  0
LINE
  8
0
 10
-1.61763
 20
14.5921
 11
-1.63078
 21
14.5642
  0
LINE
  8
0
 10
-1.63078
 20
14.5642
 11
-1.64394
 21
14.5356
  0
LINE
  8
0
 10
-1.64394
 20
14.5356
 11
-1.65733
 21
14.506
  0
LINE
  8
0
 10
-1.65733
 20
14.506
 11
-1.67003
 21
14.4772
  0
LINE
  8
0
 10
-1.67003
 20
14.4772
 11
-1.68198
 21
14.4496
  0
LINE
  8
0
 10
-1.68198
 20
14.4496
 11
-1.69423
 21
14.4207
  0
LINE
  8
0
 10
-1.69423
 20
14.4207
 11
-1.70653
 21
14.391
  0
LINE
  8
0
 10
-1.70653
 20
14.391
 11
-1.71832
 21
14.3619
  0
LINE
  8
0
 10
-1.71832
 20
14.3619
 11
-1.72974
 21
14.333
  0
LINE
  8
0
 10
-1.72974
 20
14.333
 11
-1.74107
 21
14.3037
  0
LINE
  8
0
 10
-1.74107
 20
14.3037
 11
-1.75206
 21
14.2747
  0
LINE
  8
0
 10
-1.75206
 20
14.2747
 11
-1.76294
 21
14.2452
  0
LINE
  8
0
 10
-1.76294
 20
14.2452
 11
-1.77388
 21
14.2149
  0
LINE
  8
0
 10
-1.77388
 20
14.2149
 11
-1.78429
 21
14.1852
  0
LINE
  8
0
 10
-1.78429
 20
14.1852
 11
-1.79453
 21
14.1553
  0
LINE
  8
0
 10
-1.79453
 20
14.1553
 11
-1.80446
 21
14.1255
  0
LINE
  8
0
 10
-1.80446
 20
14.1255
 11
-1.81395
 21
14.0963
  0
LINE
  8
0
 10
-1.81395
 20
14.0963
 11
-1.82343
 21
14.0663
  0
LINE
  8
0
 10
-1.82343
 20
14.0663
 11
-1.83272
 21
14.0361
  0
LINE
  8
0
 10
-1.83272
 20
14.0361
 11
-1.84172
 21
14.006
  0
LINE
  8
0
 10
-1.84172
 20
14.006
 11
-1.8504
 21
13.9761
  0
LINE
  8
0
 10
-1.8504
 20
13.9761
 11
-1.85893
 21
13.9459
  0
LINE
  8
0
 10
-1.85893
 20
13.9459
 11
-1.86722
 21
13.9156
  0
LINE
  8
0
 10
-1.86722
 20
13.9156
 11
-1.87527
 21
13.8853
  0
LINE
  8
0
 10
-1.87527
 20
13.8853
 11
-1.88324
 21
13.8542
  0
LINE
  8
0
 10
-1.88324
 20
13.8542
 11
-1.89081
 21
13.8238
  0
LINE
  8
0
 10
-1.89081
 20
13.8238
 11
-1.89806
 21
13.7935
  0
LINE
  8
0
 10
-1.89806
 20
13.7935
 11
-1.90515
 21
13.7629
  0
LINE
  8
0
 10
-1.90515
 20
13.7629
 11
-1.91209
 21
13.7319
  0
LINE
  8
0
 10
-1.91209
 20
13.7319
 11
-1.9187
 21
13.7011
  0
LINE
  8
0
 10
-1.9187
 20
13.7011
 11
-1.92493
 21
13.6711
  0
LINE
  8
0
 10
-1.92493
 20
13.6711
 11
-1.93106
 21
13.6403
  0
LINE
  8
0
 10
-1.93106
 20
13.6403
 11
-1.93698
 21
13.6092
  0
LINE
  8
0
 10
-1.93698
 20
13.6092
 11
-1.94263
 21
13.5783
  0
LINE
  8
0
 10
-1.94263
 20
13.5783
 11
-1.94807
 21
13.5472
  0
LINE
  8
0
 10
-1.94807
 20
13.5472
 11
-1.95323
 21
13.5162
  0
LINE
  8
0
 10
-1.95323
 20
13.5162
 11
-1.95815
 21
13.4851
  0
LINE
  8
0
 10
-1.95815
 20
13.4851
 11
-1.96281
 21
13.4541
  0
LINE
  8
0
 10
-1.96281
 20
13.4541
 11
-1.96725
 21
13.4229
  0
LINE
  8
0
 10
-1.96725
 20
13.4229
 11
-1.97144
 21
13.3918
  0
LINE
  8
0
 10
-1.97144
 20
13.3918
 11
-1.97534
 21
13.3608
  0
LINE
  8
0
 10
-1.97534
 20
13.3608
 11
-1.97903
 21
13.3296
  0
LINE
  8
0
 10
-1.97903
 20
13.3296
 11
-1.98248
 21
13.2984
  0
LINE
  8
0
 10
-1.98248
 20
13.2984
 11
-1.98569
 21
13.2671
  0
LINE
  8
0
 10
-1.98569
 20
13.2671
 11
-1.98871
 21
13.2352
  0
LINE
  8
0
 10
-1.98871
 20
13.2352
 11
-1.99141
 21
13.2039
  0
LINE
  8
0
 10
-1.99141
 20
13.2039
 11
-1.99377
 21
13.1738
  0
LINE
  8
0
 10
-1.99377
 20
13.1738
 11
-1.996
 21
13.1425
  0
LINE
  8
0
 10
-1.996
 20
13.1425
 11
-1.99802
 21
13.1103
  0
LINE
  8
0
 10
-1.99802
 20
13.1103
 11
-1.99974
 21
13.079
  0
LINE
  8
0
 10
-1.99974
 20
13.079
 11
-2.00121
 21
13.0479
  0
LINE
  8
0
 10
-2.00121
 20
13.0479
 11
-2.00244
 21
13.0165
  0
LINE
  8
0
 10
-2.00244
 20
13.0165
 11
-2.00345
 21
12.9844
  0
LINE
  8
0
 10
-2.00345
 20
12.9844
 11
-2.00418
 21
12.953
  0
LINE
  8
0
 10
-2.00418
 20
12.953
 11
-2.00467
 21
12.9229
  0
LINE
  8
0
 10
-2.00467
 20
12.9229
 11
-2.00493
 21
12.8915
  0
LINE
  8
0
 10
-2.00493
 20
12.8915
 11
-2.00499
 21
12.875
  0
LINE
  8
0
 10
-2.00499
 20
12.875
 11
-2.00499
 21
-12.875
  0
LINE
  8
0
 10
-2.00499
 20
-12.875
 11
-2.00493
 21
-12.8915
  0
LINE
  8
0
 10
-2.00493
 20
-12.8915
 11
-2.00467
 21
-12.9229
  0
LINE
  8
0
 10
-2.00467
 20
-12.9229
 11
-2.00418
 21
-12.953
  0
LINE
  8
0
 10
-2.00418
 20
-12.953
 11
-2.00345
 21
-12.9844
  0
LINE
  8
0
 10
-2.00345
 20
-12.9844
 11
-2.00244
 21
-13.0165
  0
LINE
  8
0
 10
-2.00244
 20
-13.0165
 11
-2.00121
 21
-13.0479
  0
LINE
  8
0
 10
-2.00121
 20
-13.0479
 11
-1.99974
 21
-13.079
  0
LINE
  8
0
 10
-1.99974
 20
-13.079
 11
-1.99802
 21
-13.1103
  0
LINE
  8
0
 10
-1.99802
 20
-13.1103
 11
-1.996
 21
-13.1425
  0
LINE
  8
0
 10
-1.996
 20
-13.1425
 11
-1.99377
 21
-13.1738
  0
LINE
  8
0
 10
-1.99377
 20
-13.1738
 11
-1.99141
 21
-13.2039
  0
LINE
  8
0
 10
-1.99141
 20
-13.2039
 11
-1.98871
 21
-13.2352
  0
LINE
  8
0
 10
-1.98871
 20
-13.2352
 11
-1.98569
 21
-13.2671
  0
LINE
  8
0
 10
-1.98569
 20
-13.2671
 11
-1.98248
 21
-13.2984
  0
LINE
  8
0
 10
-1.98248
 20
-13.2984
 11
-1.97903
 21
-13.3296
  0
LINE
  8
0
 10
-1.97903
 20
-13.3296
 11
-1.97534
 21
-13.3608
  0
LINE
  8
0
 10
-1.97534
 20
-13.3608
 11
-1.97144
 21
-13.3918
  0
LINE
  8
0
 10
-1.97144
 20
-13.3918
 11
-1.96725
 21
-13.4229
  0
LINE
  8
0
 10
-1.96725
 20
-13.4229
 11
-1.96281
 21
-13.4541
  0
LINE
  8
0
 10
-1.96281
 20
-13.4541
 11
-1.95815
 21
-13.4851
  0
LINE
  8
0
 10
-1.95815
 20
-13.4851
 11
-1.95323
 21
-13.5162
  0
LINE
  8
0
 10
-1.95323
 20
-13.5162
 11
-1.94807
 21
-13.5472
  0
LINE
  8
0
 10
-1.94807
 20
-13.5472
 11
-1.94263
 21
-13.5783
  0
LINE
  8
0
 10
-1.94263
 20
-13.5783
 11
-1.93698
 21
-13.6092
  0
LINE
  8
0
 10
-1.93698
 20
-13.6092
 11
-1.93106
 21
-13.6403
  0
LINE
  8
0
 10
-1.93106
 20
-13.6403
 11
-1.92493
 21
-13.6711
  0
LINE
  8
0
 10
-1.92493
 20
-13.6711
 11
-1.9187
 21
-13.7011
  0
LINE
  8
0
 10
-1.9187
 20
-13.7011
 11
-1.91209
 21
-13.7319
  0
LINE
  8
0
 10
-1.91209
 20
-13.7319
 11
-1.90515
 21
-13.7629
  0
LINE
  8
0
 10
-1.90515
 20
-13.7629
 11
-1.89806
 21
-13.7935
  0
LINE
  8
0
 10
-1.89806
 20
-13.7935
 11
-1.89081
 21
-13.8238
  0
LINE
  8
0
 10
-1.89081
 20
-13.8238
 11
-1.88324
 21
-13.8542
  0
LINE
  8
0
 10
-1.88324
 20
-13.8542
 11
-1.87527
 21
-13.8853
  0
LINE
  8
0
 10
-1.87527
 20
-13.8853
 11
-1.86722
 21
-13.9156
  0
LINE
  8
0
 10
-1.86722
 20
-13.9156
 11
-1.85893
 21
-13.9459
  0
LINE
  8
0
 10
-1.85893
 20
-13.9459
 11
-1.8504
 21
-13.9761
  0
LINE
  8
0
 10
-1.8504
 20
-13.9761
 11
-1.84172
 21
-14.006
  0
LINE
  8
0
 10
-1.84172
 20
-14.006
 11
-1.83272
 21
-14.0361
  0
LINE
  8
0
 10
-1.83272
 20
-14.0361
 11
-1.82343
 21
-14.0663
  0
LINE
  8
0
 10
-1.82343
 20
-14.0663
 11
-1.81395
 21
-14.0963
  0
LINE
  8
0
 10
-1.81395
 20
-14.0963
 11
-1.80446
 21
-14.1255
  0
LINE
  8
0
 10
-1.80446
 20
-14.1255
 11
-1.79453
 21
-14.1553
  0
LINE
  8
0
 10
-1.79453
 20
-14.1553
 11
-1.78429
 21
-14.1852
  0
LINE
  8
0
 10
-1.78429
 20
-14.1852
 11
-1.77388
 21
-14.2149
  0
LINE
  8
0
 10
-1.77388
 20
-14.2149
 11
-1.76294
 21
-14.2452
  0
LINE
  8
0
 10
-1.76294
 20
-14.2452
 11
-1.75206
 21
-14.2747
  0
LINE
  8
0
 10
-1.75206
 20
-14.2747
 11
-1.74107
 21
-14.3037
  0
LINE
  8
0
 10
-1.74107
 20
-14.3037
 11
-1.72974
 21
-14.333
  0
LINE
  8
0
 10
-1.72974
 20
-14.333
 11
-1.71832
 21
-14.3619
  0
LINE
  8
0
 10
-1.71832
 20
-14.3619
 11
-1.70653
 21
-14.391
  0
LINE
  8
0
 10
-1.70653
 20
-14.391
 11
-1.69423
 21
-14.4207
  0
LINE
  8
0
 10
-1.69423
 20
-14.4207
 11
-1.68198
 21
-14.4496
  0
LINE
  8
0
 10
-1.68198
 20
-14.4496
 11
-1.67003
 21
-14.4772
  0
LINE
  8
0
 10
-1.67003
 20
-14.4772
 11
-1.65733
 21
-14.506
  0
LINE
  8
0
 10
-1.65733
 20
-14.506
 11
-1.64394
 21
-14.5356
  0
LINE
  8
0
 10
-1.64394
 20
-14.5356
 11
-1.63078
 21
-14.5642
  0
LINE
  8
0
 10
-1.63078
 20
-14.5642
 11
-1.61763
 21
-14.5921
  0
LINE
  8
0
 10
-1.61763
 20
-14.5921
 11
-1.60403
 21
-14.6204
  0
LINE
  8
0
 10
-1.60403
 20
-14.6204
 11
-1.59029
 21
-14.6485
  0
LINE
  8
0
 10
-1.59029
 20
-14.6485
 11
-1.57625
 21
-14.6766
  0
LINE
  8
0
 10
-1.57625
 20
-14.6766
 11
-1.56145
 21
-14.7056
  0
LINE
  8
0
 10
-1.56145
 20
-14.7056
 11
-1.54695
 21
-14.7335
  0
LINE
  8
0
 10
-1.54695
 20
-14.7335
 11
-1.53291
 21
-14.76
  0
LINE
  8
0
 10
-1.53291
 20
-14.76
 11
-1.51801
 21
-14.7877
  0
LINE
  8
0
 10
-1.51801
 20
-14.7877
 11
-1.50252
 21
-14.8159
  0
LINE
  8
0
 10
-1.50252
 20
-14.8159
 11
-1.48717
 21
-14.8433
  0
LINE
  8
0
 10
-1.48717
 20
-14.8433
 11
-1.47188
 21
-14.8701
  0
LINE
  8
0
 10
-1.47188
 20
-14.8701
 11
-1.4561
 21
-14.8973
  0
LINE
  8
0
 10
-1.4561
 20
-14.8973
 11
-1.43965
 21
-14.9251
  0
LINE
  8
0
 10
-1.43965
 20
-14.9251
 11
-1.42345
 21
-14.952
  0
LINE
  8
0
 10
-1.42345
 20
-14.952
 11
-1.40707
 21
-14.9787
  0
LINE
  8
0
 10
-1.40707
 20
-14.9787
 11
-1.39044
 21
-15.0053
  0
LINE
  8
0
 10
-1.39044
 20
-15.0053
 11
-1.37384
 21
-15.0315
  0
LINE
  8
0
 10
-1.37384
 20
-15.0315
 11
-1.3568
 21
-15.0579
  0
LINE
  8
0
 10
-1.3568
 20
-15.0579
 11
-1.33994
 21
-15.0836
  0
LINE
  8
0
 10
-1.33994
 20
-15.0836
 11
-1.32249
 21
-15.1097
  0
LINE
  8
0
 10
-1.32249
 20
-15.1097
 11
-1.30434
 21
-15.1364
  0
LINE
  8
0
 10
-1.30434
 20
-15.1364
 11
-1.28647
 21
-15.1623
  0
LINE
  8
0
 10
-1.28647
 20
-15.1623
 11
-1.26848
 21
-15.1879
  0
LINE
  8
0
 10
-1.26848
 20
-15.1879
 11
-1.25021
 21
-15.2134
  0
LINE
  8
0
 10
-1.25021
 20
-15.2134
 11
-1.23183
 21
-15.2387
  0
LINE
  8
0
 10
-1.23183
 20
-15.2387
 11
-1.21317
 21
-15.264
  0
LINE
  8
0
 10
-1.21317
 20
-15.264
 11
-1.19403
 21
-15.2895
  0
LINE
  8
0
 10
-1.19403
 20
-15.2895
 11
-1.17497
 21
-15.3144
  0
LINE
  8
0
 10
-1.17497
 20
-15.3144
 11
-1.15581
 21
-15.3391
  0
LINE
  8
0
 10
-1.15581
 20
-15.3391
 11
-1.13635
 21
-15.3638
  0
LINE
  8
0
 10
-1.13635
 20
-15.3638
 11
-1.11691
 21
-15.3881
  0
LINE
  8
0
 10
-1.11691
 20
-15.3881
 11
-1.09708
 21
-15.4124
  0
LINE
  8
0
 10
-1.09708
 20
-15.4124
 11
-1.07686
 21
-15.4369
  0
LINE
  8
0
 10
-1.07686
 20
-15.4369
 11
-1.05664
 21
-15.4609
  0
LINE
  8
0
 10
-1.05664
 20
-15.4609
 11
-1.03653
 21
-15.4845
  0
LINE
  8
0
 10
-1.03653
 20
-15.4845
 11
-1.01595
 21
-15.5082
  0
LINE
  8
0
 10
-1.01595
 20
-15.5082
 11
-0.99498
 21
-15.532
  0
LINE
  8
0
 10
-0.99498
 20
-15.532
 11
-0.974014
 21
-15.5554
  0
LINE
  8
0
 10
-0.974014
 20
-15.5554
 11
-0.952759
 21
-15.5788
  0
LINE
  8
0
 10
-0.952759
 20
-15.5788
 11
-0.931442
 21
-15.6018
  0
LINE
  8
0
 10
-0.931442
 20
-15.6018
 11
-0.910248
 21
-15.6244
  0
LINE
  8
0
 10
-0.910248
 20
-15.6244
 11
-0.888565
 21
-15.6471
  0
LINE
  8
0
 10
-0.888565
 20
-15.6471
 11
-0.866089
 21
-15.6703
  0
LINE
  8
0
 10
-0.866089
 20
-15.6703
 11
-0.84404
 21
-15.6927
  0
LINE
  8
0
 10
-0.84404
 20
-15.6927
 11
-0.822678
 21
-15.7141
  0
LINE
  8
0
 10
-0.822678
 20
-15.7141
 11
-0.800293
 21
-15.7361
  0
LINE
  8
0
 10
-0.800293
 20
-15.7361
 11
-0.777115
 21
-15.7586
  0
LINE
  8
0
 10
-0.777115
 20
-15.7586
 11
-0.754379
 21
-15.7803
  0
LINE
  8
0
 10
-0.754379
 20
-15.7803
 11
-0.731796
 21
-15.8015
  0
LINE
  8
0
 10
-0.731796
 20
-15.8015
 11
-0.70874
 21
-15.8228
  0
LINE
  8
0
 10
-0.70874
 20
-15.8228
 11
-0.685394
 21
-15.844
  0
LINE
  8
0
 10
-0.685394
 20
-15.844
 11
-0.661987
 21
-15.865
  0
LINE
  8
0
 10
-0.661987
 20
-15.865
 11
-0.638214
 21
-15.886
  0
LINE
  8
0
 10
-0.638214
 20
-15.886
 11
-0.614487
 21
-15.9065
  0
LINE
  8
0
 10
-0.614487
 20
-15.9065
 11
-0.590927
 21
-15.9267
  0
LINE
  8
0
 10
-0.590927
 20
-15.9267
 11
-0.566879
 21
-15.9469
  0
LINE
  8
0
 10
-0.566879
 20
-15.9469
 11
-0.542435
 21
-15.9671
  0
LINE
  8
0
 10
-0.542435
 20
-15.9671
 11
-0.518066
 21
-15.9869
  0
LINE
  8
0
 10
-0.518066
 20
-15.9869
 11
-0.493805
 21
-16.0064
  0
LINE
  8
0
 10
-0.493805
 20
-16.0064
 11
-0.469131
 21
-16.0258
  0
LINE
  8
0
 10
-0.469131
 20
-16.0258
 11
-0.444427
 21
-16.045
  0
LINE
  8
0
 10
-0.444427
 20
-16.045
 11
-0.419464
 21
-16.064
  0
LINE
  8
0
 10
-0.419464
 20
-16.064
 11
-0.393982
 21
-16.0832
  0
LINE
  8
0
 10
-0.393982
 20
-16.0832
 11
-0.368713
 21
-16.1018
  0
LINE
  8
0
 10
-0.368713
 20
-16.1018
 11
-0.343399
 21
-16.1202
  0
LINE
  8
0
 10
-0.343399
 20
-16.1202
 11
-0.317841
 21
-16.1385
  0
LINE
  8
0
 10
-0.317841
 20
-16.1385
 11
-0.292252
 21
-16.1565
  0
LINE
  8
0
 10
-0.292252
 20
-16.1565
 11
-0.266403
 21
-16.1743
  0
LINE
  8
0
 10
-0.266403
 20
-16.1743
 11
-0.23967
 21
-16.1925
  0
LINE
  8
0
 10
-0.23967
 20
-16.1925
 11
-0.213547
 21
-16.2099
  0
LINE
  8
0
 10
-0.213547
 20
-16.2099
 11
-0.187881
 21
-16.2268
  0
LINE
  8
0
 10
-0.187881
 20
-16.2268
 11
-0.161484
 21
-16.2439
  0
LINE
  8
0
 10
-0.161484
 20
-16.2439
 11
-0.135315
 21
-16.2605
  0
LINE
  8
0
 10
-0.135315
 20
-16.2605
 11
-0.108658
 21
-16.2771
  0
LINE
  8
0
 10
-0.108658
 20
-16.2771
 11
-0.0819702
 21
-16.2935
  0
LINE
  8
0
 10
-0.0819702
 20
-16.2935
 11
-0.055069
 21
-16.3097
  0
LINE
  8
0
 10
-0.055069
 20
-16.3097
 11
-0.0272522
 21
-16.3261
  0
LINE
  8
0
 10
-0.0272522
 20
-16.3261
 11
-7.62939e-05
 21
-16.3419
  0
LINE
  8
0
 10
-7.62939e-05
 20
-16.3419
 11
0.0267181
 21
-16.3572
  0
LINE
  8
0
 10
0.0267181
 20
-16.3572
 11
0.0541229
 21
-16.3725
  0
LINE
  8
0
 10
0.0541229
 20
-16.3725
 11
0.0823212
 21
-16.388
  0
LINE
  8
0
 10
0.0823212
 20
-16.388
 11
0.10997
 21
-16.4029
  0
LINE
  8
0
 10
0.10997
 20
-16.4029
 11
0.13649
 21
-16.417
  0
LINE
  8
0
 10
0.13649
 20
-16.417
 11
0.164368
 21
-16.4315
  0
LINE
  8
0
 10
0.164368
 20
-16.4315
 11
0.19339
 21
-16.4463
  0
LINE
  8
0
 10
0.19339
 20
-16.4463
 11
0.221497
 21
-16.4603
  0
LINE
  8
0
 10
0.221497
 20
-16.4603
 11
0.249588
 21
-16.474
  0
LINE
  8
0
 10
0.249588
 20
-16.474
 11
0.277908
 21
-16.4876
  0
LINE
  8
0
 10
0.277908
 20
-16.4876
 11
0.305847
 21
-16.5008
  0
LINE
  8
0
 10
0.305847
 20
-16.5008
 11
0.334366
 21
-16.5139
  0
LINE
  8
0
 10
0.334366
 20
-16.5139
 11
0.364029
 21
-16.5273
  0
LINE
  8
0
 10
0.364029
 20
-16.5273
 11
0.392776
 21
-16.54
  0
LINE
  8
0
 10
0.392776
 20
-16.54
 11
0.42041
 21
-16.552
  0
LINE
  8
0
 10
0.42041
 20
-16.552
 11
0.449326
 21
-16.5642
  0
LINE
  8
0
 10
0.449326
 20
-16.5642
 11
0.479004
 21
-16.5765
  0
LINE
  8
0
 10
0.479004
 20
-16.5765
 11
0.508133
 21
-16.5883
  0
LINE
  8
0
 10
0.508133
 20
-16.5883
 11
0.536972
 21
-16.5997
  0
LINE
  8
0
 10
0.536972
 20
-16.5997
 11
0.566269
 21
-16.6111
  0
LINE
  8
0
 10
0.566269
 20
-16.6111
 11
0.595306
 21
-16.6221
  0
LINE
  8
0
 10
0.595306
 20
-16.6221
 11
0.624771
 21
-16.6329
  0
LINE
  8
0
 10
0.624771
 20
-16.6329
 11
0.655151
 21
-16.6439
  0
LINE
  8
0
 10
0.655151
 20
-16.6439
 11
0.684799
 21
-16.6543
  0
LINE
  8
0
 10
0.684799
 20
-16.6543
 11
0.714722
 21
-16.6645
  0
LINE
  8
0
 10
0.714722
 20
-16.6645
 11
0.744522
 21
-16.6745
  0
LINE
  8
0
 10
0.744522
 20
-16.6745
 11
0.773743
 21
-16.684
  0
LINE
  8
0
 10
0.773743
 20
-16.684
 11
0.803696
 21
-16.6934
  0
LINE
  8
0
 10
0.803696
 20
-16.6934
 11
0.833939
 21
-16.7027
  0
LINE
  8
0
 10
0.833939
 20
-16.7027
 11
0.864044
 21
-16.7117
  0
LINE
  8
0
 10
0.864044
 20
-16.7117
 11
0.89389
 21
-16.7204
  0
LINE
  8
0
 10
0.89389
 20
-16.7204
 11
0.924118
 21
-16.7289
  0
LINE
  8
0
 10
0.924118
 20
-16.7289
 11
0.954361
 21
-16.7372
  0
LINE
  8
0
 10
0.954361
 20
-16.7372
 11
0.984726
 21
-16.7453
  0
LINE
  8
0
 10
0.984726
 20
-16.7453
 11
1.01576
 21
-16.7533
  0
LINE
  8
0
 10
1.01576
 20
-16.7533
 11
1.04625
 21
-16.7608
  0
LINE
  8
0
 10
1.04625
 20
-16.7608
 11
1.07649
 21
-16.7681
  0
LINE
  8
0
 10
1.07649
 20
-16.7681
 11
1.1071
 21
-16.7752
  0
LINE
  8
0
 10
1.1071
 20
-16.7752
 11
1.13815
 21
-16.7821
  0
LINE
  8
0
 10
1.13815
 20
-16.7821
 11
1.16887
 21
-16.7887
  0
LINE
  8
0
 10
1.16887
 20
-16.7887
 11
1.1989
 21
-16.7949
  0
LINE
  8
0
 10
1.1989
 20
-16.7949
 11
1.22971
 21
-16.8011
  0
LINE
  8
0
 10
1.22971
 20
-16.8011
 11
1.26077
 21
-16.807
  0
LINE
  8
0
 10
1.26077
 20
-16.807
 11
1.29167
 21
-16.8126
  0
LINE
  8
0
 10
1.29167
 20
-16.8126
 11
1.32283
 21
-16.8181
  0
LINE
  8
0
 10
1.32283
 20
-16.8181
 11
1.35382
 21
-16.8232
  0
LINE
  8
0
 10
1.35382
 20
-16.8232
 11
1.38489
 21
-16.8282
  0
LINE
  8
0
 10
1.38489
 20
-16.8282
 11
1.41595
 21
-16.8328
  0
LINE
  8
0
 10
1.41595
 20
-16.8328
 11
1.4471
 21
-16.8373
  0
LINE
  8
0
 10
1.4471
 20
-16.8373
 11
1.47824
 21
-16.8414
  0
LINE
  8
0
 10
1.47824
 20
-16.8414
 11
1.5092
 21
-16.8454
  0
LINE
  8
0
 10
1.5092
 20
-16.8454
 11
1.54039
 21
-16.849
  0
LINE
  8
0
 10
1.54039
 20
-16.849
 11
1.57164
 21
-16.8525
  0
LINE
  8
0
 10
1.57164
 20
-16.8525
 11
1.60291
 21
-16.8557
  0
LINE
  8
0
 10
1.60291
 20
-16.8557
 11
1.63484
 21
-16.8587
  0
LINE
  8
0
 10
1.63484
 20
-16.8587
 11
1.66614
 21
-16.8614
  0
LINE
  8
0
 10
1.66614
 20
-16.8614
 11
1.69623
 21
-16.8638
  0
LINE
  8
0
 10
1.69623
 20
-16.8638
 11
1.72755
 21
-16.866
  0
LINE
  8
0
 10
1.72755
 20
-16.866
 11
1.75967
 21
-16.868
  0
LINE
  8
0
 10
1.75967
 20
-16.868
 11
1.79105
 21
-16.8698
  0
LINE
  8
0
 10
1.79105
 20
-16.8698
 11
1.82211
 21
-16.8712
  0
LINE
  8
0
 10
1.82211
 20
-16.8712
 11
1.8535
 21
-16.8725
  0
LINE
  8
0
 10
1.8535
 20
-16.8725
 11
1.88557
 21
-16.8735
  0
LINE
  8
0
 10
1.88557
 20
-16.8735
 11
1.91699
 21
-16.8742
  0
LINE
  8
0
 10
1.91699
 20
-16.8742
 11
1.94708
 21
-16.8747
  0
LINE
  8
0
 10
1.94708
 20
-16.8747
 11
1.98363
 21
-16.875
  0
LINE
  8
0
 10
1.98363
 20
-16.875
 11
462.984
 21
-19.5
  0
LINE
  8
0
 10
462.984
 20
-19.5
 11
463.005
 21
-19.5
  0
LINE
  8
0
 10
463.005
 20
-19.5
 11
463.022
 21
-19.4999
  0
LINE
  8
0
 10
462.995
 20
-17.5
 11
456.783
 21
-17.4646
  0
LINE
  8
0
 10
456.783
 20
-17.4646
 11
456.783
 21
17.4646
  0
LINE
  8
0
 10
456.783
 20
17.4646
 11
462.995
 21
17.5
  0
LINE
  8
0
 10
462.995
 20
17.5
 11
463.005
 21
17.5
  0
LINE
  8
0
 10
463.005
 20
17.5
 11
463.036
 21
17.4997
  0
LINE
  8
0
 10
463.036
 20
17.4997
 11
463.068
 21
17.499
  0
LINE
  8
0
 10
463.068
 20
17.499
 11
463.099
 21
17.4978
  0
LINE
  8
0
 10
463.099
 20
17.4978
 11
463.131
 21
17.496
  0
LINE
  8
0
 10
463.131
 20
17.496
 11
463.162
 21
17.4938
  0
LINE
  8
0
 10
463.162
 20
17.4938
 11
463.193
 21
17.4911
  0
LINE
  8
0
 10
463.193
 20
17.4911
 11
463.224
 21
17.4879
  0
LINE
  8
0
 10
463.224
 20
17.4879
 11
463.256
 21
17.4842
  0
LINE
  8
0
 10
463.256
 20
17.4842
 11
463.287
 21
17.48
  0
LINE
  8
0
 10
463.287
 20
17.48
 11
463.318
 21
17.4754
  0
LINE
  8
0
 10
463.318
 20
17.4754
 11
463.349
 21
17.4702
  0
LINE
  8
0
 10
463.349
 20
17.4702
 11
463.38
 21
17.4646
  0
LINE
  8
0
 10
463.38
 20
17.4646
 11
463.411
 21
17.4584
  0
LINE
  8
0
 10
463.411
 20
17.4584
 11
463.441
 21
17.4518
  0
LINE
  8
0
 10
463.441
 20
17.4518
 11
463.472
 21
17.4447
  0
LINE
  8
0
 10
463.472
 20
17.4447
 11
463.502
 21
17.4372
  0
LINE
  8
0
 10
463.502
 20
17.4372
 11
463.533
 21
17.4291
  0
LINE
  8
0
 10
463.533
 20
17.4291
 11
463.563
 21
17.4206
  0
LINE
  8
0
 10
463.563
 20
17.4206
 11
463.593
 21
17.4116
  0
LINE
  8
0
 10
463.593
 20
17.4116
 11
463.623
 21
17.4021
  0
LINE
  8
0
 10
463.623
 20
17.4021
 11
463.653
 21
17.3922
  0
LINE
  8
0
 10
463.653
 20
17.3922
 11
463.682
 21
17.3818
  0
LINE
  8
0
 10
463.682
 20
17.3818
 11
463.712
 21
17.3709
  0
LINE
  8
0
 10
463.712
 20
17.3709
 11
463.741
 21
17.3595
  0
LINE
  8
0
 10
463.741
 20
17.3595
 11
463.77
 21
17.3477
  0
LINE
  8
0
 10
463.77
 20
17.3477
 11
463.799
 21
17.3355
  0
LINE
  8
0
 10
463.799
 20
17.3355
 11
463.828
 21
17.3228
  0
LINE
  8
0
 10
463.828
 20
17.3228
 11
463.857
 21
17.3096
  0
LINE
  8
0
 10
463.857
 20
17.3096
 11
463.885
 21
17.2961
  0
LINE
  8
0
 10
463.885
 20
17.2961
 11
463.913
 21
17.282
  0
LINE
  8
0
 10
463.913
 20
17.282
 11
463.941
 21
17.2675
  0
LINE
  8
0
 10
463.941
 20
17.2675
 11
463.968
 21
17.2526
  0
LINE
  8
0
 10
463.968
 20
17.2526
 11
463.996
 21
17.2373
  0
LINE
  8
0
 10
463.996
 20
17.2373
 11
464.023
 21
17.2215
  0
LINE
  8
0
 10
464.023
 20
17.2215
 11
464.05
 21
17.2053
  0
LINE
  8
0
 10
464.05
 20
17.2053
 11
464.077
 21
17.1886
  0
LINE
  8
0
 10
464.077
 20
17.1886
 11
464.103
 21
17.1716
  0
LINE
  8
0
 10
464.103
 20
17.1716
 11
464.129
 21
17.1542
  0
LINE
  8
0
 10
464.129
 20
17.1542
 11
464.155
 21
17.1363
  0
LINE
  8
0
 10
464.155
 20
17.1363
 11
464.181
 21
17.118
  0
LINE
  8
0
 10
464.181
 20
17.118
 11
464.206
 21
17.0994
  0
LINE
  8
0
 10
464.206
 20
17.0994
 11
464.231
 21
17.0803
  0
LINE
  8
0
 10
464.231
 20
17.0803
 11
464.255
 21
17.0609
  0
LINE
  8
0
 10
464.255
 20
17.0609
 11
464.28
 21
17.041
  0
LINE
  8
0
 10
464.28
 20
17.041
 11
464.304
 21
17.0208
  0
LINE
  8
0
 10
464.304
 20
17.0208
 11
464.328
 21
17.0002
  0
LINE
  8
0
 10
464.328
 20
17.0002
 11
464.351
 21
16.9792
  0
LINE
  8
0
 10
464.351
 20
16.9792
 11
464.374
 21
16.9579
  0
LINE
  8
0
 10
464.374
 20
16.9579
 11
464.397
 21
16.9362
  0
LINE
  8
0
 10
464.397
 20
16.9362
 11
464.419
 21
16.9142
  0
LINE
  8
0
 10
464.419
 20
16.9142
 11
464.441
 21
16.8918
  0
LINE
  8
0
 10
464.441
 20
16.8918
 11
464.463
 21
16.8691
  0
LINE
  8
0
 10
464.463
 20
16.8691
 11
464.484
 21
16.846
  0
LINE
  8
0
 10
464.484
 20
16.846
 11
464.505
 21
16.8226
  0
LINE
  8
0
 10
464.505
 20
16.8226
 11
464.526
 21
16.7989
  0
LINE
  8
0
 10
464.526
 20
16.7989
 11
464.546
 21
16.7748
  0
LINE
  8
0
 10
464.546
 20
16.7748
 11
464.566
 21
16.7505
  0
LINE
  8
0
 10
464.566
 20
16.7505
 11
464.585
 21
16.7258
  0
LINE
  8
0
 10
464.585
 20
16.7258
 11
464.604
 21
16.7008
  0
LINE
  8
0
 10
464.604
 20
16.7008
 11
464.623
 21
16.6756
  0
LINE
  8
0
 10
464.623
 20
16.6756
 11
464.641
 21
16.65
  0
LINE
  8
0
 10
464.641
 20
16.65
 11
464.659
 21
16.6242
  0
LINE
  8
0
 10
464.659
 20
16.6242
 11
464.677
 21
16.598
  0
LINE
  8
0
 10
464.677
 20
16.598
 11
464.694
 21
16.5716
  0
LINE
  8
0
 10
464.694
 20
16.5716
 11
464.71
 21
16.545
  0
LINE
  8
0
 10
464.71
 20
16.545
 11
464.726
 21
16.5181
  0
LINE
  8
0
 10
464.726
 20
16.5181
 11
464.742
 21
16.4909
  0
LINE
  8
0
 10
464.742
 20
16.4909
 11
464.758
 21
16.4635
  0
LINE
  8
0
 10
464.758
 20
16.4635
 11
464.773
 21
16.4359
  0
LINE
  8
0
 10
464.773
 20
16.4359
 11
464.787
 21
16.408
  0
LINE
  8
0
 10
464.787
 20
16.408
 11
464.801
 21
16.3799
  0
LINE
  8
0
 10
464.801
 20
16.3799
 11
464.815
 21
16.3515
  0
LINE
  8
0
 10
464.815
 20
16.3515
 11
464.828
 21
16.323
  0
LINE
  8
0
 10
464.828
 20
16.323
 11
464.84
 21
16.2943
  0
LINE
  8
0
 10
464.84
 20
16.2943
 11
464.853
 21
16.2654
  0
LINE
  8
0
 10
464.853
 20
16.2654
 11
464.865
 21
16.2362
  0
LINE
  8
0
 10
464.865
 20
16.2362
 11
464.876
 21
16.2069
  0
LINE
  8
0
 10
464.876
 20
16.2069
 11
464.887
 21
16.1775
  0
LINE
  8
0
 10
464.887
 20
16.1775
 11
464.897
 21
16.1478
  0
LINE
  8
0
 10
464.897
 20
16.1478
 11
464.907
 21
16.118
  0
LINE
  8
0
 10
464.907
 20
16.118
 11
464.917
 21
16.0881
  0
LINE
  8
0
 10
464.917
 20
16.0881
 11
464.926
 21
16.058
  0
LINE
  8
0
 10
464.926
 20
16.058
 11
464.934
 21
16.0277
  0
LINE
  8
0
 10
464.934
 20
16.0277
 11
464.942
 21
15.9974
  0
LINE
  8
0
 10
464.942
 20
15.9974
 11
464.95
 21
15.9669
  0
LINE
  8
0
 10
464.95
 20
15.9669
 11
464.957
 21
15.9363
  0
LINE
  8
0
 10
464.957
 20
15.9363
 11
464.963
 21
15.9056
  0
LINE
  8
0
 10
464.963
 20
15.9056
 11
464.97
 21
15.8748
  0
LINE
  8
0
 10
464.97
 20
15.8748
 11
464.975
 21
15.8439
  0
LINE
  8
0
 10
464.975
 20
15.8439
 11
464.98
 21
15.8129
  0
LINE
  8
0
 10
464.98
 20
15.8129
 11
464.985
 21
15.7818
  0
LINE
  8
0
 10
464.985
 20
15.7818
 11
464.989
 21
15.7507
  0
LINE
  8
0
 10
464.989
 20
15.7507
 11
464.993
 21
15.7195
  0
LINE
  8
0
 10
464.993
 20
15.7195
 11
464.996
 21
15.6882
  0
LINE
  8
0
 10
464.996
 20
15.6882
 11
464.999
 21
15.6569
  0
LINE
  8
0
 10
464.999
 20
15.6569
 11
465.001
 21
15.6256
  0
LINE
  8
0
 10
465.001
 20
15.6256
 11
465.003
 21
15.5942
  0
LINE
  8
0
 10
465.003
 20
15.5942
 11
465.004
 21
15.5628
  0
LINE
  8
0
 10
465.004
 20
15.5628
 11
465.005
 21
15.5314
  0
LINE
  8
0
 10
465.005
 20
15.5314
 11
465.005
 21
15.5
  0
LINE
  8
0
 10
465.005
 20
15.5
 11
465.005
 21
-15.5
  0
LINE
  8
0
 10
465.005
 20
-15.5
 11
465.005
 21
-15.5314
  0
LINE
  8
0
 10
465.005
 20
-15.5314
 11
465.004
 21
-15.5628
  0
LINE
  8
0
 10
465.004
 20
-15.5628
 11
465.003
 21
-15.5942
  0
LINE
  8
0
 10
465.003
 20
-15.5942
 11
465.001
 21
-15.6256
  0
LINE
  8
0
 10
465.001
 20
-15.6256
 11
464.999
 21
-15.6569
  0
LINE
  8
0
 10
464.999
 20
-15.6569
 11
464.996
 21
-15.6882
  0
LINE
  8
0
 10
464.996
 20
-15.6882
 11
464.993
 21
-15.7195
  0
LINE
  8
0
 10
464.993
 20
-15.7195
 11
464.989
 21
-15.7507
  0
LINE
  8
0
 10
464.989
 20
-15.7507
 11
464.985
 21
-15.7818
  0
LINE
  8
0
 10
464.985
 20
-15.7818
 11
464.98
 21
-15.8129
  0
LINE
  8
0
 10
464.98
 20
-15.8129
 11
464.975
 21
-15.8439
  0
LINE
  8
0
 10
464.975
 20
-15.8439
 11
464.97
 21
-15.8748
  0
LINE
  8
0
 10
464.97
 20
-15.8748
 11
464.963
 21
-15.9056
  0
LINE
  8
0
 10
464.963
 20
-15.9056
 11
464.957
 21
-15.9363
  0
LINE
  8
0
 10
464.957
 20
-15.9363
 11
464.95
 21
-15.9669
  0
LINE
  8
0
 10
464.95
 20
-15.9669
 11
464.942
 21
-15.9974
  0
LINE
  8
0
 10
464.942
 20
-15.9974
 11
464.934
 21
-16.0277
  0
LINE
  8
0
 10
464.934
 20
-16.0277
 11
464.926
 21
-16.058
  0
LINE
  8
0
 10
464.926
 20
-16.058
 11
464.917
 21
-16.0881
  0
LINE
  8
0
 10
464.917
 20
-16.0881
 11
464.907
 21
-16.118
  0
LINE
  8
0
 10
464.907
 20
-16.118
 11
464.897
 21
-16.1478
  0
LINE
  8
0
 10
464.897
 20
-16.1478
 11
464.887
 21
-16.1775
  0
LINE
  8
0
 10
464.887
 20
-16.1775
 11
464.876
 21
-16.2069
  0
LINE
  8
0
 10
464.876
 20
-16.2069
 11
464.865
 21
-16.2362
  0
LINE
  8
0
 10
464.865
 20
-16.2362
 11
464.853
 21
-16.2654
  0
LINE
  8
0
 10
464.853
 20
-16.2654
 11
464.84
 21
-16.2943
  0
LINE
  8
0
 10
464.84
 20
-16.2943
 11
464.828
 21
-16.323
  0
LINE
  8
0
 10
464.828
 20
-16.323
 11
464.815
 21
-16.3515
  0
LINE
  8
0
 10
464.815
 20
-16.3515
 11
464.801
 21
-16.3799
  0
LINE
  8
0
 10
464.801
 20
-16.3799
 11
464.787
 21
-16.408
  0
LINE
  8
0
 10
464.787
 20
-16.408
 11
464.773
 21
-16.4359
  0
LINE
  8
0
 10
464.773
 20
-16.4359
 11
464.758
 21
-16.4635
  0
LINE
  8
0
 10
464.758
 20
-16.4635
 11
464.742
 21
-16.4909
  0
LINE
  8
0
 10
464.742
 20
-16.4909
 11
464.726
 21
-16.5181
  0
LINE
  8
0
 10
464.726
 20
-16.5181
 11
464.71
 21
-16.545
  0
LINE
  8
0
 10
464.71
 20
-16.545
 11
464.694
 21
-16.5716
  0
LINE
  8
0
 10
464.694
 20
-16.5716
 11
464.677
 21
-16.598
  0
LINE
  8
0
 10
464.677
 20
-16.598
 11
464.659
 21
-16.6242
  0
LINE
  8
0
 10
464.659
 20
-16.6242
 11
464.641
 21
-16.65
  0
LINE
  8
0
 10
464.641
 20
-16.65
 11
464.623
 21
-16.6756
  0
LINE
  8
0
 10
464.623
 20
-16.6756
 11
464.604
 21
-16.7008
  0
LINE
  8
0
 10
464.604
 20
-16.7008
 11
464.585
 21
-16.7258
  0
LINE
  8
0
 10
464.585
 20
-16.7258
 11
464.566
 21
-16.7505
  0
LINE
  8
0
 10
464.566
 20
-16.7505
 11
464.546
 21
-16.7748
  0
LINE
  8
0
 10
464.546
 20
-16.7748
 11
464.526
 21
-16.7989
  0
LINE
  8
0
 10
464.526
 20
-16.7989
 11
464.505
 21
-16.8226
  0
LINE
  8
0
 10
464.505
 20
-16.8226
 11
464.484
 21
-16.846
  0
LINE
  8
0
 10
464.484
 20
-16.846
 11
464.463
 21
-16.8691
  0
LINE
  8
0
 10
464.463
 20
-16.8691
 11
464.441
 21
-16.8918
  0
LINE
  8
0
 10
464.441
 20
-16.8918
 11
464.419
 21
-16.9142
  0
LINE
  8
0
 10
464.419
 20
-16.9142
 11
464.397
 21
-16.9362
  0
LINE
  8
0
 10
464.397
 20
-16.9362
 11
464.374
 21
-16.9579
  0
LINE
  8
0
 10
464.374
 20
-16.9579
 11
464.351
 21
-16.9792
  0
LINE
  8
0
 10
464.351
 20
-16.9792
 11
464.328
 21
-17.0002
  0
LINE
  8
0
 10
464.328
 20
-17.0002
 11
464.304
 21
-17.0208
  0
LINE
  8
0
 10
464.304
 20
-17.0208
 11
464.28
 21
-17.041
  0
LINE
  8
0
 10
464.28
 20
-17.041
 11
464.255
 21
-17.0609
  0
LINE
  8
0
 10
464.255
 20
-17.0609
 11
464.231
 21
-17.0803
  0
LINE
  8
0
 10
464.231
 20
-17.0803
 11
464.206
 21
-17.0994
  0
LINE
  8
0
 10
464.206
 20
-17.0994
 11
464.181
 21
-17.118
  0
LINE
  8
0
 10
464.181
 20
-17.118
 11
464.155
 21
-17.1363
  0
LINE
  8
0
 10
464.155
 20
-17.1363
 11
464.129
 21
-17.1542
  0
LINE
  8
0
 10
464.129
 20
-17.1542
 11
464.103
 21
-17.1716
  0
LINE
  8
0
 10
464.103
 20
-17.1716
 11
464.077
 21
-17.1886
  0
LINE
  8
0
 10
464.077
 20
-17.1886
 11
464.05
 21
-17.2053
  0
LINE
  8
0
 10
464.05
 20
-17.2053
 11
464.023
 21
-17.2215
  0
LINE
  8
0
 10
464.023
 20
-17.2215
 11
463.996
 21
-17.2373
  0
LINE
  8
0
 10
463.996
 20
-17.2373
 11
463.968
 21
-17.2526
  0
LINE
  8
0
 10
463.968
 20
-17.2526
 11
463.941
 21
-17.2675
  0
LINE
  8
0
 10
463.941
 20
-17.2675
 11
463.913
 21
-17.282
  0
LINE
  8
0
 10
463.913
 20
-17.282
 11
463.885
 21
-17.2961
  0
LINE
  8
0
 10
463.885
 20
-17.2961
 11
463.857
 21
-17.3096
  0
LINE
  8
0
 10
463.857
 20
-17.3096
 11
463.828
 21
-17.3228
  0
LINE
  8
0
 10
463.828
 20
-17.3228
 11
463.799
 21
-17.3355
  0
LINE
  8
0
 10
463.799
 20
-17.3355
 11
463.77
 21
-17.3477
  0
LINE
  8
0
 10
463.77
 20
-17.3477
 11
463.741
 21
-17.3595
  0
LINE
  8
0
 10
463.741
 20
-17.3595
 11
463.712
 21
-17.3709
  0
LINE
  8
0
 10
463.712
 20
-17.3709
 11
463.682
 21
-17.3818
  0
LINE
  8
0
 10
463.682
 20
-17.3818
 11
463.653
 21
-17.3922
  0
LINE
  8
0
 10
463.653
 20
-17.3922
 11
463.623
 21
-17.4021
  0
LINE
  8
0
 10
463.623
 20
-17.4021
 11
463.593
 21
-17.4116
  0
LINE
  8
0
 10
463.593
 20
-17.4116
 11
463.563
 21
-17.4206
  0
LINE
  8
0
 10
463.563
 20
-17.4206
 11
463.533
 21
-17.4291
  0
LINE
  8
0
 10
463.533
 20
-17.4291
 11
463.502
 21
-17.4372
  0
LINE
  8
0
 10
463.502
 20
-17.4372
 11
463.472
 21
-17.4447
  0
LINE
  8
0
 10
463.472
 20
-17.4447
 11
463.441
 21
-17.4518
  0
LINE
  8
0
 10
463.441
 20
-17.4518
 11
463.411
 21
-17.4584
  0
LINE
  8
0
 10
463.411
 20
-17.4584
 11
463.38
 21
-17.4646
  0
LINE
  8
0
 10
463.38
 20
-17.4646
 11
463.349
 21
-17.4702
  0
LINE
  8
0
 10
463.349
 20
-17.4702
 11
463.318
 21
-17.4754
  0
LINE
  8
0
 10
463.318
 20
-17.4754
 11
463.287
 21
-17.48
  0
LINE
  8
0
 10
463.287
 20
-17.48
 11
463.256
 21
-17.4842
  0
LINE
  8
0
 10
463.256
 20
-17.4842
 11
463.224
 21
-17.4879
  0
LINE
  8
0
 10
463.224
 20
-17.4879
 11
463.193
 21
-17.4911
  0
LINE
  8
0
 10
463.193
 20
-17.4911
 11
463.162
 21
-17.4938
  0
LINE
  8
0
 10
463.162
 20
-17.4938
 11
463.131
 21
-17.496
  0
LINE
  8
0
 10
463.131
 20
-17.496
 11
463.099
 21
-17.4978
  0
LINE
  8
0
 10
463.099
 20
-17.4978
 11
463.068
 21
-17.499
  0
LINE
  8
0
 10
463.068
 20
-17.499
 11
463.036
 21
-17.4997
  0
LINE
  8
0
 10
463.036
 20
-17.4997
 11
463.005
 21
-17.5
  0
LINE
  8
0
 10
463.005
 20
-17.5
 11
462.995
 21
-17.5
  0
LINE
  8
0
 10
460.737
 20
1.70555
 11
462.157
 21
0.82309
  0
LINE
  8
0
 10
462.157
 20
0.82309
 11
461.041
 21
2.06776
  0
LINE
  8
0
 10
461.041
 20
2.06776
 11
462.696
 21
2.30418
  0
LINE
  8
0
 10
462.696
 20
2.30418
 11
461.041
 21
2.5406
  0
LINE
  8
0
 10
461.041
 20
2.5406
 11
462.157
 21
3.78528
  0
LINE
  8
0
 10
462.157
 20
3.78528
 11
460.737
 21
2.90282
  0
LINE
  8
0
 10
460.737
 20
2.90282
 11
460.792
 21
4.57336
  0
LINE
  8
0
 10
460.792
 20
4.57336
 11
460.272
 21
2.98494
  0
LINE
  8
0
 10
460.272
 20
2.98494
 11
459.24
 21
4.29967
  0
LINE
  8
0
 10
459.24
 20
4.29967
 11
459.862
 21
2.7485
  0
LINE
  8
0
 10
459.862
 20
2.7485
 11
458.226
 21
3.09225
  0
LINE
  8
0
 10
458.226
 20
3.09225
 11
459.7
 21
2.30418
  0
LINE
  8
0
 10
459.7
 20
2.30418
 11
458.226
 21
1.51611
  0
LINE
  8
0
 10
458.226
 20
1.51611
 11
459.862
 21
1.85986
  0
LINE
  8
0
 10
459.862
 20
1.85986
 11
459.24
 21
0.308701
  0
LINE
  8
0
 10
459.24
 20
0.308701
 11
460.272
 21
1.62343
  0
LINE
  8
0
 10
460.272
 20
1.62343
 11
460.792
 21
0.0350037
  0
LINE
  8
0
 10
460.792
 20
0.0350037
 11
460.737
 21
1.70555
  0
LINE
  8
0
 10
460.737
 20
-2.90282
 11
462.157
 21
-3.78528
  0
LINE
  8
0
 10
462.157
 20
-3.78528
 11
461.041
 21
-2.5406
  0
LINE
  8
0
 10
461.041
 20
-2.5406
 11
462.696
 21
-2.30418
  0
LINE
  8
0
 10
462.696
 20
-2.30418
 11
461.041
 21
-2.06776
  0
LINE
  8
0
 10
461.041
 20
-2.06776
 11
462.157
 21
-0.82309
  0
LINE
  8
0
 10
462.157
 20
-0.82309
 11
460.737
 21
-1.70555
  0
LINE
  8
0
 10
460.737
 20
-1.70555
 11
460.792
 21
-0.0350037
  0
LINE
  8
0
 10
460.792
 20
-0.0350037
 11
460.272
 21
-1.62343
  0
LINE
  8
0
 10
460.272
 20
-1.62343
 11
459.24
 21
-0.308701
  0
LINE
  8
0
 10
459.24
 20
-0.308701
 11
459.862
 21
-1.85986
  0
LINE
  8
0
 10
459.862
 20
-1.85986
 11
458.226
 21
-1.51611
  0
LINE
  8
0
 10
458.226
 20
-1.51611
 11
459.7
 21
-2.30418
  0
LINE
  8
0
 10
459.7
 20
-2.30418
 11
458.226
 21
-3.09225
  0
LINE
  8
0
 10
458.226
 20
-3.09225
 11
459.862
 21
-2.7485
  0
LINE
  8
0
 10
459.862
 20
-2.7485
 11
459.24
 21
-4.29967
  0
LINE
  8
0
 10
459.24
 20
-4.29967
 11
460.272
 21
-2.98494
  0
LINE
  8
0
 10
460.272
 20
-2.98494
 11
460.792
 21
-4.57336
  0
LINE
  8
0
 10
460.792
 20
-4.57336
 11
460.737
 21
-2.90282
  0
LINE
  8
0
 10
447.018
 20
-17.409
 11
447.018
 21
17.409
  0
LINE
  8
0
 10
447.018
 20
17.409
 11
454.783
 21
17.4532
  0
LINE
  8
0
 10
454.783
 20
17.4532
 11
454.783
 21
-17.4532
  0
LINE
  8
0
 10
454.783
 20
-17.4532
 11
447.018
 21
-17.409
  0
LINE
  8
0
 10
436.673
 20
-17.3501
 11
436.673
 21
17.3501
  0
LINE
  8
0
 10
436.673
 20
17.3501
 11
445.018
 21
17.3976
  0
LINE
  8
0
 10
445.018
 20
17.3976
 11
445.018
 21
-17.3976
  0
LINE
  8
0
 10
445.018
 20
-17.3976
 11
436.673
 21
-17.3501
  0
LINE
  8
0
 10
425.712
 20
-17.2877
 11
425.712
 21
17.2877
  0
LINE
  8
0
 10
425.712
 20
17.2877
 11
434.673
 21
17.3387
  0
LINE
  8
0
 10
434.673
 20
17.3387
 11
434.673
 21
-17.3387
  0
LINE
  8
0
 10
434.673
 20
-17.3387
 11
425.712
 21
-17.2877
  0
LINE
  8
0
 10
430.604
 20
-0.711914
 11
432.292
 21
-1.76134
  0
LINE
  8
0
 10
432.292
 20
-1.76134
 11
430.965
 21
-0.281143
  0
LINE
  8
0
 10
430.965
 20
-0.281143
 11
432.933
 21
0
  0
LINE
  8
0
 10
432.933
 20
0
 11
430.965
 21
0.281143
  0
LINE
  8
0
 10
430.965
 20
0.281143
 11
432.292
 21
1.76134
  0
LINE
  8
0
 10
432.292
 20
1.76134
 11
430.604
 21
0.711914
  0
LINE
  8
0
 10
430.604
 20
0.711914
 11
430.668
 21
2.69853
  0
LINE
  8
0
 10
430.668
 20
2.69853
 11
430.05
 21
0.809555
  0
LINE
  8
0
 10
430.05
 20
0.809555
 11
428.822
 21
2.37305
  0
LINE
  8
0
 10
428.822
 20
2.37305
 11
429.563
 21
0.528397
  0
LINE
  8
0
 10
429.563
 20
0.528397
 11
427.618
 21
0.93718
  0
LINE
  8
0
 10
427.618
 20
0.93718
 11
429.371
 21
0
  0
LINE
  8
0
 10
429.371
 20
0
 11
427.618
 21
-0.93718
  0
LINE
  8
0
 10
427.618
 20
-0.93718
 11
429.563
 21
-0.528397
  0
LINE
  8
0
 10
429.563
 20
-0.528397
 11
428.822
 21
-2.37305
  0
LINE
  8
0
 10
428.822
 20
-2.37305
 11
430.05
 21
-0.809555
  0
LINE
  8
0
 10
430.05
 20
-0.809555
 11
430.668
 21
-2.69853
  0
LINE
  8
0
 10
430.668
 20
-2.69853
 11
430.604
 21
-0.711914
  0
LINE
  8
0
 10
414.1
 20
-17.2216
 11
414.1
 21
17.2216
  0
LINE
  8
0
 10
414.1
 20
17.2216
 11
423.712
 21
17.2763
  0
LINE
  8
0
 10
423.712
 20
17.2763
 11
423.712
 21
-17.2763
  0
LINE
  8
0
 10
423.712
 20
-17.2763
 11
414.1
 21
-17.2216
  0
LINE
  8
0
 10
401.797
 20
-17.1515
 11
401.797
 21
17.1515
  0
LINE
  8
0
 10
401.797
 20
17.1515
 11
412.1
 21
17.2102
  0
LINE
  8
0
 10
412.1
 20
17.2102
 11
412.1
 21
-17.2102
  0
LINE
  8
0
 10
412.1
 20
-17.2102
 11
401.797
 21
-17.1515
  0
LINE
  8
0
 10
407.41
 20
-0.799088
 11
409.304
 21
-1.97704
  0
LINE
  8
0
 10
409.304
 20
-1.97704
 11
407.815
 21
-0.315582
  0
LINE
  8
0
 10
407.815
 20
-0.315582
 11
410.024
 21
0
  0
LINE
  8
0
 10
410.024
 20
0
 11
407.815
 21
0.315582
  0
LINE
  8
0
 10
407.815
 20
0.315582
 11
409.304
 21
1.97704
  0
LINE
  8
0
 10
409.304
 20
1.97704
 11
407.41
 21
0.799088
  0
LINE
  8
0
 10
407.41
 20
0.799088
 11
407.482
 21
3.02899
  0
LINE
  8
0
 10
407.482
 20
3.02899
 11
406.788
 21
0.908691
  0
LINE
  8
0
 10
406.788
 20
0.908691
 11
405.41
 21
2.66365
  0
LINE
  8
0
 10
405.41
 20
2.66365
 11
406.242
 21
0.593109
  0
LINE
  8
0
 10
406.242
 20
0.593109
 11
404.058
 21
1.05196
  0
LINE
  8
0
 10
404.058
 20
1.05196
 11
406.026
 21
0
  0
LINE
  8
0
 10
406.026
 20
0
 11
404.058
 21
-1.05196
  0
LINE
  8
0
 10
404.058
 20
-1.05196
 11
406.242
 21
-0.593109
  0
LINE
  8
0
 10
406.242
 20
-0.593109
 11
405.41
 21
-2.66365
  0
LINE
  8
0
 10
405.41
 20
-2.66365
 11
406.788
 21
-0.908691
  0
LINE
  8
0
 10
406.788
 20
-0.908691
 11
407.482
 21
-3.02899
  0
LINE
  8
0
 10
407.482
 20
-3.02899
 11
407.41
 21
-0.799088
  0
LINE
  8
0
 10
388.762
 20
-17.0773
 11
388.762
 21
17.0773
  0
LINE
  8
0
 10
388.762
 20
17.0773
 11
399.797
 21
17.1401
  0
LINE
  8
0
 10
399.797
 20
17.1401
 11
399.797
 21
-17.1401
  0
LINE
  8
0
 10
399.797
 20
-17.1401
 11
388.762
 21
-17.0773
  0
LINE
  8
0
 10
374.953
 20
-16.9987
 11
374.953
 21
16.9987
  0
LINE
  8
0
 10
374.953
 20
16.9987
 11
386.762
 21
17.0659
  0
LINE
  8
0
 10
386.762
 20
17.0659
 11
386.762
 21
-17.0659
  0
LINE
  8
0
 10
386.762
 20
-17.0659
 11
374.953
 21
-16.9987
  0
LINE
  8
0
 10
381.375
 20
-0.896957
 11
383.502
 21
-2.21915
  0
LINE
  8
0
 10
383.502
 20
-2.21915
 11
381.831
 21
-0.354233
  0
LINE
  8
0
 10
381.831
 20
-0.354233
 11
384.31
 21
0
  0
LINE
  8
0
 10
384.31
 20
0
 11
381.831
 21
0.354233
  0
LINE
  8
0
 10
381.831
 20
0.354233
 11
383.502
 21
2.21915
  0
LINE
  8
0
 10
383.502
 20
2.21915
 11
381.375
 21
0.896957
  0
LINE
  8
0
 10
381.375
 20
0.896957
 11
381.457
 21
3.39993
  0
LINE
  8
0
 10
381.457
 20
3.39993
 11
380.678
 21
1.01997
  0
LINE
  8
0
 10
380.678
 20
1.01997
 11
379.131
 21
2.98985
  0
LINE
  8
0
 10
379.131
 20
2.98985
 11
380.064
 21
0.665741
  0
LINE
  8
0
 10
380.064
 20
0.665741
 11
377.613
 21
1.18079
  0
LINE
  8
0
 10
377.613
 20
1.18079
 11
379.822
 21
0
  0
LINE
  8
0
 10
379.822
 20
0
 11
377.613
 21
-1.18079
  0
LINE
  8
0
 10
377.613
 20
-1.18079
 11
380.064
 21
-0.665741
  0
LINE
  8
0
 10
380.064
 20
-0.665741
 11
379.131
 21
-2.98985
  0
LINE
  8
0
 10
379.131
 20
-2.98985
 11
380.678
 21
-1.01997
  0
LINE
  8
0
 10
380.678
 20
-1.01997
 11
381.457
 21
-3.39993
  0
LINE
  8
0
 10
381.457
 20
-3.39993
 11
381.375
 21
-0.896957
  0
LINE
  8
0
 10
360.322
 20
-16.9154
 11
360.322
 21
16.9154
  0
LINE
  8
0
 10
360.322
 20
16.9154
 11
372.953
 21
16.9873
  0
LINE
  8
0
 10
372.953
 20
16.9873
 11
372.953
 21
-16.9873
  0
LINE
  8
0
 10
372.953
 20
-16.9873
 11
360.322
 21
-16.9154
  0
LINE
  8
0
 10
344.821
 20
-16.8271
 11
344.821
 21
16.8271
  0
LINE
  8
0
 10
344.821
 20
16.8271
 11
358.322
 21
16.904
  0
LINE
  8
0
 10
358.322
 20
16.904
 11
358.322
 21
-16.904
  0
LINE
  8
0
 10
358.322
 20
-16.904
 11
344.821
 21
-16.8271
  0
LINE
  8
0
 10
352.153
 20
-1.00679
 11
354.54
 21
-2.49091
  0
LINE
  8
0
 10
354.54
 20
-2.49091
 11
352.664
 21
-0.397614
  0
LINE
  8
0
 10
352.664
 20
-0.397614
 11
355.447
 21
0
  0
LINE
  8
0
 10
355.447
 20
0
 11
352.664
 21
0.397614
  0
LINE
  8
0
 10
352.664
 20
0.397614
 11
354.54
 21
2.49091
  0
LINE
  8
0
 10
354.54
 20
2.49091
 11
352.153
 21
1.00679
  0
LINE
  8
0
 10
352.153
 20
1.00679
 11
352.245
 21
3.8163
  0
LINE
  8
0
 10
352.245
 20
3.8163
 11
351.37
 21
1.14488
  0
LINE
  8
0
 10
351.37
 20
1.14488
 11
349.634
 21
3.356
  0
LINE
  8
0
 10
349.634
 20
3.356
 11
350.681
 21
0.747269
  0
LINE
  8
0
 10
350.681
 20
0.747269
 11
347.93
 21
1.32538
  0
LINE
  8
0
 10
347.93
 20
1.32538
 11
350.409
 21
0
  0
LINE
  8
0
 10
350.409
 20
0
 11
347.93
 21
-1.32538
  0
LINE
  8
0
 10
347.93
 20
-1.32538
 11
350.681
 21
-0.747269
  0
LINE
  8
0
 10
350.681
 20
-0.747269
 11
349.634
 21
-3.356
  0
LINE
  8
0
 10
349.634
 20
-3.356
 11
351.37
 21
-1.14488
  0
LINE
  8
0
 10
351.37
 20
-1.14488
 11
352.245
 21
-3.8163
  0
LINE
  8
0
 10
352.245
 20
-3.8163
 11
352.153
 21
-1.00679
  0
LINE
  8
0
 10
328.399
 20
-16.7336
 11
328.399
 21
16.7336
  0
LINE
  8
0
 10
328.399
 20
16.7336
 11
342.821
 21
16.8157
  0
LINE
  8
0
 10
342.821
 20
16.8157
 11
342.821
 21
-16.8157
  0
LINE
  8
0
 10
342.821
 20
-16.8157
 11
328.399
 21
-16.7336
  0
LINE
  8
0
 10
311
 20
-16.6345
 11
311
 21
16.6345
  0
LINE
  8
0
 10
311
 20
16.6345
 11
326.399
 21
16.7222
  0
LINE
  8
0
 10
326.399
 20
16.7222
 11
326.399
 21
-16.7222
  0
LINE
  8
0
 10
326.399
 20
-16.7222
 11
311
 21
-16.6345
  0
LINE
  8
0
 10
292.566
 20
-16.5296
 11
292.566
 21
16.5296
  0
LINE
  8
0
 10
292.566
 20
16.5296
 11
309
 21
16.6231
  0
LINE
  8
0
 10
309
 20
16.6231
 11
309
 21
-16.6231
  0
LINE
  8
0
 10
309
 20
-16.6231
 11
292.566
 21
-16.5296
  0
LINE
  8
0
 10
301.474
 20
8.01949
 11
304.313
 21
6.25456
  0
LINE
  8
0
 10
304.313
 20
6.25456
 11
302.082
 21
8.74393
  0
LINE
  8
0
 10
302.082
 20
8.74393
 11
305.392
 21
9.21677
  0
LINE
  8
0
 10
305.392
 20
9.21677
 11
302.082
 21
9.68961
  0
LINE
  8
0
 10
302.082
 20
9.68961
 11
304.313
 21
12.179
  0
LINE
  8
0
 10
304.313
 20
12.179
 11
301.474
 21
10.414
  0
LINE
  8
0
 10
301.474
 20
10.414
 11
301.583
 21
13.7551
  0
LINE
  8
0
 10
301.583
 20
13.7551
 11
300.543
 21
10.5783
  0
LINE
  8
0
 10
300.543
 20
10.5783
 11
298.479
 21
13.2077
  0
LINE
  8
0
 10
298.479
 20
13.2077
 11
299.724
 21
10.1054
  0
LINE
  8
0
 10
299.724
 20
10.1054
 11
296.453
 21
10.7929
  0
LINE
  8
0
 10
296.453
 20
10.7929
 11
299.401
 21
9.21677
  0
LINE
  8
0
 10
299.401
 20
9.21677
 11
296.453
 21
7.64061
  0
LINE
  8
0
 10
296.453
 20
7.64061
 11
299.724
 21
8.32811
  0
LINE
  8
0
 10
299.724
 20
8.32811
 11
298.479
 21
5.22578
  0
LINE
  8
0
 10
298.479
 20
5.22578
 11
300.543
 21
7.85526
  0
LINE
  8
0
 10
300.543
 20
7.85526
 11
301.583
 21
4.67839
  0
LINE
  8
0
 10
301.583
 20
4.67839
 11
301.474
 21
8.01949
  0
LINE
  8
0
 10
301.474
 20
-1.19728
 11
304.313
 21
-2.9622
  0
LINE
  8
0
 10
304.313
 20
-2.9622
 11
302.082
 21
-0.472839
  0
LINE
  8
0
 10
302.082
 20
-0.472839
 11
305.392
 21
0
  0
LINE
  8
0
 10
305.392
 20
0
 11
302.082
 21
0.472839
  0
LINE
  8
0
 10
302.082
 20
0.472839
 11
304.313
 21
2.9622
  0
LINE
  8
0
 10
304.313
 20
2.9622
 11
301.474
 21
1.19728
  0
LINE
  8
0
 10
301.474
 20
1.19728
 11
301.583
 21
4.53838
  0
LINE
  8
0
 10
301.583
 20
4.53838
 11
300.543
 21
1.36151
  0
LINE
  8
0
 10
300.543
 20
1.36151
 11
298.479
 21
3.99098
  0
LINE
  8
0
 10
298.479
 20
3.99098
 11
299.724
 21
0.888657
  0
LINE
  8
0
 10
299.724
 20
0.888657
 11
296.453
 21
1.57616
  0
LINE
  8
0
 10
296.453
 20
1.57616
 11
299.401
 21
0
  0
LINE
  8
0
 10
299.401
 20
0
 11
296.453
 21
-1.57616
  0
LINE
  8
0
 10
296.453
 20
-1.57616
 11
299.724
 21
-0.888657
  0
LINE
  8
0
 10
299.724
 20
-0.888657
 11
298.479
 21
-3.99098
  0
LINE
  8
0
 10
298.479
 20
-3.99098
 11
300.543
 21
-1.36151
  0
LINE
  8
0
 10
300.543
 20
-1.36151
 11
301.583
 21
-4.53838
  0
LINE
  8
0
 10
301.583
 20
-4.53838
 11
301.474
 21
-1.19728
  0
LINE
  8
0
 10
301.474
 20
-10.414
 11
304.313
 21
-12.179
  0
LINE
  8
0
 10
304.313
 20
-12.179
 11
302.082
 21
-9.68961
  0
LINE
  8
0
 10
302.082
 20
-9.68961
 11
305.392
 21
-9.21677
  0
LINE
  8
0
 10
305.392
 20
-9.21677
 11
302.082
 21
-8.74393
  0
LINE
  8
0
 10
302.082
 20
-8.74393
 11
304.313
 21
-6.25456
  0
LINE
  8
0
 10
304.313
 20
-6.25456
 11
301.474
 21
-8.01949
  0
LINE
  8
0
 10
301.474
 20
-8.01949
 11
301.583
 21
-4.67839
  0
LINE
  8
0
 10
301.583
 20
-4.67839
 11
300.543
 21
-7.85526
  0
LINE
  8
0
 10
300.543
 20
-7.85526
 11
298.479
 21
-5.22578
  0
LINE
  8
0
 10
298.479
 20
-5.22578
 11
299.724
 21
-8.32811
  0
LINE
  8
0
 10
299.724
 20
-8.32811
 11
296.453
 21
-7.64061
  0
LINE
  8
0
 10
296.453
 20
-7.64061
 11
299.401
 21
-9.21677
  0
LINE
  8
0
 10
299.401
 20
-9.21677
 11
296.453
 21
-10.7929
  0
LINE
  8
0
 10
296.453
 20
-10.7929
 11
299.724
 21
-10.1054
  0
LINE
  8
0
 10
299.724
 20
-10.1054
 11
298.479
 21
-13.2077
  0
LINE
  8
0
 10
298.479
 20
-13.2077
 11
300.543
 21
-10.5783
  0
LINE
  8
0
 10
300.543
 20
-10.5783
 11
301.583
 21
-13.7551
  0
LINE
  8
0
 10
301.583
 20
-13.7551
 11
301.474
 21
-10.414
  0
LINE
  8
0
 10
273.037
 20
-16.4184
 11
273.037
 21
16.4184
  0
LINE
  8
0
 10
273.037
 20
16.4184
 11
290.566
 21
16.5182
  0
LINE
  8
0
 10
290.566
 20
16.5182
 11
290.566
 21
-16.5182
  0
LINE
  8
0
 10
290.566
 20
-16.5182
 11
273.037
 21
-16.4184
  0
LINE
  8
0
 10
252.346
 20
-16.3005
 11
252.346
 21
16.3005
  0
LINE
  8
0
 10
252.346
 20
16.3005
 11
271.037
 21
16.407
  0
LINE
  8
0
 10
271.037
 20
16.407
 11
271.037
 21
-16.407
  0
LINE
  8
0
 10
271.037
 20
-16.407
 11
252.346
 21
-16.3005
  0
LINE
  8
0
 10
230.424
 20
-16.1757
 11
230.424
 21
16.1757
  0
LINE
  8
0
 10
230.424
 20
16.1757
 11
250.346
 21
16.2891
  0
LINE
  8
0
 10
250.346
 20
16.2891
 11
250.346
 21
-16.2891
  0
LINE
  8
0
 10
250.346
 20
-16.2891
 11
230.424
 21
-16.1757
  0
LINE
  8
0
 10
241.207
 20
4.05649
 11
244.583
 21
1.95764
  0
LINE
  8
0
 10
244.583
 20
1.95764
 11
241.93
 21
4.91801
  0
LINE
  8
0
 10
241.93
 20
4.91801
 11
245.865
 21
5.48032
  0
LINE
  8
0
 10
245.865
 20
5.48032
 11
241.93
 21
6.04262
  0
LINE
  8
0
 10
241.93
 20
6.04262
 11
244.583
 21
9.00299
  0
LINE
  8
0
 10
244.583
 20
9.00299
 11
241.207
 21
6.90414
  0
LINE
  8
0
 10
241.207
 20
6.90414
 11
241.337
 21
10.8774
  0
LINE
  8
0
 10
241.337
 20
10.8774
 11
240.1
 21
7.09943
  0
LINE
  8
0
 10
240.1
 20
7.09943
 11
237.645
 21
10.2264
  0
LINE
  8
0
 10
237.645
 20
10.2264
 11
239.126
 21
6.53711
  0
LINE
  8
0
 10
239.126
 20
6.53711
 11
235.235
 21
7.35469
  0
LINE
  8
0
 10
235.235
 20
7.35469
 11
238.741
 21
5.48032
  0
LINE
  8
0
 10
238.741
 20
5.48032
 11
235.235
 21
3.60594
  0
LINE
  8
0
 10
235.235
 20
3.60594
 11
239.126
 21
4.42352
  0
LINE
  8
0
 10
239.126
 20
4.42352
 11
237.645
 21
0.734222
  0
LINE
  8
0
 10
237.645
 20
0.734222
 11
240.1
 21
3.86121
  0
LINE
  8
0
 10
240.1
 20
3.86121
 11
241.337
 21
0.083252
  0
LINE
  8
0
 10
241.337
 20
0.083252
 11
241.207
 21
4.05649
  0
LINE
  8
0
 10
241.207
 20
-6.90414
 11
244.583
 21
-9.00299
  0
LINE
  8
0
 10
244.583
 20
-9.00299
 11
241.93
 21
-6.04262
  0
LINE
  8
0
 10
241.93
 20
-6.04262
 11
245.865
 21
-5.48032
  0
LINE
  8
0
 10
245.865
 20
-5.48032
 11
241.93
 21
-4.91801
  0
LINE
  8
0
 10
241.93
 20
-4.91801
 11
244.583
 21
-1.95764
  0
LINE
  8
0
 10
244.583
 20
-1.95764
 11
241.207
 21
-4.05649
  0
LINE
  8
0
 10
241.207
 20
-4.05649
 11
241.337
 21
-0.083252
  0
LINE
  8
0
 10
241.337
 20
-0.083252
 11
240.1
 21
-3.86121
  0
LINE
  8
0
 10
240.1
 20
-3.86121
 11
237.645
 21
-0.734222
  0
LINE
  8
0
 10
237.645
 20
-0.734222
 11
239.126
 21
-4.42352
  0
LINE
  8
0
 10
239.126
 20
-4.42352
 11
235.235
 21
-3.60594
  0
LINE
  8
0
 10
235.235
 20
-3.60594
 11
238.741
 21
-5.48032
  0
LINE
  8
0
 10
238.741
 20
-5.48032
 11
235.235
 21
-7.35469
  0
LINE
  8
0
 10
235.235
 20
-7.35469
 11
239.126
 21
-6.53711
  0
LINE
  8
0
 10
239.126
 20
-6.53711
 11
237.645
 21
-10.2264
  0
LINE
  8
0
 10
237.645
 20
-10.2264
 11
240.1
 21
-7.09943
  0
LINE
  8
0
 10
240.1
 20
-7.09943
 11
241.337
 21
-10.8774
  0
LINE
  8
0
 10
241.337
 20
-10.8774
 11
241.207
 21
-6.90414
  0
LINE
  8
0
 10
207.2
 20
-16.0435
 11
207.2
 21
16.0435
  0
LINE
  8
0
 10
207.2
 20
16.0435
 11
228.424
 21
16.1643
  0
LINE
  8
0
 10
228.424
 20
16.1643
 11
228.424
 21
-16.1643
  0
LINE
  8
0
 10
228.424
 20
-16.1643
 11
207.2
 21
-16.0435
  0
LINE
  8
0
 10
182.594
 20
-15.9034
 11
182.594
 21
15.9034
  0
LINE
  8
0
 10
182.594
 20
15.9034
 11
205.2
 21
16.0321
  0
LINE
  8
0
 10
205.2
 20
16.0321
 11
205.2
 21
-16.0321
  0
LINE
  8
0
 10
205.2
 20
-16.0321
 11
182.594
 21
-15.9034
  0
LINE
  8
0
 10
194.819
 20
-1.59819
 11
198.609
 21
-3.95407
  0
LINE
  8
0
 10
198.609
 20
-3.95407
 11
195.631
 21
-0.631165
  0
LINE
  8
0
 10
195.631
 20
-0.631165
 11
200.048
 21
0
  0
LINE
  8
0
 10
200.048
 20
0
 11
195.631
 21
0.631165
  0
LINE
  8
0
 10
195.631
 20
0.631165
 11
198.609
 21
3.95407
  0
LINE
  8
0
 10
198.609
 20
3.95407
 11
194.819
 21
1.59819
  0
LINE
  8
0
 10
194.819
 20
1.59819
 11
194.965
 21
6.058
  0
LINE
  8
0
 10
194.965
 20
6.058
 11
193.576
 21
1.8174
  0
LINE
  8
0
 10
193.576
 20
1.8174
 11
190.821
 21
5.32732
  0
LINE
  8
0
 10
190.821
 20
5.32732
 11
192.483
 21
1.18622
  0
LINE
  8
0
 10
192.483
 20
1.18622
 11
188.116
 21
2.10391
  0
LINE
  8
0
 10
188.116
 20
2.10391
 11
192.051
 21
0
  0
LINE
  8
0
 10
192.051
 20
0
 11
188.116
 21
-2.10391
  0
LINE
  8
0
 10
188.116
 20
-2.10391
 11
192.483
 21
-1.18622
  0
LINE
  8
0
 10
192.483
 20
-1.18622
 11
190.821
 21
-5.32732
  0
LINE
  8
0
 10
190.821
 20
-5.32732
 11
193.576
 21
-1.8174
  0
LINE
  8
0
 10
193.576
 20
-1.8174
 11
194.965
 21
-6.058
  0
LINE
  8
0
 10
194.965
 20
-6.058
 11
194.819
 21
-1.59819
  0
LINE
  8
0
 10
156.525
 20
-15.7549
 11
156.525
 21
15.7549
  0
LINE
  8
0
 10
156.525
 20
15.7549
 11
180.594
 21
15.892
  0
LINE
  8
0
 10
180.594
 20
15.892
 11
180.594
 21
-15.892
  0
LINE
  8
0
 10
180.594
 20
-15.892
 11
156.525
 21
-15.7549
  0
LINE
  8
0
 10
128.906
 20
-15.5976
 11
128.906
 21
15.5976
  0
LINE
  8
0
 10
128.906
 20
15.5976
 11
154.525
 21
15.7435
  0
LINE
  8
0
 10
154.525
 20
15.7435
 11
154.525
 21
-15.7435
  0
LINE
  8
0
 10
154.525
 20
-15.7435
 11
128.906
 21
-15.5976
  0
LINE
  8
0
 10
142.751
 20
-1.79391
 11
147.005
 21
-4.43831
  0
LINE
  8
0
 10
147.005
 20
-4.43831
 11
143.662
 21
-0.708466
  0
LINE
  8
0
 10
143.662
 20
-0.708466
 11
148.62
 21
0
  0
LINE
  8
0
 10
148.62
 20
0
 11
143.662
 21
0.708466
  0
LINE
  8
0
 10
143.662
 20
0.708466
 11
147.005
 21
4.43831
  0
LINE
  8
0
 10
147.005
 20
4.43831
 11
142.751
 21
1.79391
  0
LINE
  8
0
 10
142.751
 20
1.79391
 11
142.914
 21
6.79988
  0
LINE
  8
0
 10
142.914
 20
6.79988
 11
141.356
 21
2.03996
  0
LINE
  8
0
 10
141.356
 20
2.03996
 11
138.263
 21
5.97971
  0
LINE
  8
0
 10
138.263
 20
5.97971
 11
140.128
 21
1.33148
  0
LINE
  8
0
 10
140.128
 20
1.33148
 11
135.227
 21
2.36157
  0
LINE
  8
0
 10
135.227
 20
2.36157
 11
139.644
 21
0
  0
LINE
  8
0
 10
139.644
 20
0
 11
135.227
 21
-2.36157
  0
LINE
  8
0
 10
135.227
 20
-2.36157
 11
140.128
 21
-1.33148
  0
LINE
  8
0
 10
140.128
 20
-1.33148
 11
138.263
 21
-5.97971
  0
LINE
  8
0
 10
138.263
 20
-5.97971
 11
141.356
 21
-2.03996
  0
LINE
  8
0
 10
141.356
 20
-2.03996
 11
142.914
 21
-6.79988
  0
LINE
  8
0
 10
142.914
 20
-6.79988
 11
142.751
 21
-1.79391
  0
LINE
  8
0
 10
99.6442
 20
-15.431
 11
99.6442
 21
15.431
  0
LINE
  8
0
 10
99.6442
 20
15.431
 11
126.906
 21
15.5863
  0
LINE
  8
0
 10
126.906
 20
15.5863
 11
126.906
 21
-15.5863
  0
LINE
  8
0
 10
126.906
 20
-15.5863
 11
99.6442
 21
-15.431
  0
LINE
  8
0
 10
68.6428
 20
-15.2545
 11
68.6428
 21
15.2545
  0
LINE
  8
0
 10
68.6428
 20
15.2545
 11
97.6442
 21
15.4196
  0
LINE
  8
0
 10
97.6442
 20
15.4196
 11
97.6442
 21
-15.4196
  0
LINE
  8
0
 10
97.6442
 20
-15.4196
 11
68.6428
 21
-15.2545
  0
LINE
  8
0
 10
84.306
 20
-2.0136
 11
89.0806
 21
-4.98183
  0
LINE
  8
0
 10
89.0806
 20
-4.98183
 11
85.3284
 21
-0.795227
  0
LINE
  8
0
 10
85.3284
 20
-0.795227
 11
90.8938
 21
0
  0
LINE
  8
0
 10
90.8938
 20
0
 11
85.3284
 21
0.795227
  0
LINE
  8
0
 10
85.3284
 20
0.795227
 11
89.0806
 21
4.98183
  0
LINE
  8
0
 10
89.0806
 20
4.98183
 11
84.306
 21
2.0136
  0
LINE
  8
0
 10
84.306
 20
2.0136
 11
84.4893
 21
7.6326
  0
LINE
  8
0
 10
84.4893
 20
7.6326
 11
82.7397
 21
2.28978
  0
LINE
  8
0
 10
82.7397
 20
2.28978
 11
79.2683
 21
6.71201
  0
LINE
  8
0
 10
79.2683
 20
6.71201
 11
81.3624
 21
1.49454
  0
LINE
  8
0
 10
81.3624
 20
1.49454
 11
75.8605
 21
2.65077
  0
LINE
  8
0
 10
75.8605
 20
2.65077
 11
80.8184
 21
0
  0
LINE
  8
0
 10
80.8184
 20
0
 11
75.8605
 21
-2.65077
  0
LINE
  8
0
 10
75.8605
 20
-2.65077
 11
81.3624
 21
-1.49454
  0
LINE
  8
0
 10
81.3624
 20
-1.49454
 11
79.2683
 21
-6.71201
  0
LINE
  8
0
 10
79.2683
 20
-6.71201
 11
82.7397
 21
-2.28978
  0
LINE
  8
0
 10
82.7397
 20
-2.28978
 11
84.4893
 21
-7.6326
  0
LINE
  8
0
 10
84.4893
 20
-7.6326
 11
84.306
 21
-2.0136
  0
LINE
  8
0
 10
35.7979
 20
-15.0675
 11
35.7979
 21
15.0675
  0
LINE
  8
0
 10
35.7979
 20
15.0675
 11
66.6428
 21
15.2431
  0
LINE
  8
0
 10
66.6428
 20
15.2431
 11
66.6428
 21
-15.2431
  0
LINE
  8
0
 10
66.6428
 20
-15.2431
 11
35.7979
 21
-15.0675
  0
LINE
  8
0
 10
1.99501
 20
-14.875
 11
1.96361
 21
-14.8747
  0
LINE
  8
0
 10
1.96361
 20
-14.8747
 11
1.93219
 21
-14.874
  0
LINE
  8
0
 10
1.93219
 20
-14.874
 11
1.9008
 21
-14.8728
  0
LINE
  8
0
 10
1.9008
 20
-14.8728
 11
1.86943
 21
-14.871
  0
LINE
  8
0
 10
1.86943
 20
-14.871
 11
1.8381
 21
-14.8688
  0
LINE
  8
0
 10
1.8381
 20
-14.8688
 11
1.80681
 21
-14.8661
  0
LINE
  8
0
 10
1.80681
 20
-14.8661
 11
1.77554
 21
-14.8629
  0
LINE
  8
0
 10
1.77554
 20
-14.8629
 11
1.74435
 21
-14.8592
  0
LINE
  8
0
 10
1.74435
 20
-14.8592
 11
1.71321
 21
-14.855
  0
LINE
  8
0
 10
1.71321
 20
-14.855
 11
1.68214
 21
-14.8504
  0
LINE
  8
0
 10
1.68214
 20
-14.8504
 11
1.65115
 21
-14.8452
  0
LINE
  8
0
 10
1.65115
 20
-14.8452
 11
1.62025
 21
-14.8396
  0
LINE
  8
0
 10
1.62025
 20
-14.8396
 11
1.58945
 21
-14.8334
  0
LINE
  8
0
 10
1.58945
 20
-14.8334
 11
1.55873
 21
-14.8268
  0
LINE
  8
0
 10
1.55873
 20
-14.8268
 11
1.52812
 21
-14.8197
  0
LINE
  8
0
 10
1.52812
 20
-14.8197
 11
1.49763
 21
-14.8122
  0
LINE
  8
0
 10
1.49763
 20
-14.8122
 11
1.46727
 21
-14.8041
  0
LINE
  8
0
 10
1.46727
 20
-14.8041
 11
1.43704
 21
-14.7956
  0
LINE
  8
0
 10
1.43704
 20
-14.7956
 11
1.40694
 21
-14.7866
  0
LINE
  8
0
 10
1.40694
 20
-14.7866
 11
1.37698
 21
-14.7771
  0
LINE
  8
0
 10
1.37698
 20
-14.7771
 11
1.34718
 21
-14.7672
  0
LINE
  8
0
 10
1.34718
 20
-14.7672
 11
1.31754
 21
-14.7568
  0
LINE
  8
0
 10
1.31754
 20
-14.7568
 11
1.28807
 21
-14.7459
  0
LINE
  8
0
 10
1.28807
 20
-14.7459
 11
1.25877
 21
-14.7345
  0
LINE
  8
0
 10
1.25877
 20
-14.7345
 11
1.22964
 21
-14.7227
  0
LINE
  8
0
 10
1.22964
 20
-14.7227
 11
1.20073
 21
-14.7105
  0
LINE
  8
0
 10
1.20073
 20
-14.7105
 11
1.17198
 21
-14.6978
  0
LINE
  8
0
 10
1.17198
 20
-14.6978
 11
1.14346
 21
-14.6846
  0
LINE
  8
0
 10
1.14346
 20
-14.6846
 11
1.11514
 21
-14.6711
  0
LINE
  8
0
 10
1.11514
 20
-14.6711
 11
1.08704
 21
-14.657
  0
LINE
  8
0
 10
1.08704
 20
-14.657
 11
1.05916
 21
-14.6425
  0
LINE
  8
0
 10
1.05916
 20
-14.6425
 11
1.03151
 21
-14.6276
  0
LINE
  8
0
 10
1.03151
 20
-14.6276
 11
1.0041
 21
-14.6123
  0
LINE
  8
0
 10
1.0041
 20
-14.6123
 11
0.976929
 21
-14.5965
  0
LINE
  8
0
 10
0.976929
 20
-14.5965
 11
0.950027
 21
-14.5803
  0
LINE
  8
0
 10
0.950027
 20
-14.5803
 11
0.92337
 21
-14.5636
  0
LINE
  8
0
 10
0.92337
 20
-14.5636
 11
0.896973
 21
-14.5466
  0
LINE
  8
0
 10
0.896973
 20
-14.5466
 11
0.87085
 21
-14.5292
  0
LINE
  8
0
 10
0.87085
 20
-14.5292
 11
0.845001
 21
-14.5113
  0
LINE
  8
0
 10
0.845001
 20
-14.5113
 11
0.819443
 21
-14.493
  0
LINE
  8
0
 10
0.819443
 20
-14.493
 11
0.794174
 21
-14.4744
  0
LINE
  8
0
 10
0.794174
 20
-14.4744
 11
0.769211
 21
-14.4553
  0
LINE
  8
0
 10
0.769211
 20
-14.4553
 11
0.744537
 21
-14.4359
  0
LINE
  8
0
 10
0.744537
 20
-14.4359
 11
0.720169
 21
-14.416
  0
LINE
  8
0
 10
0.720169
 20
-14.416
 11
0.696121
 21
-14.3958
  0
LINE
  8
0
 10
0.696121
 20
-14.3958
 11
0.672394
 21
-14.3752
  0
LINE
  8
0
 10
0.672394
 20
-14.3752
 11
0.648987
 21
-14.3542
  0
LINE
  8
0
 10
0.648987
 20
-14.3542
 11
0.625931
 21
-14.3329
  0
LINE
  8
0
 10
0.625931
 20
-14.3329
 11
0.603195
 21
-14.3112
  0
LINE
  8
0
 10
0.603195
 20
-14.3112
 11
0.580811
 21
-14.2892
  0
LINE
  8
0
 10
0.580811
 20
-14.2892
 11
0.558762
 21
-14.2668
  0
LINE
  8
0
 10
0.558762
 20
-14.2668
 11
0.537079
 21
-14.2441
  0
LINE
  8
0
 10
0.537079
 20
-14.2441
 11
0.515762
 21
-14.221
  0
LINE
  8
0
 10
0.515762
 20
-14.221
 11
0.494797
 21
-14.1976
  0
LINE
  8
0
 10
0.494797
 20
-14.1976
 11
0.474213
 21
-14.1739
  0
LINE
  8
0
 10
0.474213
 20
-14.1739
 11
0.453995
 21
-14.1498
  0
LINE
  8
0
 10
0.453995
 20
-14.1498
 11
0.434158
 21
-14.1255
  0
LINE
  8
0
 10
0.434158
 20
-14.1255
 11
0.414703
 21
-14.1008
  0
LINE
  8
0
 10
0.414703
 20
-14.1008
 11
0.395645
 21
-14.0758
  0
LINE
  8
0
 10
0.395645
 20
-14.0758
 11
0.376984
 21
-14.0506
  0
LINE
  8
0
 10
0.376984
 20
-14.0506
 11
0.358719
 21
-14.025
  0
LINE
  8
0
 10
0.358719
 20
-14.025
 11
0.340851
 21
-13.9992
  0
LINE
  8
0
 10
0.340851
 20
-13.9992
 11
0.32341
 21
-13.973
  0
LINE
  8
0
 10
0.32341
 20
-13.973
 11
0.306366
 21
-13.9466
  0
LINE
  8
0
 10
0.306366
 20
-13.9466
 11
0.289734
 21
-13.92
  0
LINE
  8
0
 10
0.289734
 20
-13.92
 11
0.273529
 21
-13.8931
  0
LINE
  8
0
 10
0.273529
 20
-13.8931
 11
0.257751
 21
-13.8659
  0
LINE
  8
0
 10
0.257751
 20
-13.8659
 11
0.242401
 21
-13.8385
  0
LINE
  8
0
 10
0.242401
 20
-13.8385
 11
0.227493
 21
-13.8109
  0
LINE
  8
0
 10
0.227493
 20
-13.8109
 11
0.212997
 21
-13.783
  0
LINE
  8
0
 10
0.212997
 20
-13.783
 11
0.198959
 21
-13.7549
  0
LINE
  8
0
 10
0.198959
 20
-13.7549
 11
0.185364
 21
-13.7265
  0
LINE
  8
0
 10
0.185364
 20
-13.7265
 11
0.172211
 21
-13.698
  0
LINE
  8
0
 10
0.172211
 20
-13.698
 11
0.159515
 21
-13.6693
  0
LINE
  8
0
 10
0.159515
 20
-13.6693
 11
0.147263
 21
-13.6404
  0
LINE
  8
0
 10
0.147263
 20
-13.6404
 11
0.135468
 21
-13.6112
  0
LINE
  8
0
 10
0.135468
 20
-13.6112
 11
0.12413
 21
-13.5819
  0
LINE
  8
0
 10
0.12413
 20
-13.5819
 11
0.113251
 21
-13.5525
  0
LINE
  8
0
 10
0.113251
 20
-13.5525
 11
0.102844
 21
-13.5228
  0
LINE
  8
0
 10
0.102844
 20
-13.5228
 11
0.0929108
 21
-13.493
  0
LINE
  8
0
 10
0.0929108
 20
-13.493
 11
0.0834351
 21
-13.4631
  0
LINE
  8
0
 10
0.0834351
 20
-13.4631
 11
0.0744324
 21
-13.433
  0
LINE
  8
0
 10
0.0744324
 20
-13.433
 11
0.0659027
 21
-13.4027
  0
LINE
  8
0
 10
0.0659027
 20
-13.4027
 11
0.0578461
 21
-13.3724
  0
LINE
  8
0
 10
0.0578461
 20
-13.3724
 11
0.0502777
 21
-13.3419
  0
LINE
  8
0
 10
0.0502777
 20
-13.3419
 11
0.0431824
 21
-13.3113
  0
LINE
  8
0
 10
0.0431824
 20
-13.3113
 11
0.0365753
 21
-13.2806
  0
LINE
  8
0
 10
0.0365753
 20
-13.2806
 11
0.0304413
 21
-13.2498
  0
LINE
  8
0
 10
0.0304413
 20
-13.2498
 11
0.0247955
 21
-13.2189
  0
LINE
  8
0
 10
0.0247955
 20
-13.2189
 11
0.0196381
 21
-13.1879
  0
LINE
  8
0
 10
0.0196381
 20
-13.1879
 11
0.0149689
 21
-13.1568
  0
LINE
  8
0
 10
0.0149689
 20
-13.1568
 11
0.010788
 21
-13.1257
  0
LINE
  8
0
 10
0.010788
 20
-13.1257
 11
0.00709534
 21
-13.0945
  0
LINE
  8
0
 10
0.00709534
 20
-13.0945
 11
0.00389099
 21
-13.0632
  0
LINE
  8
0
 10
0.00389099
 20
-13.0632
 11
0.00119019
 21
-13.0319
  0
LINE
  8
0
 10
0.00119019
 20
-13.0319
 11
-0.0010376
 21
-13.0006
  0
LINE
  8
0
 10
-0.0010376
 20
-13.0006
 11
-0.00276184
 21
-12.9692
  0
LINE
  8
0
 10
-0.00276184
 20
-12.9692
 11
-0.0039978
 21
-12.9378
  0
LINE
  8
0
 10
-0.0039978
 20
-12.9378
 11
-0.00473022
 21
-12.9064
  0
LINE
  8
0
 10
-0.00473022
 20
-12.9064
 11
-0.00498962
 21
-12.875
  0
LINE
  8
0
 10
-0.00498962
 20
-12.875
 11
-0.00498962
 21
12.875
  0
LINE
  8
0
 10
-0.00498962
 20
12.875
 11
-0.00473022
 21
12.9064
  0
LINE
  8
0
 10
-0.00473022
 20
12.9064
 11
-0.0039978
 21
12.9378
  0
LINE
  8
0
 10
-0.0039978
 20
12.9378
 11
-0.00276184
 21
12.9692
  0
LINE
  8
0
 10
-0.00276184
 20
12.9692
 11
-0.0010376
 21
13.0006
  0
LINE
  8
0
 10
-0.0010376
 20
13.0006
 11
0.00119019
 21
13.0319
  0
LINE
  8
0
 10
0.00119019
 20
13.0319
 11
0.00389099
 21
13.0632
  0
LINE
  8
0
 10
0.00389099
 20
13.0632
 11
0.00709534
 21
13.0945
  0
LINE
  8
0
 10
0.00709534
 20
13.0945
 11
0.010788
 21
13.1257
  0
LINE
  8
0
 10
0.010788
 20
13.1257
 11
0.0149689
 21
13.1568
  0
LINE
  8
0
 10
0.0149689
 20
13.1568
 11
0.0196381
 21
13.1879
  0
LINE
  8
0
 10
0.0196381
 20
13.1879
 11
0.0247955
 21
13.2189
  0
LINE
  8
0
 10
0.0247955
 20
13.2189
 11
0.0304413
 21
13.2498
  0
LINE
  8
0
 10
0.0304413
 20
13.2498
 11
0.0365753
 21
13.2806
  0
LINE
  8
0
 10
0.0365753
 20
13.2806
 11
0.0431824
 21
13.3113
  0
LINE
  8
0
 10
0.0431824
 20
13.3113
 11
0.0502777
 21
13.3419
  0
LINE
  8
0
 10
0.0502777
 20
13.3419
 11
0.0578461
 21
13.3724
  0
LINE
  8
0
 10
0.0578461
 20
13.3724
 11
0.0659027
 21
13.4027
  0
LINE
  8
0
 10
0.0659027
 20
13.4027
 11
0.0744324
 21
13.433
  0
LINE
  8
0
 10
0.0744324
 20
13.433
 11
0.0834351
 21
13.4631
  0
LINE
  8
0
 10
0.0834351
 20
13.4631
 11
0.0929108
 21
13.493
  0
LINE
  8
0
 10
0.0929108
 20
13.493
 11
0.102844
 21
13.5228
  0
LINE
  8
0
 10
0.102844
 20
13.5228
 11
0.113251
 21
13.5525
  0
LINE
  8
0
 10
0.113251
 20
13.5525
 11
0.12413
 21
13.5819
  0
LINE
  8
0
 10
0.12413
 20
13.5819
 11
0.135468
 21
13.6112
  0
LINE
  8
0
 10
0.135468
 20
13.6112
 11
0.147263
 21
13.6404
  0
LINE
  8
0
 10
0.147263
 20
13.6404
 11
0.159515
 21
13.6693
  0
LINE
  8
0
 10
0.159515
 20
13.6693
 11
0.172211
 21
13.698
  0
LINE
  8
0
 10
0.172211
 20
13.698
 11
0.185364
 21
13.7265
  0
LINE
  8
0
 10
0.185364
 20
13.7265
 11
0.198959
 21
13.7549
  0
LINE
  8
0
 10
0.198959
 20
13.7549
 11
0.212997
 21
13.783
  0
LINE
  8
0
 10
0.212997
 20
13.783
 11
0.227493
 21
13.8109
  0
LINE
  8
0
 10
0.227493
 20
13.8109
 11
0.242401
 21
13.8385
  0
LINE
  8
0
 10
0.242401
 20
13.8385
 11
0.257751
 21
13.8659
  0
LINE
  8
0
 10
0.257751
 20
13.8659
 11
0.273529
 21
13.8931
  0
LINE
  8
0
 10
0.273529
 20
13.8931
 11
0.289734
 21
13.92
  0
LINE
  8
0
 10
0.289734
 20
13.92
 11
0.306366
 21
13.9466
  0
LINE
  8
0
 10
0.306366
 20
13.9466
 11
0.32341
 21
13.973
  0
LINE
  8
0
 10
0.32341
 20
13.973
 11
0.340851
 21
13.9992
  0
LINE
  8
0
 10
0.340851
 20
13.9992
 11
0.358719
 21
14.025
  0
LINE
  8
0
 10
0.358719
 20
14.025
 11
0.376984
 21
14.0506
  0
LINE
  8
0
 10
0.376984
 20
14.0506
 11
0.395645
 21
14.0758
  0
LINE
  8
0
 10
0.395645
 20
14.0758
 11
0.414703
 21
14.1008
  0
LINE
  8
0
 10
0.414703
 20
14.1008
 11
0.434158
 21
14.1255
  0
LINE
  8
0
 10
0.434158
 20
14.1255
 11
0.453995
 21
14.1498
  0
LINE
  8
0
 10
0.453995
 20
14.1498
 11
0.474213
 21
14.1739
  0
LINE
  8
0
 10
0.474213
 20
14.1739
 11
0.494797
 21
14.1976
  0
LINE
  8
0
 10
0.494797
 20
14.1976
 11
0.515762
 21
14.221
  0
LINE
  8
0
 10
0.515762
 20
14.221
 11
0.537079
 21
14.2441
  0
LINE
  8
0
 10
0.537079
 20
14.2441
 11
0.558762
 21
14.2668
  0
LINE
  8
0
 10
0.558762
 20
14.2668
 11
0.580811
 21
14.2892
  0
LINE
  8
0
 10
0.580811
 20
14.2892
 11
0.603195
 21
14.3112
  0
LINE
  8
0
 10
0.603195
 20
14.3112
 11
0.625931
 21
14.3329
  0
LINE
  8
0
 10
0.625931
 20
14.3329
 11
0.648987
 21
14.3542
  0
LINE
  8
0
 10
0.648987
 20
14.3542
 11
0.672394
 21
14.3752
  0
LINE
  8
0
 10
0.672394
 20
14.3752
 11
0.696121
 21
14.3958
  0
LINE
  8
0
 10
0.696121
 20
14.3958
 11
0.720169
 21
14.416
  0
LINE
  8
0
 10
0.720169
 20
14.416
 11
0.744537
 21
14.4359
  0
LINE
  8
0
 10
0.744537
 20
14.4359
 11
0.769211
 21
14.4553
  0
LINE
  8
0
 10
0.769211
 20
14.4553
 11
0.794174
 21
14.4744
  0
LINE
  8
0
 10
0.794174
 20
14.4744
 11
0.819443
 21
14.493
  0
LINE
  8
0
 10
0.819443
 20
14.493
 11
0.845001
 21
14.5113
  0
LINE
  8
0
 10
0.845001
 20
14.5113
 11
0.87085
 21
14.5292
  0
LINE
  8
0
 10
0.87085
 20
14.5292
 11
0.896973
 21
14.5466
  0
LINE
  8
0
 10
0.896973
 20
14.5466
 11
0.92337
 21
14.5636
  0
LINE
  8
0
 10
0.92337
 20
14.5636
 11
0.950027
 21
14.5803
  0
LINE
  8
0
 10
0.950027
 20
14.5803
 11
0.976929
 21
14.5965
  0
LINE
  8
0
 10
0.976929
 20
14.5965
 11
1.0041
 21
14.6123
  0
LINE
  8
0
 10
1.0041
 20
14.6123
 11
1.03151
 21
14.6276
  0
LINE
  8
0
 10
1.03151
 20
14.6276
 11
1.05916
 21
14.6425
  0
LINE
  8
0
 10
1.05916
 20
14.6425
 11
1.08704
 21
14.657
  0
LINE
  8
0
 10
1.08704
 20
14.657
 11
1.11514
 21
14.6711
  0
LINE
  8
0
 10
1.11514
 20
14.6711
 11
1.14346
 21
14.6846
  0
LINE
  8
0
 10
1.14346
 20
14.6846
 11
1.17198
 21
14.6978
  0
LINE
  8
0
 10
1.17198
 20
14.6978
 11
1.20073
 21
14.7105
  0
LINE
  8
0
 10
1.20073
 20
14.7105
 11
1.22964
 21
14.7227
  0
LINE
  8
0
 10
1.22964
 20
14.7227
 11
1.25877
 21
14.7345
  0
LINE
  8
0
 10
1.25877
 20
14.7345
 11
1.28807
 21
14.7459
  0
LINE
  8
0
 10
1.28807
 20
14.7459
 11
1.31754
 21
14.7568
  0
LINE
  8
0
 10
1.31754
 20
14.7568
 11
1.34718
 21
14.7672
  0
LINE
  8
0
 10
1.34718
 20
14.7672
 11
1.37698
 21
14.7771
  0
LINE
  8
0
 10
1.37698
 20
14.7771
 11
1.40694
 21
14.7866
  0
LINE
  8
0
 10
1.40694
 20
14.7866
 11
1.43704
 21
14.7956
  0
LINE
  8
0
 10
1.43704
 20
14.7956
 11
1.46727
 21
14.8041
  0
LINE
  8
0
 10
1.46727
 20
14.8041
 11
1.49763
 21
14.8122
  0
LINE
  8
0
 10
1.49763
 20
14.8122
 11
1.52812
 21
14.8197
  0
LINE
  8
0
 10
1.52812
 20
14.8197
 11
1.55873
 21
14.8268
  0
LINE
  8
0
 10
1.55873
 20
14.8268
 11
1.58945
 21
14.8334
  0
LINE
  8
0
 10
1.58945
 20
14.8334
 11
1.62025
 21
14.8396
  0
LINE
  8
0
 10
1.62025
 20
14.8396
 11
1.65115
 21
14.8452
  0
LINE
  8
0
 10
1.65115
 20
14.8452
 11
1.68214
 21
14.8504
  0
LINE
  8
0
 10
1.68214
 20
14.8504
 11
1.71321
 21
14.855
  0
LINE
  8
0
 10
1.71321
 20
14.855
 11
1.74435
 21
14.8592
  0
LINE
  8
0
 10
1.74435
 20
14.8592
 11
1.77554
 21
14.8629
  0
LINE
  8
0
 10
1.77554
 20
14.8629
 11
1.80681
 21
14.8661
  0
LINE
  8
0
 10
1.80681
 20
14.8661
 11
1.8381
 21
14.8688
  0
LINE
  8
0
 10
1.8381
 20
14.8688
 11
1.86943
 21
14.871
  0
LINE
  8
0
 10
1.86943
 20
14.871
 11
1.9008
 21
14.8728
  0
LINE
  8
0
 10
1.9008
 20
14.8728
 11
1.93219
 21
14.874
  0
LINE
  8
0
 10
1.93219
 20
14.874
 11
1.96361
 21
14.8747
  0
LINE
  8
0
 10
1.96361
 20
14.8747
 11
1.99501
 21
14.875
  0
LINE
  8
0
 10
1.99501
 20
14.875
 11
33.7979
 21
15.0561
  0
LINE
  8
0
 10
33.7979
 20
15.0561
 11
33.7979
 21
-15.0561
  0
LINE
  8
0
 10
33.7979
 20
-15.0561
 11
1.99501
 21
-14.875
  0
ENDSEC
  0
SECTION
  2
OBJECTS
  0
DICTIONARY
  0
ENDSEC
  0
EOF
